<mxfile host="Electron" modified="2024-02-26T09:27:19.272Z" agent="Mozilla/5.0 (X11; Linux x86_64) AppleWebKit/537.36 (KHTML, like Gecko) draw.io/23.1.5 Chrome/120.0.6099.109 Electron/28.1.0 Safari/537.36" etag="ih7YdXIC6dN10NwCWp2z" version="23.1.5" type="device">
  <diagram name="第 1 页" id="qQIt5931LA3dJ69TTtzC">
    <mxGraphModel dx="9870" dy="6102" grid="1" gridSize="10" guides="1" tooltips="1" connect="1" arrows="1" fold="1" page="1" pageScale="1" pageWidth="827" pageHeight="1169" math="0" shadow="0">
      <root>
        <mxCell id="0" />
        <mxCell id="1" parent="0" />
        <mxCell id="ogpWwlNU3PsfXAv5v1am-3" style="edgeStyle=orthogonalEdgeStyle;rounded=0;orthogonalLoop=1;jettySize=auto;html=1;exitX=0;exitY=0.5;exitDx=0;exitDy=0;curved=1;" parent="1" source="ogpWwlNU3PsfXAv5v1am-1" target="ogpWwlNU3PsfXAv5v1am-2" edge="1">
          <mxGeometry relative="1" as="geometry" />
        </mxCell>
        <mxCell id="ogpWwlNU3PsfXAv5v1am-5" style="edgeStyle=orthogonalEdgeStyle;rounded=0;orthogonalLoop=1;jettySize=auto;html=1;exitX=0;exitY=1;exitDx=0;exitDy=0;strokeColor=default;align=center;verticalAlign=middle;fontFamily=Helvetica;fontSize=11;fontColor=default;labelBackgroundColor=default;endArrow=classic;curved=1;" parent="1" source="ogpWwlNU3PsfXAv5v1am-1" target="ogpWwlNU3PsfXAv5v1am-4" edge="1">
          <mxGeometry relative="1" as="geometry" />
        </mxCell>
        <mxCell id="ogpWwlNU3PsfXAv5v1am-15" style="edgeStyle=orthogonalEdgeStyle;rounded=0;orthogonalLoop=1;jettySize=auto;html=1;exitX=0.5;exitY=1;exitDx=0;exitDy=0;entryX=0.5;entryY=0;entryDx=0;entryDy=0;strokeColor=default;align=center;verticalAlign=middle;fontFamily=Helvetica;fontSize=11;fontColor=default;labelBackgroundColor=default;endArrow=classic;curved=1;" parent="1" source="ogpWwlNU3PsfXAv5v1am-1" target="ogpWwlNU3PsfXAv5v1am-14" edge="1">
          <mxGeometry relative="1" as="geometry" />
        </mxCell>
        <mxCell id="ogpWwlNU3PsfXAv5v1am-29" style="edgeStyle=orthogonalEdgeStyle;rounded=0;orthogonalLoop=1;jettySize=auto;html=1;exitX=1;exitY=0.5;exitDx=0;exitDy=0;entryX=0;entryY=0.5;entryDx=0;entryDy=0;strokeColor=default;align=center;verticalAlign=middle;fontFamily=Helvetica;fontSize=11;fontColor=default;labelBackgroundColor=default;endArrow=classic;curved=1;" parent="1" source="ogpWwlNU3PsfXAv5v1am-1" target="ogpWwlNU3PsfXAv5v1am-28" edge="1">
          <mxGeometry relative="1" as="geometry" />
        </mxCell>
        <mxCell id="ogpWwlNU3PsfXAv5v1am-40" style="edgeStyle=orthogonalEdgeStyle;rounded=0;orthogonalLoop=1;jettySize=auto;html=1;exitX=0.5;exitY=0;exitDx=0;exitDy=0;entryX=0.5;entryY=1;entryDx=0;entryDy=0;strokeColor=default;align=center;verticalAlign=middle;fontFamily=Helvetica;fontSize=11;fontColor=default;labelBackgroundColor=default;endArrow=classic;curved=1;" parent="1" source="ogpWwlNU3PsfXAv5v1am-1" target="ogpWwlNU3PsfXAv5v1am-39" edge="1">
          <mxGeometry relative="1" as="geometry" />
        </mxCell>
        <mxCell id="ogpWwlNU3PsfXAv5v1am-1" value="slice&lt;br&gt;&lt;font color=&quot;#ff3333&quot;&gt;基于数组实现&lt;/font&gt;&lt;br&gt;可以理解为&lt;font color=&quot;#ff0000&quot;&gt;对数组的抽象&lt;/font&gt;&lt;br&gt;&lt;font color=&quot;#ff0000&quot;&gt;go tool compile -S test.go | grep CALL&lt;/font&gt;&lt;br&gt;&lt;font color=&quot;#ff0000&quot;&gt;可以得到汇编代码&lt;br&gt;&lt;/font&gt;看到标准库中结构体调用什么函数初始化" style="ellipse;whiteSpace=wrap;html=1;" parent="1" vertex="1">
          <mxGeometry x="310" y="260" width="280" height="160" as="geometry" />
        </mxCell>
        <mxCell id="ogpWwlNU3PsfXAv5v1am-2" value="&lt;font color=&quot;#ff0000&quot;&gt;结构&lt;/font&gt;&lt;br&gt;&lt;br&gt;slice结构体三属性&lt;br&gt;array&lt;br&gt;len&lt;br&gt;cap" style="ellipse;whiteSpace=wrap;html=1;" parent="1" vertex="1">
          <mxGeometry x="-70" y="250" width="200" height="100" as="geometry" />
        </mxCell>
        <mxCell id="ogpWwlNU3PsfXAv5v1am-10" style="edgeStyle=orthogonalEdgeStyle;rounded=0;orthogonalLoop=1;jettySize=auto;html=1;exitX=0;exitY=0.5;exitDx=0;exitDy=0;strokeColor=default;align=center;verticalAlign=middle;fontFamily=Helvetica;fontSize=11;fontColor=default;labelBackgroundColor=default;endArrow=classic;curved=1;" parent="1" source="ogpWwlNU3PsfXAv5v1am-4" target="ogpWwlNU3PsfXAv5v1am-6" edge="1">
          <mxGeometry relative="1" as="geometry" />
        </mxCell>
        <mxCell id="ogpWwlNU3PsfXAv5v1am-12" style="edgeStyle=orthogonalEdgeStyle;rounded=0;orthogonalLoop=1;jettySize=auto;html=1;exitX=0.5;exitY=1;exitDx=0;exitDy=0;strokeColor=default;align=center;verticalAlign=middle;fontFamily=Helvetica;fontSize=11;fontColor=default;labelBackgroundColor=default;endArrow=classic;curved=1;" parent="1" source="ogpWwlNU3PsfXAv5v1am-4" target="ogpWwlNU3PsfXAv5v1am-8" edge="1">
          <mxGeometry relative="1" as="geometry" />
        </mxCell>
        <mxCell id="ogpWwlNU3PsfXAv5v1am-13" style="edgeStyle=orthogonalEdgeStyle;rounded=0;orthogonalLoop=1;jettySize=auto;html=1;exitX=1;exitY=1;exitDx=0;exitDy=0;strokeColor=default;align=center;verticalAlign=middle;fontFamily=Helvetica;fontSize=11;fontColor=default;labelBackgroundColor=default;endArrow=classic;curved=1;" parent="1" source="ogpWwlNU3PsfXAv5v1am-4" target="ogpWwlNU3PsfXAv5v1am-9" edge="1">
          <mxGeometry relative="1" as="geometry" />
        </mxCell>
        <mxCell id="ogpWwlNU3PsfXAv5v1am-4" value="初始化（4种）" style="ellipse;whiteSpace=wrap;html=1;fontFamily=Helvetica;fontSize=11;fontColor=default;labelBackgroundColor=default;" parent="1" vertex="1">
          <mxGeometry x="-150" y="470" width="150" height="40" as="geometry" />
        </mxCell>
        <mxCell id="ogpWwlNU3PsfXAv5v1am-6" value="直接声明&lt;br&gt;var slice1 []int" style="ellipse;whiteSpace=wrap;html=1;fontFamily=Helvetica;fontSize=11;fontColor=default;labelBackgroundColor=default;" parent="1" vertex="1">
          <mxGeometry x="-700" y="710" width="170" height="80" as="geometry" />
        </mxCell>
        <mxCell id="ogpWwlNU3PsfXAv5v1am-7" value="字面量&lt;br&gt;slice2 := []int{1,2,3,4}" style="ellipse;whiteSpace=wrap;html=1;fontFamily=Helvetica;fontSize=11;fontColor=default;labelBackgroundColor=default;" parent="1" vertex="1">
          <mxGeometry x="-450" y="780" width="120" height="80" as="geometry" />
        </mxCell>
        <mxCell id="ogpWwlNU3PsfXAv5v1am-8" value="make&lt;br&gt;slice := make([]int,3,4)" style="ellipse;whiteSpace=wrap;html=1;fontFamily=Helvetica;fontSize=11;fontColor=default;labelBackgroundColor=default;" parent="1" vertex="1">
          <mxGeometry x="-310" y="810" width="120" height="80" as="geometry" />
        </mxCell>
        <mxCell id="ogpWwlNU3PsfXAv5v1am-9" value="截取&lt;br&gt;slice := arr[1:3]" style="ellipse;whiteSpace=wrap;html=1;fontFamily=Helvetica;fontSize=11;fontColor=default;labelBackgroundColor=default;" parent="1" vertex="1">
          <mxGeometry x="-125" y="820" width="120" height="80" as="geometry" />
        </mxCell>
        <mxCell id="ogpWwlNU3PsfXAv5v1am-11" style="edgeStyle=orthogonalEdgeStyle;rounded=0;orthogonalLoop=1;jettySize=auto;html=1;exitX=0;exitY=1;exitDx=0;exitDy=0;entryX=0.733;entryY=0;entryDx=0;entryDy=0;entryPerimeter=0;strokeColor=default;align=center;verticalAlign=middle;fontFamily=Helvetica;fontSize=11;fontColor=default;labelBackgroundColor=default;endArrow=classic;curved=1;" parent="1" source="ogpWwlNU3PsfXAv5v1am-4" target="ogpWwlNU3PsfXAv5v1am-7" edge="1">
          <mxGeometry relative="1" as="geometry" />
        </mxCell>
        <mxCell id="ogpWwlNU3PsfXAv5v1am-21" style="edgeStyle=orthogonalEdgeStyle;rounded=0;orthogonalLoop=1;jettySize=auto;html=1;exitX=0.5;exitY=1;exitDx=0;exitDy=0;strokeColor=default;align=center;verticalAlign=middle;fontFamily=Helvetica;fontSize=11;fontColor=default;labelBackgroundColor=default;endArrow=classic;curved=1;" parent="1" source="ogpWwlNU3PsfXAv5v1am-14" target="ogpWwlNU3PsfXAv5v1am-20" edge="1">
          <mxGeometry relative="1" as="geometry" />
        </mxCell>
        <mxCell id="ogpWwlNU3PsfXAv5v1am-14" value="与 array 的区别" style="ellipse;whiteSpace=wrap;html=1;fontFamily=Helvetica;fontSize=11;fontColor=default;labelBackgroundColor=default;" parent="1" vertex="1">
          <mxGeometry x="390" y="630" width="120" height="80" as="geometry" />
        </mxCell>
        <mxCell id="ogpWwlNU3PsfXAv5v1am-16" value="长度：&lt;br&gt;切片：长度不固定&lt;br&gt;数组：长度固定" style="ellipse;whiteSpace=wrap;html=1;fontFamily=Helvetica;fontSize=11;fontColor=default;labelBackgroundColor=default;" parent="1" vertex="1">
          <mxGeometry x="30" y="890" width="120" height="80" as="geometry" />
        </mxCell>
        <mxCell id="ogpWwlNU3PsfXAv5v1am-17" style="edgeStyle=orthogonalEdgeStyle;rounded=0;orthogonalLoop=1;jettySize=auto;html=1;exitX=0;exitY=0.5;exitDx=0;exitDy=0;entryX=0.45;entryY=0.013;entryDx=0;entryDy=0;entryPerimeter=0;strokeColor=default;align=center;verticalAlign=middle;fontFamily=Helvetica;fontSize=11;fontColor=default;labelBackgroundColor=default;endArrow=classic;curved=1;" parent="1" source="ogpWwlNU3PsfXAv5v1am-14" target="ogpWwlNU3PsfXAv5v1am-16" edge="1">
          <mxGeometry relative="1" as="geometry" />
        </mxCell>
        <mxCell id="ogpWwlNU3PsfXAv5v1am-18" value="作为参数传参：&lt;br&gt;切片：传递的是切片结构体的拷贝&lt;font color=&quot;#ff0000&quot;&gt;（浅拷贝）&lt;/font&gt;&lt;br&gt;数组：传递的是数组的复制&lt;font color=&quot;#ff0000&quot;&gt;（深拷贝）&lt;/font&gt;" style="ellipse;whiteSpace=wrap;html=1;fontFamily=Helvetica;fontSize=11;fontColor=default;labelBackgroundColor=default;" parent="1" vertex="1">
          <mxGeometry x="210" y="1030" width="270" height="80" as="geometry" />
        </mxCell>
        <mxCell id="ogpWwlNU3PsfXAv5v1am-19" style="edgeStyle=orthogonalEdgeStyle;rounded=0;orthogonalLoop=1;jettySize=auto;html=1;exitX=0;exitY=1;exitDx=0;exitDy=0;entryX=0.47;entryY=0.025;entryDx=0;entryDy=0;entryPerimeter=0;strokeColor=default;align=center;verticalAlign=middle;fontFamily=Helvetica;fontSize=11;fontColor=default;labelBackgroundColor=default;endArrow=classic;curved=1;" parent="1" source="ogpWwlNU3PsfXAv5v1am-14" target="ogpWwlNU3PsfXAv5v1am-18" edge="1">
          <mxGeometry relative="1" as="geometry" />
        </mxCell>
        <mxCell id="ogpWwlNU3PsfXAv5v1am-20" value="计算长度方式不同：&lt;br&gt;切片：使用 len字段&lt;br&gt;数组：遍历数组获得长度" style="ellipse;whiteSpace=wrap;html=1;fontFamily=Helvetica;fontSize=11;fontColor=default;labelBackgroundColor=default;" parent="1" vertex="1">
          <mxGeometry x="540" y="980" width="210" height="80" as="geometry" />
        </mxCell>
        <mxCell id="ogpWwlNU3PsfXAv5v1am-25" style="edgeStyle=orthogonalEdgeStyle;rounded=0;orthogonalLoop=1;jettySize=auto;html=1;exitX=0;exitY=0.5;exitDx=0;exitDy=0;strokeColor=default;align=center;verticalAlign=middle;fontFamily=Helvetica;fontSize=11;fontColor=default;labelBackgroundColor=default;endArrow=classic;curved=1;" parent="1" source="ogpWwlNU3PsfXAv5v1am-22" target="ogpWwlNU3PsfXAv5v1am-24" edge="1">
          <mxGeometry relative="1" as="geometry" />
        </mxCell>
        <mxCell id="ogpWwlNU3PsfXAv5v1am-27" style="edgeStyle=orthogonalEdgeStyle;rounded=0;orthogonalLoop=1;jettySize=auto;html=1;exitX=1;exitY=0.5;exitDx=0;exitDy=0;entryX=0.5;entryY=0;entryDx=0;entryDy=0;strokeColor=default;align=center;verticalAlign=middle;fontFamily=Helvetica;fontSize=11;fontColor=default;labelBackgroundColor=default;endArrow=classic;curved=1;" parent="1" source="ogpWwlNU3PsfXAv5v1am-22" target="ogpWwlNU3PsfXAv5v1am-26" edge="1">
          <mxGeometry relative="1" as="geometry" />
        </mxCell>
        <mxCell id="ogpWwlNU3PsfXAv5v1am-22" value="深拷贝浅拷贝" style="ellipse;whiteSpace=wrap;html=1;fontFamily=Helvetica;fontSize=11;fontColor=default;labelBackgroundColor=default;" parent="1" vertex="1">
          <mxGeometry x="250" y="1320" width="210" height="50" as="geometry" />
        </mxCell>
        <mxCell id="ogpWwlNU3PsfXAv5v1am-23" style="edgeStyle=orthogonalEdgeStyle;rounded=0;orthogonalLoop=1;jettySize=auto;html=1;exitX=0.5;exitY=1;exitDx=0;exitDy=0;entryX=0.467;entryY=-0.04;entryDx=0;entryDy=0;entryPerimeter=0;strokeColor=default;align=center;verticalAlign=middle;fontFamily=Helvetica;fontSize=11;fontColor=default;labelBackgroundColor=default;endArrow=classic;curved=1;" parent="1" source="ogpWwlNU3PsfXAv5v1am-18" target="ogpWwlNU3PsfXAv5v1am-22" edge="1">
          <mxGeometry relative="1" as="geometry" />
        </mxCell>
        <mxCell id="ogpWwlNU3PsfXAv5v1am-24" value="深拷贝：拷贝数据本身，创造一个对象，与原对象不共享内存&lt;br&gt;&lt;br&gt;对切片来说使用 &lt;font color=&quot;#ff0000&quot;&gt;copy 函数&lt;/font&gt;" style="ellipse;whiteSpace=wrap;html=1;fontFamily=Helvetica;fontSize=11;fontColor=default;labelBackgroundColor=default;" parent="1" vertex="1">
          <mxGeometry x="-140" y="1450" width="220" height="120" as="geometry" />
        </mxCell>
        <mxCell id="ogpWwlNU3PsfXAv5v1am-26" value="浅拷贝：拷贝数据的地址，只复制指针&lt;br&gt;对于引用类型来说&lt;br&gt;&amp;nbsp;slice 传递了slice结构体&lt;br&gt;&lt;div style=&quot;background-color:#1e1f22;color:#bcbec4&quot;&gt;&lt;pre style=&quot;font-family:&#39;JetBrains Mono&#39;,monospace;font-size:9.8pt;&quot;&gt;func &lt;span style=&quot;color:#56a8f5;&quot;&gt;makemap&lt;/span&gt;(t *&lt;span style=&quot;color:#6fafbd;&quot;&gt;maptype&lt;/span&gt;, hint &lt;span style=&quot;color:#cc7832;&quot;&gt;int&lt;/span&gt;, h *&lt;span style=&quot;color:#6fafbd;&quot;&gt;hmap&lt;/span&gt;) *&lt;span style=&quot;color:#6fafbd;&quot;&gt;hmap&lt;/span&gt;&lt;/pre&gt;&lt;/div&gt;map 传递了 map 指针&lt;br&gt;&lt;div style=&quot;background-color:#1e1f22;color:#bcbec4&quot;&gt;&lt;pre style=&quot;font-family:&#39;JetBrains Mono&#39;,monospace;font-size:9.8pt;&quot;&gt;func &lt;span style=&quot;color:#56a8f5;&quot;&gt;makechan&lt;/span&gt;(t *&lt;span style=&quot;color:#6fafbd;&quot;&gt;chantype&lt;/span&gt;, size &lt;span style=&quot;color:#cc7832;&quot;&gt;int&lt;/span&gt;) *&lt;span style=&quot;color:#6fafbd;&quot;&gt;hchan&lt;/span&gt;&lt;/pre&gt;&lt;/div&gt;channel 传递 指针&lt;br&gt;&lt;div&gt;&lt;br&gt;&lt;/div&gt;" style="ellipse;whiteSpace=wrap;html=1;fontFamily=Helvetica;fontSize=11;fontColor=default;labelBackgroundColor=default;" parent="1" vertex="1">
          <mxGeometry x="310" y="1460" width="490" height="270" as="geometry" />
        </mxCell>
        <mxCell id="ogpWwlNU3PsfXAv5v1am-31" style="edgeStyle=orthogonalEdgeStyle;rounded=0;orthogonalLoop=1;jettySize=auto;html=1;exitX=1;exitY=0.5;exitDx=0;exitDy=0;entryX=0;entryY=0.5;entryDx=0;entryDy=0;strokeColor=default;align=center;verticalAlign=middle;fontFamily=Helvetica;fontSize=11;fontColor=default;labelBackgroundColor=default;endArrow=classic;curved=1;" parent="1" source="ogpWwlNU3PsfXAv5v1am-28" target="ogpWwlNU3PsfXAv5v1am-30" edge="1">
          <mxGeometry relative="1" as="geometry" />
        </mxCell>
        <mxCell id="ogpWwlNU3PsfXAv5v1am-28" value="扩容" style="ellipse;whiteSpace=wrap;html=1;fontFamily=Helvetica;fontSize=11;fontColor=default;labelBackgroundColor=default;" parent="1" vertex="1">
          <mxGeometry x="910" y="310" width="120" height="80" as="geometry" />
        </mxCell>
        <mxCell id="ogpWwlNU3PsfXAv5v1am-33" style="edgeStyle=orthogonalEdgeStyle;rounded=0;orthogonalLoop=1;jettySize=auto;html=1;exitX=1;exitY=0;exitDx=0;exitDy=0;entryX=0;entryY=0.5;entryDx=0;entryDy=0;strokeColor=default;align=center;verticalAlign=middle;fontFamily=Helvetica;fontSize=11;fontColor=default;labelBackgroundColor=default;endArrow=classic;curved=1;" parent="1" source="ogpWwlNU3PsfXAv5v1am-30" target="ogpWwlNU3PsfXAv5v1am-32" edge="1">
          <mxGeometry relative="1" as="geometry" />
        </mxCell>
        <mxCell id="ogpWwlNU3PsfXAv5v1am-35" style="edgeStyle=orthogonalEdgeStyle;rounded=0;orthogonalLoop=1;jettySize=auto;html=1;exitX=1;exitY=0.5;exitDx=0;exitDy=0;entryX=0;entryY=0.5;entryDx=0;entryDy=0;strokeColor=default;align=center;verticalAlign=middle;fontFamily=Helvetica;fontSize=11;fontColor=default;labelBackgroundColor=default;endArrow=classic;curved=1;" parent="1" source="ogpWwlNU3PsfXAv5v1am-30" target="ogpWwlNU3PsfXAv5v1am-34" edge="1">
          <mxGeometry relative="1" as="geometry" />
        </mxCell>
        <mxCell id="ogpWwlNU3PsfXAv5v1am-38" style="edgeStyle=orthogonalEdgeStyle;rounded=0;orthogonalLoop=1;jettySize=auto;html=1;exitX=1;exitY=1;exitDx=0;exitDy=0;entryX=0;entryY=0.5;entryDx=0;entryDy=0;strokeColor=default;align=center;verticalAlign=middle;fontFamily=Helvetica;fontSize=11;fontColor=default;labelBackgroundColor=default;endArrow=classic;curved=1;" parent="1" source="ogpWwlNU3PsfXAv5v1am-30" target="ogpWwlNU3PsfXAv5v1am-37" edge="1">
          <mxGeometry relative="1" as="geometry" />
        </mxCell>
        <mxCell id="ogpWwlNU3PsfXAv5v1am-30" value="发生在 append 时，当slice的cap不足以容纳新元素发生扩容：&lt;br&gt;扩容规则" style="ellipse;whiteSpace=wrap;html=1;fontFamily=Helvetica;fontSize=11;fontColor=default;labelBackgroundColor=default;" parent="1" vertex="1">
          <mxGeometry x="1260" y="370" width="220" height="110" as="geometry" />
        </mxCell>
        <mxCell id="ogpWwlNU3PsfXAv5v1am-32" value="新申请容量比两倍原有容量大：&lt;br&gt;扩容后容量大小为新申请容量" style="ellipse;whiteSpace=wrap;html=1;fontFamily=Helvetica;fontSize=11;fontColor=default;labelBackgroundColor=default;" parent="1" vertex="1">
          <mxGeometry x="1800" y="220" width="190" height="70" as="geometry" />
        </mxCell>
        <mxCell id="ogpWwlNU3PsfXAv5v1am-34" value="原有slice长度小于1024: 每次扩容是原来两倍" style="ellipse;whiteSpace=wrap;html=1;fontFamily=Helvetica;fontSize=11;fontColor=default;labelBackgroundColor=default;" parent="1" vertex="1">
          <mxGeometry x="1760" y="390" width="270" height="80" as="geometry" />
        </mxCell>
        <mxCell id="ogpWwlNU3PsfXAv5v1am-37" value="原有长度大于1024:每次扩容为原来1.25倍" style="ellipse;whiteSpace=wrap;html=1;fontFamily=Helvetica;fontSize=11;fontColor=default;labelBackgroundColor=default;" parent="1" vertex="1">
          <mxGeometry x="1770" y="560" width="260" height="80" as="geometry" />
        </mxCell>
        <mxCell id="ogpWwlNU3PsfXAv5v1am-39" value="非线程安全：&lt;br&gt;没有枷锁，不支持并发读写" style="ellipse;whiteSpace=wrap;html=1;fontFamily=Helvetica;fontSize=11;fontColor=default;labelBackgroundColor=default;" parent="1" vertex="1">
          <mxGeometry x="10" y="-90" width="120" height="80" as="geometry" />
        </mxCell>
        <mxCell id="ogpWwlNU3PsfXAv5v1am-49" style="edgeStyle=orthogonalEdgeStyle;rounded=0;orthogonalLoop=1;jettySize=auto;html=1;exitX=0;exitY=0.5;exitDx=0;exitDy=0;entryX=0.5;entryY=1;entryDx=0;entryDy=0;strokeColor=default;align=center;verticalAlign=middle;fontFamily=Helvetica;fontSize=11;fontColor=default;labelBackgroundColor=default;endArrow=classic;curved=1;" parent="1" source="ogpWwlNU3PsfXAv5v1am-41" target="ogpWwlNU3PsfXAv5v1am-43" edge="1">
          <mxGeometry relative="1" as="geometry" />
        </mxCell>
        <mxCell id="ogpWwlNU3PsfXAv5v1am-50" style="edgeStyle=orthogonalEdgeStyle;rounded=0;orthogonalLoop=1;jettySize=auto;html=1;exitX=0;exitY=0;exitDx=0;exitDy=0;entryX=0.5;entryY=1;entryDx=0;entryDy=0;strokeColor=default;align=center;verticalAlign=middle;fontFamily=Helvetica;fontSize=11;fontColor=default;labelBackgroundColor=default;endArrow=classic;curved=1;" parent="1" source="ogpWwlNU3PsfXAv5v1am-41" target="ogpWwlNU3PsfXAv5v1am-44" edge="1">
          <mxGeometry relative="1" as="geometry" />
        </mxCell>
        <mxCell id="ogpWwlNU3PsfXAv5v1am-51" style="edgeStyle=orthogonalEdgeStyle;rounded=0;orthogonalLoop=1;jettySize=auto;html=1;exitX=0.5;exitY=0;exitDx=0;exitDy=0;entryX=0.5;entryY=1;entryDx=0;entryDy=0;strokeColor=default;align=center;verticalAlign=middle;fontFamily=Helvetica;fontSize=11;fontColor=default;labelBackgroundColor=default;endArrow=classic;curved=1;" parent="1" source="ogpWwlNU3PsfXAv5v1am-41" target="ogpWwlNU3PsfXAv5v1am-45" edge="1">
          <mxGeometry relative="1" as="geometry" />
        </mxCell>
        <mxCell id="ogpWwlNU3PsfXAv5v1am-52" style="edgeStyle=orthogonalEdgeStyle;rounded=0;orthogonalLoop=1;jettySize=auto;html=1;exitX=1;exitY=0;exitDx=0;exitDy=0;entryX=0.5;entryY=1;entryDx=0;entryDy=0;strokeColor=default;align=center;verticalAlign=middle;fontFamily=Helvetica;fontSize=11;fontColor=default;labelBackgroundColor=default;endArrow=classic;curved=1;" parent="1" source="ogpWwlNU3PsfXAv5v1am-41" target="ogpWwlNU3PsfXAv5v1am-46" edge="1">
          <mxGeometry relative="1" as="geometry" />
        </mxCell>
        <mxCell id="ogpWwlNU3PsfXAv5v1am-53" style="edgeStyle=orthogonalEdgeStyle;rounded=0;orthogonalLoop=1;jettySize=auto;html=1;exitX=1;exitY=0.5;exitDx=0;exitDy=0;entryX=0.5;entryY=1;entryDx=0;entryDy=0;strokeColor=default;align=center;verticalAlign=middle;fontFamily=Helvetica;fontSize=11;fontColor=default;labelBackgroundColor=default;endArrow=classic;curved=1;" parent="1" source="ogpWwlNU3PsfXAv5v1am-41" target="ogpWwlNU3PsfXAv5v1am-47" edge="1">
          <mxGeometry relative="1" as="geometry" />
        </mxCell>
        <mxCell id="ogpWwlNU3PsfXAv5v1am-54" style="edgeStyle=orthogonalEdgeStyle;rounded=0;orthogonalLoop=1;jettySize=auto;html=1;exitX=1;exitY=1;exitDx=0;exitDy=0;entryX=0.5;entryY=1;entryDx=0;entryDy=0;strokeColor=default;align=center;verticalAlign=middle;fontFamily=Helvetica;fontSize=11;fontColor=default;labelBackgroundColor=default;endArrow=classic;curved=1;" parent="1" source="ogpWwlNU3PsfXAv5v1am-41" target="ogpWwlNU3PsfXAv5v1am-48" edge="1">
          <mxGeometry relative="1" as="geometry" />
        </mxCell>
        <mxCell id="9TZOR45JbfqGNzEFKEyJ-124" style="edgeStyle=orthogonalEdgeStyle;rounded=0;orthogonalLoop=1;jettySize=auto;html=1;exitX=0;exitY=1;exitDx=0;exitDy=0;entryX=0.5;entryY=1;entryDx=0;entryDy=0;curved=1;" edge="1" parent="1" source="ogpWwlNU3PsfXAv5v1am-41" target="9TZOR45JbfqGNzEFKEyJ-123">
          <mxGeometry relative="1" as="geometry" />
        </mxCell>
        <mxCell id="ogpWwlNU3PsfXAv5v1am-41" value="实现线程安全的几种方法" style="ellipse;whiteSpace=wrap;html=1;fontFamily=Helvetica;fontSize=11;fontColor=default;labelBackgroundColor=default;" parent="1" vertex="1">
          <mxGeometry x="-750" y="-470" width="190" height="90" as="geometry" />
        </mxCell>
        <mxCell id="ogpWwlNU3PsfXAv5v1am-42" style="edgeStyle=orthogonalEdgeStyle;rounded=0;orthogonalLoop=1;jettySize=auto;html=1;exitX=0.487;exitY=-0.06;exitDx=0;exitDy=0;entryX=0.653;entryY=1.022;entryDx=0;entryDy=0;entryPerimeter=0;strokeColor=default;align=center;verticalAlign=middle;fontFamily=Helvetica;fontSize=11;fontColor=default;labelBackgroundColor=default;endArrow=classic;curved=1;exitPerimeter=0;" parent="1" source="ogpWwlNU3PsfXAv5v1am-39" target="ogpWwlNU3PsfXAv5v1am-41" edge="1">
          <mxGeometry relative="1" as="geometry" />
        </mxCell>
        <mxCell id="ogpWwlNU3PsfXAv5v1am-43" value="互斥锁" style="ellipse;whiteSpace=wrap;html=1;fontFamily=Helvetica;fontSize=11;fontColor=default;labelBackgroundColor=default;" parent="1" vertex="1">
          <mxGeometry x="-1200" y="-670" width="120" height="80" as="geometry" />
        </mxCell>
        <mxCell id="9TZOR45JbfqGNzEFKEyJ-122" style="edgeStyle=orthogonalEdgeStyle;rounded=0;orthogonalLoop=1;jettySize=auto;html=1;exitX=0.5;exitY=0;exitDx=0;exitDy=0;entryX=0.5;entryY=1;entryDx=0;entryDy=0;curved=1;" edge="1" parent="1" source="ogpWwlNU3PsfXAv5v1am-44" target="9TZOR45JbfqGNzEFKEyJ-121">
          <mxGeometry relative="1" as="geometry" />
        </mxCell>
        <mxCell id="ogpWwlNU3PsfXAv5v1am-44" value="读写锁" style="ellipse;whiteSpace=wrap;html=1;fontFamily=Helvetica;fontSize=11;fontColor=default;labelBackgroundColor=default;" parent="1" vertex="1">
          <mxGeometry x="-1010" y="-670" width="120" height="80" as="geometry" />
        </mxCell>
        <mxCell id="0b5SVSkG3EDfwwchwPbA-105" style="edgeStyle=orthogonalEdgeStyle;rounded=0;orthogonalLoop=1;jettySize=auto;html=1;exitX=0.5;exitY=0;exitDx=0;exitDy=0;entryX=0.5;entryY=1;entryDx=0;entryDy=0;strokeColor=default;align=center;verticalAlign=middle;fontFamily=Helvetica;fontSize=11;fontColor=default;labelBackgroundColor=default;endArrow=classic;curved=1;" parent="1" source="ogpWwlNU3PsfXAv5v1am-45" target="0b5SVSkG3EDfwwchwPbA-104" edge="1">
          <mxGeometry relative="1" as="geometry" />
        </mxCell>
        <mxCell id="ogpWwlNU3PsfXAv5v1am-45" value="原子操作" style="ellipse;whiteSpace=wrap;html=1;fontFamily=Helvetica;fontSize=11;fontColor=default;labelBackgroundColor=default;" parent="1" vertex="1">
          <mxGeometry x="-820" y="-670" width="120" height="80" as="geometry" />
        </mxCell>
        <mxCell id="ogpWwlNU3PsfXAv5v1am-46" value="sync.once" style="ellipse;whiteSpace=wrap;html=1;fontFamily=Helvetica;fontSize=11;fontColor=default;labelBackgroundColor=default;" parent="1" vertex="1">
          <mxGeometry x="-626" y="-670" width="120" height="80" as="geometry" />
        </mxCell>
        <mxCell id="ogpWwlNU3PsfXAv5v1am-47" value="sync.atomic" style="ellipse;whiteSpace=wrap;html=1;fontFamily=Helvetica;fontSize=11;fontColor=default;labelBackgroundColor=default;" parent="1" vertex="1">
          <mxGeometry x="-440" y="-670" width="120" height="80" as="geometry" />
        </mxCell>
        <mxCell id="ogpWwlNU3PsfXAv5v1am-48" value="channel" style="ellipse;whiteSpace=wrap;html=1;fontFamily=Helvetica;fontSize=11;fontColor=default;labelBackgroundColor=default;" parent="1" vertex="1">
          <mxGeometry x="-260" y="-660" width="120" height="80" as="geometry" />
        </mxCell>
        <mxCell id="ogpWwlNU3PsfXAv5v1am-69" style="edgeStyle=orthogonalEdgeStyle;rounded=0;orthogonalLoop=1;jettySize=auto;html=1;exitX=0;exitY=0.5;exitDx=0;exitDy=0;strokeColor=default;align=center;verticalAlign=middle;fontFamily=Helvetica;fontSize=11;fontColor=default;labelBackgroundColor=default;endArrow=classic;curved=1;" parent="1" source="ogpWwlNU3PsfXAv5v1am-55" target="ogpWwlNU3PsfXAv5v1am-56" edge="1">
          <mxGeometry relative="1" as="geometry" />
        </mxCell>
        <mxCell id="ogpWwlNU3PsfXAv5v1am-76" style="edgeStyle=orthogonalEdgeStyle;rounded=0;orthogonalLoop=1;jettySize=auto;html=1;exitX=0;exitY=1;exitDx=0;exitDy=0;entryX=0.5;entryY=0;entryDx=0;entryDy=0;strokeColor=default;align=center;verticalAlign=middle;fontFamily=Helvetica;fontSize=11;fontColor=default;labelBackgroundColor=default;endArrow=classic;curved=1;" parent="1" source="ogpWwlNU3PsfXAv5v1am-55" target="ogpWwlNU3PsfXAv5v1am-75" edge="1">
          <mxGeometry relative="1" as="geometry" />
        </mxCell>
        <mxCell id="ogpWwlNU3PsfXAv5v1am-84" style="edgeStyle=orthogonalEdgeStyle;rounded=0;orthogonalLoop=1;jettySize=auto;html=1;exitX=0.5;exitY=0;exitDx=0;exitDy=0;entryX=0;entryY=1;entryDx=0;entryDy=0;strokeColor=default;align=center;verticalAlign=middle;fontFamily=Helvetica;fontSize=11;fontColor=default;labelBackgroundColor=default;endArrow=classic;curved=1;" parent="1" source="ogpWwlNU3PsfXAv5v1am-55" target="ogpWwlNU3PsfXAv5v1am-82" edge="1">
          <mxGeometry relative="1" as="geometry">
            <mxPoint x="-2235" y="264" as="targetPoint" />
          </mxGeometry>
        </mxCell>
        <mxCell id="ogpWwlNU3PsfXAv5v1am-92" style="edgeStyle=orthogonalEdgeStyle;rounded=0;orthogonalLoop=1;jettySize=auto;html=1;exitX=0.5;exitY=1;exitDx=0;exitDy=0;strokeColor=default;align=center;verticalAlign=middle;fontFamily=Helvetica;fontSize=11;fontColor=default;labelBackgroundColor=default;endArrow=classic;curved=1;" parent="1" source="ogpWwlNU3PsfXAv5v1am-55" target="ogpWwlNU3PsfXAv5v1am-91" edge="1">
          <mxGeometry relative="1" as="geometry" />
        </mxCell>
        <mxCell id="ogpWwlNU3PsfXAv5v1am-94" style="edgeStyle=orthogonalEdgeStyle;rounded=0;orthogonalLoop=1;jettySize=auto;html=1;exitX=1;exitY=0.5;exitDx=0;exitDy=0;entryX=0;entryY=0.5;entryDx=0;entryDy=0;strokeColor=default;align=center;verticalAlign=middle;fontFamily=Helvetica;fontSize=11;fontColor=default;labelBackgroundColor=default;endArrow=classic;curved=1;" parent="1" source="ogpWwlNU3PsfXAv5v1am-55" target="ogpWwlNU3PsfXAv5v1am-99" edge="1">
          <mxGeometry relative="1" as="geometry" />
        </mxCell>
        <mxCell id="ogpWwlNU3PsfXAv5v1am-110" style="edgeStyle=orthogonalEdgeStyle;rounded=0;orthogonalLoop=1;jettySize=auto;html=1;exitX=1;exitY=1;exitDx=0;exitDy=0;entryX=0.5;entryY=0;entryDx=0;entryDy=0;strokeColor=default;align=center;verticalAlign=middle;fontFamily=Helvetica;fontSize=11;fontColor=default;labelBackgroundColor=default;endArrow=classic;curved=1;" parent="1" source="ogpWwlNU3PsfXAv5v1am-55" target="ogpWwlNU3PsfXAv5v1am-109" edge="1">
          <mxGeometry relative="1" as="geometry" />
        </mxCell>
        <mxCell id="ogpWwlNU3PsfXAv5v1am-55" value="map&lt;br&gt;是一个指针，指向 hmap" style="ellipse;whiteSpace=wrap;html=1;fontFamily=Helvetica;fontSize=11;fontColor=default;labelBackgroundColor=default;" parent="1" vertex="1">
          <mxGeometry x="-2320" y="564" width="190" height="80" as="geometry" />
        </mxCell>
        <mxCell id="ogpWwlNU3PsfXAv5v1am-59" style="edgeStyle=orthogonalEdgeStyle;rounded=0;orthogonalLoop=1;jettySize=auto;html=1;exitX=0;exitY=0;exitDx=0;exitDy=0;entryX=1;entryY=0.5;entryDx=0;entryDy=0;strokeColor=default;align=center;verticalAlign=middle;fontFamily=Helvetica;fontSize=11;fontColor=default;labelBackgroundColor=default;endArrow=classic;curved=1;" parent="1" source="ogpWwlNU3PsfXAv5v1am-56" target="ogpWwlNU3PsfXAv5v1am-57" edge="1">
          <mxGeometry relative="1" as="geometry" />
        </mxCell>
        <mxCell id="ogpWwlNU3PsfXAv5v1am-56" value="结构" style="ellipse;whiteSpace=wrap;html=1;fontFamily=Helvetica;fontSize=11;fontColor=default;labelBackgroundColor=default;" parent="1" vertex="1">
          <mxGeometry x="-2640" y="494" width="120" height="80" as="geometry" />
        </mxCell>
        <mxCell id="ogpWwlNU3PsfXAv5v1am-66" style="edgeStyle=orthogonalEdgeStyle;rounded=0;orthogonalLoop=1;jettySize=auto;html=1;exitX=0;exitY=0;exitDx=0;exitDy=0;entryX=1;entryY=0.5;entryDx=0;entryDy=0;strokeColor=default;align=center;verticalAlign=middle;fontFamily=Helvetica;fontSize=11;fontColor=default;labelBackgroundColor=default;endArrow=classic;curved=1;" parent="1" source="ogpWwlNU3PsfXAv5v1am-57" target="ogpWwlNU3PsfXAv5v1am-65" edge="1">
          <mxGeometry relative="1" as="geometry" />
        </mxCell>
        <mxCell id="ogpWwlNU3PsfXAv5v1am-68" style="edgeStyle=orthogonalEdgeStyle;rounded=0;orthogonalLoop=1;jettySize=auto;html=1;exitX=0.5;exitY=1;exitDx=0;exitDy=0;entryX=1;entryY=0.5;entryDx=0;entryDy=0;strokeColor=default;align=center;verticalAlign=middle;fontFamily=Helvetica;fontSize=11;fontColor=default;labelBackgroundColor=default;endArrow=classic;curved=1;" parent="1" source="ogpWwlNU3PsfXAv5v1am-57" target="ogpWwlNU3PsfXAv5v1am-67" edge="1">
          <mxGeometry relative="1" as="geometry" />
        </mxCell>
        <mxCell id="ogpWwlNU3PsfXAv5v1am-57" value="hmap" style="ellipse;whiteSpace=wrap;html=1;fontFamily=Helvetica;fontSize=11;fontColor=default;labelBackgroundColor=default;" parent="1" vertex="1">
          <mxGeometry x="-2880" y="464" width="120" height="80" as="geometry" />
        </mxCell>
        <mxCell id="ogpWwlNU3PsfXAv5v1am-58" value="bmap&lt;br&gt;是由链表串起来&lt;br&gt;&lt;br&gt;每个桶存八个键值对&lt;br&gt;存满了就存溢出桶" style="ellipse;whiteSpace=wrap;html=1;fontFamily=Helvetica;fontSize=11;fontColor=default;labelBackgroundColor=default;" parent="1" vertex="1">
          <mxGeometry x="-3280" y="464" width="120" height="80" as="geometry" />
        </mxCell>
        <mxCell id="ogpWwlNU3PsfXAv5v1am-60" style="edgeStyle=orthogonalEdgeStyle;rounded=0;orthogonalLoop=1;jettySize=auto;html=1;exitX=0;exitY=0.5;exitDx=0;exitDy=0;entryX=1;entryY=0.5;entryDx=0;entryDy=0;strokeColor=default;align=center;verticalAlign=middle;fontFamily=Helvetica;fontSize=11;fontColor=default;labelBackgroundColor=default;endArrow=classic;curved=1;" parent="1" source="ogpWwlNU3PsfXAv5v1am-57" target="ogpWwlNU3PsfXAv5v1am-61" edge="1">
          <mxGeometry relative="1" as="geometry" />
        </mxCell>
        <mxCell id="ogpWwlNU3PsfXAv5v1am-62" style="edgeStyle=orthogonalEdgeStyle;rounded=0;orthogonalLoop=1;jettySize=auto;html=1;exitX=0;exitY=0.5;exitDx=0;exitDy=0;entryX=1;entryY=0.5;entryDx=0;entryDy=0;strokeColor=default;align=center;verticalAlign=middle;fontFamily=Helvetica;fontSize=11;fontColor=default;labelBackgroundColor=default;endArrow=classic;" parent="1" source="ogpWwlNU3PsfXAv5v1am-61" target="ogpWwlNU3PsfXAv5v1am-58" edge="1">
          <mxGeometry relative="1" as="geometry" />
        </mxCell>
        <mxCell id="ogpWwlNU3PsfXAv5v1am-61" value="buckets字段：&lt;br&gt;是bmap的数组" style="ellipse;whiteSpace=wrap;html=1;fontFamily=Helvetica;fontSize=11;fontColor=default;labelBackgroundColor=default;" parent="1" vertex="1">
          <mxGeometry x="-3067" y="464" width="120" height="80" as="geometry" />
        </mxCell>
        <mxCell id="ogpWwlNU3PsfXAv5v1am-63" value="flags 字段，表示是否有协程正在写入，此时不能读写，会panic" style="ellipse;whiteSpace=wrap;html=1;fontFamily=Helvetica;fontSize=11;fontColor=default;labelBackgroundColor=default;" parent="1" vertex="1">
          <mxGeometry x="-3067" y="604" width="120" height="80" as="geometry" />
        </mxCell>
        <mxCell id="ogpWwlNU3PsfXAv5v1am-64" style="edgeStyle=orthogonalEdgeStyle;rounded=0;orthogonalLoop=1;jettySize=auto;html=1;exitX=0;exitY=1;exitDx=0;exitDy=0;entryX=0.999;entryY=0.423;entryDx=0;entryDy=0;entryPerimeter=0;strokeColor=default;align=center;verticalAlign=middle;fontFamily=Helvetica;fontSize=11;fontColor=default;labelBackgroundColor=default;endArrow=classic;curved=1;" parent="1" source="ogpWwlNU3PsfXAv5v1am-57" target="ogpWwlNU3PsfXAv5v1am-63" edge="1">
          <mxGeometry relative="1" as="geometry" />
        </mxCell>
        <mxCell id="ogpWwlNU3PsfXAv5v1am-65" value="B字段：&lt;br&gt;表示桶的个数，2的B次方" style="ellipse;whiteSpace=wrap;html=1;fontFamily=Helvetica;fontSize=11;fontColor=default;labelBackgroundColor=default;" parent="1" vertex="1">
          <mxGeometry x="-3067" y="314" width="120" height="80" as="geometry" />
        </mxCell>
        <mxCell id="ogpWwlNU3PsfXAv5v1am-67" value="overFlow:&lt;br&gt;溢出桶的数量" style="ellipse;whiteSpace=wrap;html=1;fontFamily=Helvetica;fontSize=11;fontColor=default;labelBackgroundColor=default;" parent="1" vertex="1">
          <mxGeometry x="-3067" y="748" width="120" height="80" as="geometry" />
        </mxCell>
        <mxCell id="ogpWwlNU3PsfXAv5v1am-73" style="edgeStyle=orthogonalEdgeStyle;rounded=0;orthogonalLoop=1;jettySize=auto;html=1;exitX=0;exitY=0;exitDx=0;exitDy=0;strokeColor=default;align=center;verticalAlign=middle;fontFamily=Helvetica;fontSize=11;fontColor=default;labelBackgroundColor=default;endArrow=classic;curved=1;" parent="1" source="ogpWwlNU3PsfXAv5v1am-70" target="ogpWwlNU3PsfXAv5v1am-72" edge="1">
          <mxGeometry relative="1" as="geometry" />
        </mxCell>
        <mxCell id="ogpWwlNU3PsfXAv5v1am-70" value="如何确定桶位置：&lt;br&gt;对 key 哈希计算后取低B位" style="ellipse;whiteSpace=wrap;html=1;fontFamily=Helvetica;fontSize=11;fontColor=default;labelBackgroundColor=default;" parent="1" vertex="1">
          <mxGeometry x="-3541" y="344" width="120" height="80" as="geometry" />
        </mxCell>
        <mxCell id="ogpWwlNU3PsfXAv5v1am-71" style="edgeStyle=orthogonalEdgeStyle;rounded=0;orthogonalLoop=1;jettySize=auto;html=1;exitX=0;exitY=0;exitDx=0;exitDy=0;entryX=1.005;entryY=0.364;entryDx=0;entryDy=0;entryPerimeter=0;strokeColor=default;align=center;verticalAlign=middle;fontFamily=Helvetica;fontSize=11;fontColor=default;labelBackgroundColor=default;endArrow=classic;curved=1;" parent="1" source="ogpWwlNU3PsfXAv5v1am-58" target="ogpWwlNU3PsfXAv5v1am-70" edge="1">
          <mxGeometry relative="1" as="geometry" />
        </mxCell>
        <mxCell id="ogpWwlNU3PsfXAv5v1am-72" value="如何确定桶中key位置：&lt;br&gt;通过刚才计算出key的哈希的高8位" style="ellipse;whiteSpace=wrap;html=1;fontFamily=Helvetica;fontSize=11;fontColor=default;labelBackgroundColor=default;" parent="1" vertex="1">
          <mxGeometry x="-3820" y="284" width="150" height="100" as="geometry" />
        </mxCell>
        <mxCell id="ogpWwlNU3PsfXAv5v1am-78" style="edgeStyle=orthogonalEdgeStyle;rounded=0;orthogonalLoop=1;jettySize=auto;html=1;exitX=0;exitY=0.5;exitDx=0;exitDy=0;strokeColor=default;align=center;verticalAlign=middle;fontFamily=Helvetica;fontSize=11;fontColor=default;labelBackgroundColor=default;endArrow=classic;curved=1;" parent="1" source="ogpWwlNU3PsfXAv5v1am-75" target="ogpWwlNU3PsfXAv5v1am-77" edge="1">
          <mxGeometry relative="1" as="geometry" />
        </mxCell>
        <mxCell id="ogpWwlNU3PsfXAv5v1am-75" value="遍历无序原因" style="ellipse;whiteSpace=wrap;html=1;fontFamily=Helvetica;fontSize=11;fontColor=default;labelBackgroundColor=default;" parent="1" vertex="1">
          <mxGeometry x="-2920" y="1094" width="120" height="80" as="geometry" />
        </mxCell>
        <mxCell id="ogpWwlNU3PsfXAv5v1am-77" value="遍历时不是从0号桶开始遍历，&lt;br&gt;随机生成一个桶编号开始遍历&lt;br&gt;然后一个桶8个元素，随机选一个元素开始遍历&lt;br&gt;&lt;font color=&quot;#ff3333&quot;&gt;两次随机&lt;/font&gt;" style="ellipse;whiteSpace=wrap;html=1;fontFamily=Helvetica;fontSize=11;fontColor=default;labelBackgroundColor=default;" parent="1" vertex="1">
          <mxGeometry x="-3150" y="1320" width="200" height="120" as="geometry" />
        </mxCell>
        <mxCell id="ogpWwlNU3PsfXAv5v1am-79" value="扩容后会发生key位置变动，key所在bucket的位置发生变化" style="ellipse;whiteSpace=wrap;html=1;fontFamily=Helvetica;fontSize=11;fontColor=default;labelBackgroundColor=default;" parent="1" vertex="1">
          <mxGeometry x="-2810" y="1480" width="190" height="80" as="geometry" />
        </mxCell>
        <mxCell id="ogpWwlNU3PsfXAv5v1am-80" style="edgeStyle=orthogonalEdgeStyle;rounded=0;orthogonalLoop=1;jettySize=auto;html=1;exitX=1;exitY=0.5;exitDx=0;exitDy=0;entryX=0.468;entryY=-0.028;entryDx=0;entryDy=0;entryPerimeter=0;strokeColor=default;align=center;verticalAlign=middle;fontFamily=Helvetica;fontSize=11;fontColor=default;labelBackgroundColor=default;endArrow=classic;curved=1;" parent="1" source="ogpWwlNU3PsfXAv5v1am-75" target="ogpWwlNU3PsfXAv5v1am-79" edge="1">
          <mxGeometry relative="1" as="geometry" />
        </mxCell>
        <mxCell id="ogpWwlNU3PsfXAv5v1am-83" style="edgeStyle=orthogonalEdgeStyle;rounded=0;orthogonalLoop=1;jettySize=auto;html=1;exitX=1;exitY=0.5;exitDx=0;exitDy=0;entryX=0;entryY=1;entryDx=0;entryDy=0;strokeColor=default;align=center;verticalAlign=middle;fontFamily=Helvetica;fontSize=11;fontColor=default;labelBackgroundColor=default;endArrow=classic;curved=1;" parent="1" source="ogpWwlNU3PsfXAv5v1am-82" target="ogpWwlNU3PsfXAv5v1am-41" edge="1">
          <mxGeometry relative="1" as="geometry" />
        </mxCell>
        <mxCell id="ogpWwlNU3PsfXAv5v1am-82" value="非线程安全" style="ellipse;whiteSpace=wrap;html=1;fontFamily=Helvetica;fontSize=11;fontColor=default;labelBackgroundColor=default;" parent="1" vertex="1">
          <mxGeometry x="-1355" y="20" width="120" height="80" as="geometry" />
        </mxCell>
        <mxCell id="ogpWwlNU3PsfXAv5v1am-90" style="edgeStyle=orthogonalEdgeStyle;rounded=0;orthogonalLoop=1;jettySize=auto;html=1;exitX=0;exitY=0.5;exitDx=0;exitDy=0;strokeColor=default;align=center;verticalAlign=middle;fontFamily=Helvetica;fontSize=11;fontColor=default;labelBackgroundColor=default;endArrow=classic;curved=1;" parent="1" source="ogpWwlNU3PsfXAv5v1am-85" target="ogpWwlNU3PsfXAv5v1am-89" edge="1">
          <mxGeometry relative="1" as="geometry" />
        </mxCell>
        <mxCell id="ogpWwlNU3PsfXAv5v1am-85" value="实现 map 线程安全方式" style="ellipse;whiteSpace=wrap;html=1;fontFamily=Helvetica;fontSize=11;fontColor=default;labelBackgroundColor=default;" parent="1" vertex="1">
          <mxGeometry x="-1490" y="-140" width="120" height="80" as="geometry" />
        </mxCell>
        <mxCell id="ogpWwlNU3PsfXAv5v1am-86" style="edgeStyle=orthogonalEdgeStyle;rounded=0;orthogonalLoop=1;jettySize=auto;html=1;exitX=0;exitY=0;exitDx=0;exitDy=0;entryX=0.708;entryY=0.983;entryDx=0;entryDy=0;entryPerimeter=0;strokeColor=default;align=center;verticalAlign=middle;fontFamily=Helvetica;fontSize=11;fontColor=default;labelBackgroundColor=default;endArrow=classic;curved=1;" parent="1" source="ogpWwlNU3PsfXAv5v1am-82" target="ogpWwlNU3PsfXAv5v1am-85" edge="1">
          <mxGeometry relative="1" as="geometry" />
        </mxCell>
        <mxCell id="ogpWwlNU3PsfXAv5v1am-87" value="sync.RWMutex" style="ellipse;whiteSpace=wrap;html=1;fontFamily=Helvetica;fontSize=11;fontColor=default;labelBackgroundColor=default;" parent="1" vertex="1">
          <mxGeometry x="-1780" y="-480" width="120" height="80" as="geometry" />
        </mxCell>
        <mxCell id="ogpWwlNU3PsfXAv5v1am-88" style="edgeStyle=orthogonalEdgeStyle;rounded=0;orthogonalLoop=1;jettySize=auto;html=1;exitX=0;exitY=0;exitDx=0;exitDy=0;entryX=0.437;entryY=1.005;entryDx=0;entryDy=0;entryPerimeter=0;strokeColor=default;align=center;verticalAlign=middle;fontFamily=Helvetica;fontSize=11;fontColor=default;labelBackgroundColor=default;endArrow=classic;curved=1;" parent="1" source="ogpWwlNU3PsfXAv5v1am-85" target="ogpWwlNU3PsfXAv5v1am-87" edge="1">
          <mxGeometry relative="1" as="geometry" />
        </mxCell>
        <mxCell id="ogpWwlNU3PsfXAv5v1am-89" value="sync.Map" style="ellipse;whiteSpace=wrap;html=1;fontFamily=Helvetica;fontSize=11;fontColor=default;labelBackgroundColor=default;" parent="1" vertex="1">
          <mxGeometry x="-1960" y="-240" width="120" height="80" as="geometry" />
        </mxCell>
        <mxCell id="ogpWwlNU3PsfXAv5v1am-91" value="解决哈希冲突：链地址法" style="ellipse;whiteSpace=wrap;html=1;fontFamily=Helvetica;fontSize=11;fontColor=default;labelBackgroundColor=default;" parent="1" vertex="1">
          <mxGeometry x="-2630" y="964" width="120" height="80" as="geometry" />
        </mxCell>
        <mxCell id="ogpWwlNU3PsfXAv5v1am-97" style="edgeStyle=orthogonalEdgeStyle;rounded=0;orthogonalLoop=1;jettySize=auto;html=1;exitX=0;exitY=1;exitDx=0;exitDy=0;strokeColor=default;align=center;verticalAlign=middle;fontFamily=Helvetica;fontSize=11;fontColor=default;labelBackgroundColor=default;endArrow=classic;curved=1;" parent="1" source="ogpWwlNU3PsfXAv5v1am-93" target="ogpWwlNU3PsfXAv5v1am-96" edge="1">
          <mxGeometry relative="1" as="geometry" />
        </mxCell>
        <mxCell id="ogpWwlNU3PsfXAv5v1am-98" style="edgeStyle=orthogonalEdgeStyle;rounded=0;orthogonalLoop=1;jettySize=auto;html=1;exitX=1;exitY=0;exitDx=0;exitDy=0;entryX=0;entryY=0.5;entryDx=0;entryDy=0;strokeColor=default;align=center;verticalAlign=middle;fontFamily=Helvetica;fontSize=11;fontColor=default;labelBackgroundColor=default;endArrow=classic;curved=1;" parent="1" source="ogpWwlNU3PsfXAv5v1am-93" target="ogpWwlNU3PsfXAv5v1am-95" edge="1">
          <mxGeometry relative="1" as="geometry" />
        </mxCell>
        <mxCell id="ogpWwlNU3PsfXAv5v1am-93" value="扩容条件" style="ellipse;whiteSpace=wrap;html=1;fontFamily=Helvetica;fontSize=11;fontColor=default;labelBackgroundColor=default;" parent="1" vertex="1">
          <mxGeometry x="-1570" y="525" width="110" height="60" as="geometry" />
        </mxCell>
        <mxCell id="ogpWwlNU3PsfXAv5v1am-108" style="edgeStyle=orthogonalEdgeStyle;rounded=0;orthogonalLoop=1;jettySize=auto;html=1;exitX=0.5;exitY=1;exitDx=0;exitDy=0;strokeColor=default;align=center;verticalAlign=middle;fontFamily=Helvetica;fontSize=11;fontColor=default;labelBackgroundColor=default;endArrow=classic;curved=1;" parent="1" source="ogpWwlNU3PsfXAv5v1am-95" target="ogpWwlNU3PsfXAv5v1am-106" edge="1">
          <mxGeometry relative="1" as="geometry" />
        </mxCell>
        <mxCell id="ogpWwlNU3PsfXAv5v1am-95" value="溢出桶太多" style="ellipse;whiteSpace=wrap;html=1;fontFamily=Helvetica;fontSize=11;fontColor=default;labelBackgroundColor=default;" parent="1" vertex="1">
          <mxGeometry x="-1520" y="860" width="120" height="80" as="geometry" />
        </mxCell>
        <mxCell id="ogpWwlNU3PsfXAv5v1am-105" style="edgeStyle=orthogonalEdgeStyle;rounded=0;orthogonalLoop=1;jettySize=auto;html=1;exitX=0;exitY=1;exitDx=0;exitDy=0;entryX=0.5;entryY=0;entryDx=0;entryDy=0;strokeColor=default;align=center;verticalAlign=middle;fontFamily=Helvetica;fontSize=11;fontColor=default;labelBackgroundColor=default;endArrow=classic;curved=1;" parent="1" source="ogpWwlNU3PsfXAv5v1am-96" target="ogpWwlNU3PsfXAv5v1am-104" edge="1">
          <mxGeometry relative="1" as="geometry" />
        </mxCell>
        <mxCell id="ogpWwlNU3PsfXAv5v1am-96" value="超过负载" style="ellipse;whiteSpace=wrap;html=1;fontFamily=Helvetica;fontSize=11;fontColor=default;labelBackgroundColor=default;" parent="1" vertex="1">
          <mxGeometry x="-1810" y="870" width="120" height="80" as="geometry" />
        </mxCell>
        <mxCell id="ogpWwlNU3PsfXAv5v1am-100" style="edgeStyle=orthogonalEdgeStyle;rounded=0;orthogonalLoop=1;jettySize=auto;html=1;exitX=1;exitY=0.5;exitDx=0;exitDy=0;entryX=0;entryY=0.5;entryDx=0;entryDy=0;strokeColor=default;align=center;verticalAlign=middle;fontFamily=Helvetica;fontSize=11;fontColor=default;labelBackgroundColor=default;endArrow=classic;curved=1;" parent="1" source="ogpWwlNU3PsfXAv5v1am-99" target="ogpWwlNU3PsfXAv5v1am-93" edge="1">
          <mxGeometry relative="1" as="geometry" />
        </mxCell>
        <mxCell id="ogpWwlNU3PsfXAv5v1am-102" style="edgeStyle=orthogonalEdgeStyle;rounded=0;orthogonalLoop=1;jettySize=auto;html=1;exitX=1;exitY=1;exitDx=0;exitDy=0;entryX=0.5;entryY=0;entryDx=0;entryDy=0;strokeColor=default;align=center;verticalAlign=middle;fontFamily=Helvetica;fontSize=11;fontColor=default;labelBackgroundColor=default;endArrow=classic;curved=1;" parent="1" source="ogpWwlNU3PsfXAv5v1am-99" target="ogpWwlNU3PsfXAv5v1am-101" edge="1">
          <mxGeometry relative="1" as="geometry" />
        </mxCell>
        <mxCell id="ogpWwlNU3PsfXAv5v1am-99" value="扩容" style="ellipse;whiteSpace=wrap;html=1;fontFamily=Helvetica;fontSize=11;fontColor=default;labelBackgroundColor=default;" parent="1" vertex="1">
          <mxGeometry x="-1990" y="564" width="120" height="80" as="geometry" />
        </mxCell>
        <mxCell id="ogpWwlNU3PsfXAv5v1am-103" style="edgeStyle=orthogonalEdgeStyle;rounded=0;orthogonalLoop=1;jettySize=auto;html=1;exitX=1;exitY=0.5;exitDx=0;exitDy=0;entryX=0;entryY=0.5;entryDx=0;entryDy=0;strokeColor=default;align=center;verticalAlign=middle;fontFamily=Helvetica;fontSize=11;fontColor=default;labelBackgroundColor=default;endArrow=classic;curved=1;" parent="1" source="ogpWwlNU3PsfXAv5v1am-101" target="ogpWwlNU3PsfXAv5v1am-96" edge="1">
          <mxGeometry relative="1" as="geometry" />
        </mxCell>
        <mxCell id="ogpWwlNU3PsfXAv5v1am-107" style="edgeStyle=orthogonalEdgeStyle;rounded=0;orthogonalLoop=1;jettySize=auto;html=1;exitX=1;exitY=0;exitDx=0;exitDy=0;entryX=0.5;entryY=0;entryDx=0;entryDy=0;strokeColor=default;align=center;verticalAlign=middle;fontFamily=Helvetica;fontSize=11;fontColor=default;labelBackgroundColor=default;endArrow=classic;curved=1;" parent="1" source="ogpWwlNU3PsfXAv5v1am-101" target="ogpWwlNU3PsfXAv5v1am-95" edge="1">
          <mxGeometry relative="1" as="geometry" />
        </mxCell>
        <mxCell id="ogpWwlNU3PsfXAv5v1am-101" value="规则机制" style="ellipse;whiteSpace=wrap;html=1;fontFamily=Helvetica;fontSize=11;fontColor=default;labelBackgroundColor=default;" parent="1" vertex="1">
          <mxGeometry x="-2127" y="770" width="120" height="80" as="geometry" />
        </mxCell>
        <mxCell id="ogpWwlNU3PsfXAv5v1am-104" value="双倍扩容&lt;br&gt;创建一个新buckets数组，新buckets大小是原来两倍，把旧bucket数据搬迁到新buckets中" style="ellipse;whiteSpace=wrap;html=1;fontFamily=Helvetica;fontSize=11;fontColor=default;labelBackgroundColor=default;" parent="1" vertex="1">
          <mxGeometry x="-1920" y="1090" width="180" height="116" as="geometry" />
        </mxCell>
        <mxCell id="ogpWwlNU3PsfXAv5v1am-106" value="等量扩容：&lt;br&gt;不扩大buckets容量，重新排列键值对" style="ellipse;whiteSpace=wrap;html=1;fontFamily=Helvetica;fontSize=11;fontColor=default;labelBackgroundColor=default;" parent="1" vertex="1">
          <mxGeometry x="-1510" y="1126" width="160" height="84" as="geometry" />
        </mxCell>
        <mxCell id="ogpWwlNU3PsfXAv5v1am-112" style="edgeStyle=orthogonalEdgeStyle;rounded=0;orthogonalLoop=1;jettySize=auto;html=1;exitX=1;exitY=1;exitDx=0;exitDy=0;strokeColor=default;align=center;verticalAlign=middle;fontFamily=Helvetica;fontSize=11;fontColor=default;labelBackgroundColor=default;endArrow=classic;curved=1;" parent="1" source="ogpWwlNU3PsfXAv5v1am-109" target="ogpWwlNU3PsfXAv5v1am-111" edge="1">
          <mxGeometry relative="1" as="geometry" />
        </mxCell>
        <mxCell id="ogpWwlNU3PsfXAv5v1am-120" style="edgeStyle=orthogonalEdgeStyle;rounded=0;orthogonalLoop=1;jettySize=auto;html=1;exitX=0;exitY=0.5;exitDx=0;exitDy=0;entryX=0.5;entryY=0;entryDx=0;entryDy=0;strokeColor=default;align=center;verticalAlign=middle;fontFamily=Helvetica;fontSize=11;fontColor=default;labelBackgroundColor=default;endArrow=classic;curved=1;" parent="1" source="ogpWwlNU3PsfXAv5v1am-109" target="ogpWwlNU3PsfXAv5v1am-119" edge="1">
          <mxGeometry relative="1" as="geometry" />
        </mxCell>
        <mxCell id="ogpWwlNU3PsfXAv5v1am-109" value="map+RWLock与sync,Map对比" style="ellipse;whiteSpace=wrap;html=1;fontFamily=Helvetica;fontSize=11;fontColor=default;labelBackgroundColor=default;" parent="1" vertex="1">
          <mxGeometry x="-2220" y="1300" width="120" height="80" as="geometry" />
        </mxCell>
        <mxCell id="ogpWwlNU3PsfXAv5v1am-116" style="edgeStyle=orthogonalEdgeStyle;rounded=0;orthogonalLoop=1;jettySize=auto;html=1;exitX=0;exitY=0.5;exitDx=0;exitDy=0;entryX=0.5;entryY=0;entryDx=0;entryDy=0;strokeColor=default;align=center;verticalAlign=middle;fontFamily=Helvetica;fontSize=11;fontColor=default;labelBackgroundColor=default;endArrow=classic;curved=1;" parent="1" source="ogpWwlNU3PsfXAv5v1am-111" target="ogpWwlNU3PsfXAv5v1am-113" edge="1">
          <mxGeometry relative="1" as="geometry" />
        </mxCell>
        <mxCell id="ogpWwlNU3PsfXAv5v1am-117" style="edgeStyle=orthogonalEdgeStyle;rounded=0;orthogonalLoop=1;jettySize=auto;html=1;exitX=0.5;exitY=1;exitDx=0;exitDy=0;entryX=0.5;entryY=0;entryDx=0;entryDy=0;strokeColor=default;align=center;verticalAlign=middle;fontFamily=Helvetica;fontSize=11;fontColor=default;labelBackgroundColor=default;endArrow=classic;curved=1;" parent="1" source="ogpWwlNU3PsfXAv5v1am-111" target="ogpWwlNU3PsfXAv5v1am-114" edge="1">
          <mxGeometry relative="1" as="geometry" />
        </mxCell>
        <mxCell id="ogpWwlNU3PsfXAv5v1am-118" style="edgeStyle=orthogonalEdgeStyle;rounded=0;orthogonalLoop=1;jettySize=auto;html=1;exitX=1;exitY=0.5;exitDx=0;exitDy=0;entryX=0.5;entryY=0;entryDx=0;entryDy=0;strokeColor=default;align=center;verticalAlign=middle;fontFamily=Helvetica;fontSize=11;fontColor=default;labelBackgroundColor=default;endArrow=classic;curved=1;" parent="1" source="ogpWwlNU3PsfXAv5v1am-111" target="ogpWwlNU3PsfXAv5v1am-115" edge="1">
          <mxGeometry relative="1" as="geometry" />
        </mxCell>
        <mxCell id="ogpWwlNU3PsfXAv5v1am-111" value="sync,Map 结构:&lt;br&gt;空间换时间" style="ellipse;whiteSpace=wrap;html=1;fontFamily=Helvetica;fontSize=11;fontColor=default;labelBackgroundColor=default;" parent="1" vertex="1">
          <mxGeometry x="-1745" y="1430" width="120" height="80" as="geometry" />
        </mxCell>
        <mxCell id="ogpWwlNU3PsfXAv5v1am-113" value="mu Mutex 一个互斥锁" style="ellipse;whiteSpace=wrap;html=1;fontFamily=Helvetica;fontSize=11;fontColor=default;labelBackgroundColor=default;" parent="1" vertex="1">
          <mxGeometry x="-1970" y="1840" width="120" height="80" as="geometry" />
        </mxCell>
        <mxCell id="ogpWwlNU3PsfXAv5v1am-114" value="read atomic.Value //readOnly&lt;br&gt;（冗余）&lt;br&gt;&lt;br&gt;读请求直接在read字段读取，不用加锁" style="ellipse;whiteSpace=wrap;html=1;fontFamily=Helvetica;fontSize=11;fontColor=default;labelBackgroundColor=default;" parent="1" vertex="1">
          <mxGeometry x="-1740" y="1880" width="190" height="156" as="geometry" />
        </mxCell>
        <mxCell id="ogpWwlNU3PsfXAv5v1am-115" value="dirty map[interface{}]*enrty&lt;br&gt;&lt;br&gt;当有写请求，写dirtymap,并且更新read" style="ellipse;whiteSpace=wrap;html=1;fontFamily=Helvetica;fontSize=11;fontColor=default;labelBackgroundColor=default;" parent="1" vertex="1">
          <mxGeometry x="-1380" y="1890" width="210" height="80" as="geometry" />
        </mxCell>
        <mxCell id="ogpWwlNU3PsfXAv5v1am-119" value="优缺点：&lt;br&gt;sync.map 减少加锁对性能影响，适合&lt;br&gt;&lt;font color=&quot;#ff0000&quot;&gt;读多写少&lt;br&gt;&lt;br&gt;缺点：&lt;br&gt;读少写多 read 字段缓存失效冲突变多，性能下降&lt;br&gt;&lt;/font&gt;" style="ellipse;whiteSpace=wrap;html=1;fontFamily=Helvetica;fontSize=11;fontColor=default;labelBackgroundColor=default;" parent="1" vertex="1">
          <mxGeometry x="-2500" y="1640" width="190" height="170" as="geometry" />
        </mxCell>
        <mxCell id="0b5SVSkG3EDfwwchwPbA-8" style="edgeStyle=orthogonalEdgeStyle;rounded=0;orthogonalLoop=1;jettySize=auto;html=1;exitX=0.5;exitY=0;exitDx=0;exitDy=0;entryX=0.5;entryY=1;entryDx=0;entryDy=0;strokeColor=default;curved=0;" parent="1" source="0b5SVSkG3EDfwwchwPbA-1" target="0b5SVSkG3EDfwwchwPbA-3" edge="1">
          <mxGeometry relative="1" as="geometry" />
        </mxCell>
        <mxCell id="0b5SVSkG3EDfwwchwPbA-14" style="edgeStyle=orthogonalEdgeStyle;rounded=0;orthogonalLoop=1;jettySize=auto;html=1;exitX=0;exitY=0.5;exitDx=0;exitDy=0;strokeColor=default;align=center;verticalAlign=middle;fontFamily=Helvetica;fontSize=11;fontColor=default;labelBackgroundColor=default;endArrow=classic;" parent="1" source="0b5SVSkG3EDfwwchwPbA-1" target="0b5SVSkG3EDfwwchwPbA-13" edge="1">
          <mxGeometry relative="1" as="geometry" />
        </mxCell>
        <mxCell id="0b5SVSkG3EDfwwchwPbA-30" style="edgeStyle=orthogonalEdgeStyle;rounded=0;orthogonalLoop=1;jettySize=auto;html=1;exitX=0.5;exitY=1;exitDx=0;exitDy=0;entryX=0.5;entryY=0;entryDx=0;entryDy=0;strokeColor=default;align=center;verticalAlign=middle;fontFamily=Helvetica;fontSize=11;fontColor=default;labelBackgroundColor=default;endArrow=classic;curved=1;" parent="1" source="0b5SVSkG3EDfwwchwPbA-1" target="0b5SVSkG3EDfwwchwPbA-29" edge="1">
          <mxGeometry relative="1" as="geometry" />
        </mxCell>
        <mxCell id="0b5SVSkG3EDfwwchwPbA-48" style="edgeStyle=orthogonalEdgeStyle;rounded=0;orthogonalLoop=1;jettySize=auto;html=1;exitX=1;exitY=0;exitDx=0;exitDy=0;entryX=0;entryY=0.5;entryDx=0;entryDy=0;strokeColor=default;align=center;verticalAlign=middle;fontFamily=Helvetica;fontSize=11;fontColor=default;labelBackgroundColor=default;endArrow=classic;curved=1;" parent="1" source="0b5SVSkG3EDfwwchwPbA-1" target="0b5SVSkG3EDfwwchwPbA-47" edge="1">
          <mxGeometry relative="1" as="geometry" />
        </mxCell>
        <mxCell id="0b5SVSkG3EDfwwchwPbA-74" style="edgeStyle=orthogonalEdgeStyle;rounded=0;orthogonalLoop=1;jettySize=auto;html=1;exitX=1;exitY=1;exitDx=0;exitDy=0;strokeColor=default;align=center;verticalAlign=middle;fontFamily=Helvetica;fontSize=11;fontColor=default;labelBackgroundColor=default;endArrow=classic;curved=1;" parent="1" source="0b5SVSkG3EDfwwchwPbA-1" target="0b5SVSkG3EDfwwchwPbA-73" edge="1">
          <mxGeometry relative="1" as="geometry" />
        </mxCell>
        <mxCell id="0b5SVSkG3EDfwwchwPbA-85" style="edgeStyle=orthogonalEdgeStyle;rounded=0;orthogonalLoop=1;jettySize=auto;html=1;exitX=0;exitY=0;exitDx=0;exitDy=0;entryX=0.5;entryY=1;entryDx=0;entryDy=0;strokeColor=default;align=center;verticalAlign=middle;fontFamily=Helvetica;fontSize=11;fontColor=default;labelBackgroundColor=default;endArrow=classic;curved=1;" parent="1" source="0b5SVSkG3EDfwwchwPbA-1" target="0b5SVSkG3EDfwwchwPbA-84" edge="1">
          <mxGeometry relative="1" as="geometry" />
        </mxCell>
        <mxCell id="0b5SVSkG3EDfwwchwPbA-1" value="channel&lt;br&gt;实际上是一个&lt;font color=&quot;#ff0000&quot;&gt;队列&lt;br&gt;进行携程之间通信&lt;br&gt;&lt;br&gt;CSP并发模型通过groutine 和 channel 实现&lt;br&gt;&lt;/font&gt;" style="ellipse;whiteSpace=wrap;html=1;" parent="1" vertex="1">
          <mxGeometry x="-765" y="-2840" width="300" height="150" as="geometry" />
        </mxCell>
        <mxCell id="0b5SVSkG3EDfwwchwPbA-9" style="edgeStyle=orthogonalEdgeStyle;rounded=0;orthogonalLoop=1;jettySize=auto;html=1;exitX=1;exitY=0.5;exitDx=0;exitDy=0;entryX=0.5;entryY=1;entryDx=0;entryDy=0;strokeColor=default;align=center;verticalAlign=middle;fontFamily=Helvetica;fontSize=11;fontColor=default;labelBackgroundColor=default;endArrow=classic;curved=1;" parent="1" source="0b5SVSkG3EDfwwchwPbA-3" target="0b5SVSkG3EDfwwchwPbA-7" edge="1">
          <mxGeometry relative="1" as="geometry" />
        </mxCell>
        <mxCell id="0b5SVSkG3EDfwwchwPbA-10" style="edgeStyle=orthogonalEdgeStyle;rounded=0;orthogonalLoop=1;jettySize=auto;html=1;exitX=1;exitY=0;exitDx=0;exitDy=0;entryX=0.5;entryY=1;entryDx=0;entryDy=0;strokeColor=default;align=center;verticalAlign=middle;fontFamily=Helvetica;fontSize=11;fontColor=default;labelBackgroundColor=default;endArrow=classic;curved=1;" parent="1" source="0b5SVSkG3EDfwwchwPbA-3" target="0b5SVSkG3EDfwwchwPbA-6" edge="1">
          <mxGeometry relative="1" as="geometry" />
        </mxCell>
        <mxCell id="0b5SVSkG3EDfwwchwPbA-11" style="edgeStyle=orthogonalEdgeStyle;rounded=0;orthogonalLoop=1;jettySize=auto;html=1;exitX=0;exitY=0;exitDx=0;exitDy=0;entryX=0.5;entryY=1;entryDx=0;entryDy=0;strokeColor=default;align=center;verticalAlign=middle;fontFamily=Helvetica;fontSize=11;fontColor=default;labelBackgroundColor=default;endArrow=classic;curved=1;" parent="1" source="0b5SVSkG3EDfwwchwPbA-3" target="0b5SVSkG3EDfwwchwPbA-5" edge="1">
          <mxGeometry relative="1" as="geometry" />
        </mxCell>
        <mxCell id="0b5SVSkG3EDfwwchwPbA-12" style="edgeStyle=orthogonalEdgeStyle;rounded=0;orthogonalLoop=1;jettySize=auto;html=1;exitX=0;exitY=0.5;exitDx=0;exitDy=0;entryX=0.5;entryY=1;entryDx=0;entryDy=0;strokeColor=default;align=center;verticalAlign=middle;fontFamily=Helvetica;fontSize=11;fontColor=default;labelBackgroundColor=default;endArrow=classic;curved=1;" parent="1" source="0b5SVSkG3EDfwwchwPbA-3" target="0b5SVSkG3EDfwwchwPbA-4" edge="1">
          <mxGeometry relative="1" as="geometry" />
        </mxCell>
        <mxCell id="0b5SVSkG3EDfwwchwPbA-3" value="使用场景" style="ellipse;whiteSpace=wrap;html=1;" parent="1" vertex="1">
          <mxGeometry x="-675" y="-3160" width="120" height="80" as="geometry" />
        </mxCell>
        <mxCell id="0b5SVSkG3EDfwwchwPbA-4" value="停止信号监听" style="ellipse;whiteSpace=wrap;html=1;" parent="1" vertex="1">
          <mxGeometry x="-1100" y="-3350" width="120" height="80" as="geometry" />
        </mxCell>
        <mxCell id="0b5SVSkG3EDfwwchwPbA-5" value="定时任务" style="ellipse;whiteSpace=wrap;html=1;" parent="1" vertex="1">
          <mxGeometry x="-850" y="-3350" width="120" height="80" as="geometry" />
        </mxCell>
        <mxCell id="0b5SVSkG3EDfwwchwPbA-6" value="生产方和消费方解耦" style="ellipse;whiteSpace=wrap;html=1;" parent="1" vertex="1">
          <mxGeometry x="-555" y="-3350" width="120" height="80" as="geometry" />
        </mxCell>
        <mxCell id="0b5SVSkG3EDfwwchwPbA-7" value="控制并发数" style="ellipse;whiteSpace=wrap;html=1;" parent="1" vertex="1">
          <mxGeometry x="-300" y="-3350" width="120" height="80" as="geometry" />
        </mxCell>
        <mxCell id="0b5SVSkG3EDfwwchwPbA-16" style="edgeStyle=orthogonalEdgeStyle;rounded=0;orthogonalLoop=1;jettySize=auto;html=1;exitX=0;exitY=0.5;exitDx=0;exitDy=0;strokeColor=default;align=center;verticalAlign=middle;fontFamily=Helvetica;fontSize=11;fontColor=default;labelBackgroundColor=default;endArrow=classic;" parent="1" source="0b5SVSkG3EDfwwchwPbA-13" target="0b5SVSkG3EDfwwchwPbA-15" edge="1">
          <mxGeometry relative="1" as="geometry" />
        </mxCell>
        <mxCell id="0b5SVSkG3EDfwwchwPbA-13" value="结构:&lt;br&gt;channel 变量是 hchan的指针" style="ellipse;whiteSpace=wrap;html=1;fontFamily=Helvetica;fontSize=11;fontColor=default;labelBackgroundColor=default;" parent="1" vertex="1">
          <mxGeometry x="-1130" y="-2810" width="150" height="90" as="geometry" />
        </mxCell>
        <mxCell id="0b5SVSkG3EDfwwchwPbA-21" style="edgeStyle=orthogonalEdgeStyle;rounded=0;orthogonalLoop=1;jettySize=auto;html=1;exitX=0;exitY=0.5;exitDx=0;exitDy=0;strokeColor=default;align=center;verticalAlign=middle;fontFamily=Helvetica;fontSize=11;fontColor=default;labelBackgroundColor=default;endArrow=classic;curved=1;" parent="1" source="0b5SVSkG3EDfwwchwPbA-15" target="0b5SVSkG3EDfwwchwPbA-19" edge="1">
          <mxGeometry relative="1" as="geometry" />
        </mxCell>
        <mxCell id="0b5SVSkG3EDfwwchwPbA-22" style="edgeStyle=orthogonalEdgeStyle;rounded=0;orthogonalLoop=1;jettySize=auto;html=1;exitX=0;exitY=1;exitDx=0;exitDy=0;entryX=1;entryY=0.5;entryDx=0;entryDy=0;strokeColor=default;align=center;verticalAlign=middle;fontFamily=Helvetica;fontSize=11;fontColor=default;labelBackgroundColor=default;endArrow=classic;curved=1;" parent="1" source="0b5SVSkG3EDfwwchwPbA-15" target="0b5SVSkG3EDfwwchwPbA-20" edge="1">
          <mxGeometry relative="1" as="geometry" />
        </mxCell>
        <mxCell id="0b5SVSkG3EDfwwchwPbA-25" style="edgeStyle=orthogonalEdgeStyle;rounded=0;orthogonalLoop=1;jettySize=auto;html=1;exitX=0.5;exitY=1;exitDx=0;exitDy=0;entryX=1;entryY=0.5;entryDx=0;entryDy=0;strokeColor=default;align=center;verticalAlign=middle;fontFamily=Helvetica;fontSize=11;fontColor=default;labelBackgroundColor=default;endArrow=classic;curved=1;" parent="1" source="0b5SVSkG3EDfwwchwPbA-15" target="0b5SVSkG3EDfwwchwPbA-23" edge="1">
          <mxGeometry relative="1" as="geometry" />
        </mxCell>
        <mxCell id="0b5SVSkG3EDfwwchwPbA-28" style="edgeStyle=orthogonalEdgeStyle;rounded=0;orthogonalLoop=1;jettySize=auto;html=1;exitX=0.5;exitY=0;exitDx=0;exitDy=0;entryX=1;entryY=0.5;entryDx=0;entryDy=0;strokeColor=default;align=center;verticalAlign=middle;fontFamily=Helvetica;fontSize=11;fontColor=default;labelBackgroundColor=default;endArrow=classic;curved=1;" parent="1" source="0b5SVSkG3EDfwwchwPbA-15" target="0b5SVSkG3EDfwwchwPbA-27" edge="1">
          <mxGeometry relative="1" as="geometry" />
        </mxCell>
        <mxCell id="0b5SVSkG3EDfwwchwPbA-15" value="hchan" style="ellipse;whiteSpace=wrap;html=1;fontFamily=Helvetica;fontSize=11;fontColor=default;labelBackgroundColor=default;" parent="1" vertex="1">
          <mxGeometry x="-1370" y="-2805" width="120" height="80" as="geometry" />
        </mxCell>
        <mxCell id="0b5SVSkG3EDfwwchwPbA-17" value="buf&lt;br&gt;缓冲数组" style="ellipse;whiteSpace=wrap;html=1;fontFamily=Helvetica;fontSize=11;fontColor=default;labelBackgroundColor=default;" parent="1" vertex="1">
          <mxGeometry x="-1680" y="-3050" width="120" height="80" as="geometry" />
        </mxCell>
        <mxCell id="0b5SVSkG3EDfwwchwPbA-18" style="edgeStyle=orthogonalEdgeStyle;rounded=0;orthogonalLoop=1;jettySize=auto;html=1;exitX=0;exitY=0;exitDx=0;exitDy=0;entryX=0.972;entryY=0.404;entryDx=0;entryDy=0;entryPerimeter=0;strokeColor=default;align=center;verticalAlign=middle;fontFamily=Helvetica;fontSize=11;fontColor=default;labelBackgroundColor=default;endArrow=classic;curved=1;" parent="1" source="0b5SVSkG3EDfwwchwPbA-15" target="0b5SVSkG3EDfwwchwPbA-17" edge="1">
          <mxGeometry relative="1" as="geometry" />
        </mxCell>
        <mxCell id="0b5SVSkG3EDfwwchwPbA-19" value="sendx下一个要发送数据的下标" style="ellipse;whiteSpace=wrap;html=1;fontFamily=Helvetica;fontSize=11;fontColor=default;labelBackgroundColor=default;" parent="1" vertex="1">
          <mxGeometry x="-1690" y="-2930" width="120" height="80" as="geometry" />
        </mxCell>
        <mxCell id="0b5SVSkG3EDfwwchwPbA-20" value="recvx下一个要接收数据下标" style="ellipse;whiteSpace=wrap;html=1;fontFamily=Helvetica;fontSize=11;fontColor=default;labelBackgroundColor=default;" parent="1" vertex="1">
          <mxGeometry x="-1690" y="-2770" width="120" height="80" as="geometry" />
        </mxCell>
        <mxCell id="0b5SVSkG3EDfwwchwPbA-23" value="sendq&lt;br&gt;待发送数据goroutine队列" style="ellipse;whiteSpace=wrap;html=1;fontFamily=Helvetica;fontSize=11;fontColor=default;labelBackgroundColor=default;" parent="1" vertex="1">
          <mxGeometry x="-1690" y="-2640" width="120" height="80" as="geometry" />
        </mxCell>
        <mxCell id="0b5SVSkG3EDfwwchwPbA-24" value="recvq&lt;br&gt;待接收数据队列" style="ellipse;whiteSpace=wrap;html=1;fontFamily=Helvetica;fontSize=11;fontColor=default;labelBackgroundColor=default;" parent="1" vertex="1">
          <mxGeometry x="-1700" y="-2510" width="120" height="80" as="geometry" />
        </mxCell>
        <mxCell id="0b5SVSkG3EDfwwchwPbA-26" style="edgeStyle=orthogonalEdgeStyle;rounded=0;orthogonalLoop=1;jettySize=auto;html=1;exitX=1;exitY=1;exitDx=0;exitDy=0;entryX=1.017;entryY=0.567;entryDx=0;entryDy=0;entryPerimeter=0;strokeColor=default;align=center;verticalAlign=middle;fontFamily=Helvetica;fontSize=11;fontColor=default;labelBackgroundColor=default;endArrow=classic;curved=1;" parent="1" source="0b5SVSkG3EDfwwchwPbA-15" target="0b5SVSkG3EDfwwchwPbA-24" edge="1">
          <mxGeometry relative="1" as="geometry">
            <Array as="points">
              <mxPoint x="-1268" y="-2510" />
              <mxPoint x="-1558" y="-2510" />
            </Array>
          </mxGeometry>
        </mxCell>
        <mxCell id="0b5SVSkG3EDfwwchwPbA-27" value="lock&lt;br&gt;保证线程安全" style="ellipse;whiteSpace=wrap;html=1;fontFamily=Helvetica;fontSize=11;fontColor=default;labelBackgroundColor=default;" parent="1" vertex="1">
          <mxGeometry x="-1680" y="-3160" width="120" height="80" as="geometry" />
        </mxCell>
        <mxCell id="0b5SVSkG3EDfwwchwPbA-33" style="edgeStyle=orthogonalEdgeStyle;rounded=0;orthogonalLoop=1;jettySize=auto;html=1;exitX=0;exitY=1;exitDx=0;exitDy=0;entryX=0.5;entryY=0;entryDx=0;entryDy=0;strokeColor=default;align=center;verticalAlign=middle;fontFamily=Helvetica;fontSize=11;fontColor=default;labelBackgroundColor=default;endArrow=classic;curved=1;" parent="1" source="0b5SVSkG3EDfwwchwPbA-35" target="0b5SVSkG3EDfwwchwPbA-31" edge="1">
          <mxGeometry relative="1" as="geometry" />
        </mxCell>
        <mxCell id="0b5SVSkG3EDfwwchwPbA-34" style="edgeStyle=orthogonalEdgeStyle;rounded=0;orthogonalLoop=1;jettySize=auto;html=1;exitX=1;exitY=1;exitDx=0;exitDy=0;strokeColor=default;align=center;verticalAlign=middle;fontFamily=Helvetica;fontSize=11;fontColor=default;labelBackgroundColor=default;endArrow=classic;curved=1;entryX=0.5;entryY=0;entryDx=0;entryDy=0;" parent="1" source="0b5SVSkG3EDfwwchwPbA-35" target="0b5SVSkG3EDfwwchwPbA-32" edge="1">
          <mxGeometry relative="1" as="geometry">
            <Array as="points">
              <mxPoint x="-1078" y="-2242" />
              <mxPoint x="-1040" y="-2242" />
              <mxPoint x="-1040" y="-2040" />
              <mxPoint x="-1050" y="-2040" />
              <mxPoint x="-1050" y="-1860" />
              <mxPoint x="-1055" y="-1860" />
            </Array>
          </mxGeometry>
        </mxCell>
        <mxCell id="0b5SVSkG3EDfwwchwPbA-36" style="edgeStyle=orthogonalEdgeStyle;rounded=0;orthogonalLoop=1;jettySize=auto;html=1;exitX=0;exitY=0.5;exitDx=0;exitDy=0;entryX=0.5;entryY=0;entryDx=0;entryDy=0;strokeColor=default;align=center;verticalAlign=middle;fontFamily=Helvetica;fontSize=11;fontColor=default;labelBackgroundColor=default;endArrow=classic;curved=1;" parent="1" source="0b5SVSkG3EDfwwchwPbA-29" target="0b5SVSkG3EDfwwchwPbA-35" edge="1">
          <mxGeometry relative="1" as="geometry" />
        </mxCell>
        <mxCell id="0b5SVSkG3EDfwwchwPbA-29" value="类型" style="ellipse;whiteSpace=wrap;html=1;fontFamily=Helvetica;fontSize=11;fontColor=default;labelBackgroundColor=default;" parent="1" vertex="1">
          <mxGeometry x="-675" y="-2530" width="120" height="80" as="geometry" />
        </mxCell>
        <mxCell id="0b5SVSkG3EDfwwchwPbA-31" value="有缓冲&lt;br&gt;make(chan int, 3)&lt;br&gt;&lt;br&gt;缓冲满发送阻塞&lt;br&gt;&lt;br&gt;缓冲空接受阻塞" style="ellipse;whiteSpace=wrap;html=1;fontFamily=Helvetica;fontSize=11;fontColor=default;labelBackgroundColor=default;" parent="1" vertex="1">
          <mxGeometry x="-1420" y="-1910" width="150" height="130" as="geometry" />
        </mxCell>
        <mxCell id="0b5SVSkG3EDfwwchwPbA-32" value="无缓冲&lt;br&gt;make(chan int)&lt;br&gt;&lt;br&gt;数据发送后未接收阻塞&lt;br&gt;&lt;div&gt;&lt;br&gt;&lt;/div&gt;&lt;div&gt;接收时未接到阻塞&lt;br&gt;&lt;/div&gt;" style="ellipse;whiteSpace=wrap;html=1;fontFamily=Helvetica;fontSize=11;fontColor=default;labelBackgroundColor=default;" parent="1" vertex="1">
          <mxGeometry x="-1140" y="-1818" width="170" height="130" as="geometry" />
        </mxCell>
        <mxCell id="0b5SVSkG3EDfwwchwPbA-35" value="缓冲区" style="ellipse;whiteSpace=wrap;html=1;fontFamily=Helvetica;fontSize=11;fontColor=default;labelBackgroundColor=default;" parent="1" vertex="1">
          <mxGeometry x="-1180" y="-2300" width="120" height="80" as="geometry" />
        </mxCell>
        <mxCell id="0b5SVSkG3EDfwwchwPbA-40" style="edgeStyle=orthogonalEdgeStyle;rounded=0;orthogonalLoop=1;jettySize=auto;html=1;exitX=0;exitY=1;exitDx=0;exitDy=0;strokeColor=default;align=center;verticalAlign=middle;fontFamily=Helvetica;fontSize=11;fontColor=default;labelBackgroundColor=default;endArrow=classic;curved=1;" parent="1" source="0b5SVSkG3EDfwwchwPbA-37" target="0b5SVSkG3EDfwwchwPbA-38" edge="1">
          <mxGeometry relative="1" as="geometry" />
        </mxCell>
        <mxCell id="0b5SVSkG3EDfwwchwPbA-41" style="edgeStyle=orthogonalEdgeStyle;rounded=0;orthogonalLoop=1;jettySize=auto;html=1;exitX=1;exitY=1;exitDx=0;exitDy=0;entryX=0.5;entryY=0;entryDx=0;entryDy=0;strokeColor=default;align=center;verticalAlign=middle;fontFamily=Helvetica;fontSize=11;fontColor=default;labelBackgroundColor=default;endArrow=classic;curved=1;" parent="1" source="0b5SVSkG3EDfwwchwPbA-37" target="0b5SVSkG3EDfwwchwPbA-39" edge="1">
          <mxGeometry relative="1" as="geometry" />
        </mxCell>
        <mxCell id="0b5SVSkG3EDfwwchwPbA-37" value="通道方向" style="ellipse;whiteSpace=wrap;html=1;fontFamily=Helvetica;fontSize=11;fontColor=default;labelBackgroundColor=default;" parent="1" vertex="1">
          <mxGeometry x="-690" y="-2280" width="120" height="80" as="geometry" />
        </mxCell>
        <mxCell id="0b5SVSkG3EDfwwchwPbA-38" value="双向&lt;br&gt;make(chan int)&lt;br&gt;读写都可" style="ellipse;whiteSpace=wrap;html=1;fontFamily=Helvetica;fontSize=11;fontColor=default;labelBackgroundColor=default;" parent="1" vertex="1">
          <mxGeometry x="-900" y="-2030" width="120" height="80" as="geometry" />
        </mxCell>
        <mxCell id="0b5SVSkG3EDfwwchwPbA-45" style="edgeStyle=orthogonalEdgeStyle;rounded=0;orthogonalLoop=1;jettySize=auto;html=1;exitX=0;exitY=1;exitDx=0;exitDy=0;entryX=0.5;entryY=0;entryDx=0;entryDy=0;strokeColor=default;align=center;verticalAlign=middle;fontFamily=Helvetica;fontSize=11;fontColor=default;labelBackgroundColor=default;endArrow=classic;curved=1;" parent="1" source="0b5SVSkG3EDfwwchwPbA-39" target="0b5SVSkG3EDfwwchwPbA-43" edge="1">
          <mxGeometry relative="1" as="geometry" />
        </mxCell>
        <mxCell id="0b5SVSkG3EDfwwchwPbA-46" style="edgeStyle=orthogonalEdgeStyle;rounded=0;orthogonalLoop=1;jettySize=auto;html=1;exitX=1;exitY=0.5;exitDx=0;exitDy=0;strokeColor=default;align=center;verticalAlign=middle;fontFamily=Helvetica;fontSize=11;fontColor=default;labelBackgroundColor=default;endArrow=classic;curved=1;" parent="1" source="0b5SVSkG3EDfwwchwPbA-39" target="0b5SVSkG3EDfwwchwPbA-44" edge="1">
          <mxGeometry relative="1" as="geometry" />
        </mxCell>
        <mxCell id="0b5SVSkG3EDfwwchwPbA-39" value="单向" style="ellipse;whiteSpace=wrap;html=1;fontFamily=Helvetica;fontSize=11;fontColor=default;labelBackgroundColor=default;" parent="1" vertex="1">
          <mxGeometry x="-640" y="-2030" width="120" height="80" as="geometry" />
        </mxCell>
        <mxCell id="0b5SVSkG3EDfwwchwPbA-42" style="edgeStyle=orthogonalEdgeStyle;rounded=0;orthogonalLoop=1;jettySize=auto;html=1;exitX=0.5;exitY=1;exitDx=0;exitDy=0;entryX=0.575;entryY=-0.027;entryDx=0;entryDy=0;entryPerimeter=0;strokeColor=default;align=center;verticalAlign=middle;fontFamily=Helvetica;fontSize=11;fontColor=default;labelBackgroundColor=default;endArrow=classic;curved=1;" parent="1" source="0b5SVSkG3EDfwwchwPbA-29" target="0b5SVSkG3EDfwwchwPbA-37" edge="1">
          <mxGeometry relative="1" as="geometry" />
        </mxCell>
        <mxCell id="0b5SVSkG3EDfwwchwPbA-43" value="只能写&lt;br&gt;make(chan&amp;lt;-int)" style="ellipse;whiteSpace=wrap;html=1;fontFamily=Helvetica;fontSize=11;fontColor=default;labelBackgroundColor=default;" parent="1" vertex="1">
          <mxGeometry x="-760" y="-1800" width="120" height="80" as="geometry" />
        </mxCell>
        <mxCell id="0b5SVSkG3EDfwwchwPbA-44" value="只能读&lt;br&gt;make(&amp;lt;-chan int)" style="ellipse;whiteSpace=wrap;html=1;fontFamily=Helvetica;fontSize=11;fontColor=default;labelBackgroundColor=default;" parent="1" vertex="1">
          <mxGeometry x="-550" y="-1740" width="120" height="80" as="geometry" />
        </mxCell>
        <mxCell id="0b5SVSkG3EDfwwchwPbA-53" style="edgeStyle=orthogonalEdgeStyle;rounded=0;orthogonalLoop=1;jettySize=auto;html=1;exitX=0.5;exitY=0;exitDx=0;exitDy=0;entryX=0;entryY=0.5;entryDx=0;entryDy=0;strokeColor=default;align=center;verticalAlign=middle;fontFamily=Helvetica;fontSize=11;fontColor=default;labelBackgroundColor=default;endArrow=classic;curved=1;" parent="1" source="0b5SVSkG3EDfwwchwPbA-47" target="0b5SVSkG3EDfwwchwPbA-50" edge="1">
          <mxGeometry relative="1" as="geometry" />
        </mxCell>
        <mxCell id="0b5SVSkG3EDfwwchwPbA-54" style="edgeStyle=orthogonalEdgeStyle;rounded=0;orthogonalLoop=1;jettySize=auto;html=1;exitX=1;exitY=0.5;exitDx=0;exitDy=0;entryX=0;entryY=0.5;entryDx=0;entryDy=0;strokeColor=default;align=center;verticalAlign=middle;fontFamily=Helvetica;fontSize=11;fontColor=default;labelBackgroundColor=default;endArrow=classic;curved=1;" parent="1" source="0b5SVSkG3EDfwwchwPbA-47" target="0b5SVSkG3EDfwwchwPbA-51" edge="1">
          <mxGeometry relative="1" as="geometry" />
        </mxCell>
        <mxCell id="0b5SVSkG3EDfwwchwPbA-55" style="edgeStyle=orthogonalEdgeStyle;rounded=0;orthogonalLoop=1;jettySize=auto;html=1;exitX=0.5;exitY=1;exitDx=0;exitDy=0;entryX=0;entryY=0.5;entryDx=0;entryDy=0;strokeColor=default;align=center;verticalAlign=middle;fontFamily=Helvetica;fontSize=11;fontColor=default;labelBackgroundColor=default;endArrow=classic;curved=1;" parent="1" source="0b5SVSkG3EDfwwchwPbA-47" target="0b5SVSkG3EDfwwchwPbA-52" edge="1">
          <mxGeometry relative="1" as="geometry" />
        </mxCell>
        <mxCell id="0b5SVSkG3EDfwwchwPbA-47" value="状态" style="ellipse;whiteSpace=wrap;html=1;fontFamily=Helvetica;fontSize=11;fontColor=default;labelBackgroundColor=default;" parent="1" vertex="1">
          <mxGeometry x="-100" y="-3002" width="120" height="80" as="geometry" />
        </mxCell>
        <mxCell id="0b5SVSkG3EDfwwchwPbA-58" style="edgeStyle=orthogonalEdgeStyle;rounded=0;orthogonalLoop=1;jettySize=auto;html=1;exitX=1;exitY=0;exitDx=0;exitDy=0;entryX=0.5;entryY=0;entryDx=0;entryDy=0;strokeColor=default;align=center;verticalAlign=middle;fontFamily=Helvetica;fontSize=11;fontColor=default;labelBackgroundColor=default;endArrow=classic;curved=1;" parent="1" source="0b5SVSkG3EDfwwchwPbA-50" target="0b5SVSkG3EDfwwchwPbA-56" edge="1">
          <mxGeometry relative="1" as="geometry" />
        </mxCell>
        <mxCell id="0b5SVSkG3EDfwwchwPbA-59" value="关闭" style="edgeLabel;html=1;align=center;verticalAlign=middle;resizable=0;points=[];fontFamily=Helvetica;fontSize=11;fontColor=default;labelBackgroundColor=default;" parent="0b5SVSkG3EDfwwchwPbA-58" vertex="1" connectable="0">
          <mxGeometry x="0.108" y="-5" relative="1" as="geometry">
            <mxPoint as="offset" />
          </mxGeometry>
        </mxCell>
        <mxCell id="0b5SVSkG3EDfwwchwPbA-60" style="edgeStyle=orthogonalEdgeStyle;rounded=0;orthogonalLoop=1;jettySize=auto;html=1;exitX=1;exitY=0.5;exitDx=0;exitDy=0;entryX=0;entryY=0;entryDx=0;entryDy=0;strokeColor=default;align=center;verticalAlign=middle;fontFamily=Helvetica;fontSize=11;fontColor=default;labelBackgroundColor=default;endArrow=classic;curved=1;" parent="1" source="0b5SVSkG3EDfwwchwPbA-50" target="0b5SVSkG3EDfwwchwPbA-57" edge="1">
          <mxGeometry relative="1" as="geometry">
            <Array as="points">
              <mxPoint x="240" y="-3020" />
              <mxPoint x="590" y="-3020" />
              <mxPoint x="590" y="-2793" />
            </Array>
          </mxGeometry>
        </mxCell>
        <mxCell id="0b5SVSkG3EDfwwchwPbA-69" value="写" style="edgeLabel;html=1;align=center;verticalAlign=middle;resizable=0;points=[];fontFamily=Helvetica;fontSize=11;fontColor=default;labelBackgroundColor=default;" parent="0b5SVSkG3EDfwwchwPbA-60" vertex="1" connectable="0">
          <mxGeometry x="-0.1558" y="-4" relative="1" as="geometry">
            <mxPoint as="offset" />
          </mxGeometry>
        </mxCell>
        <mxCell id="0b5SVSkG3EDfwwchwPbA-62" style="edgeStyle=orthogonalEdgeStyle;rounded=0;orthogonalLoop=1;jettySize=auto;html=1;exitX=1;exitY=1;exitDx=0;exitDy=0;entryX=0.5;entryY=0;entryDx=0;entryDy=0;strokeColor=default;align=center;verticalAlign=middle;fontFamily=Helvetica;fontSize=11;fontColor=default;labelBackgroundColor=default;endArrow=classic;curved=1;" parent="1" source="0b5SVSkG3EDfwwchwPbA-50" target="0b5SVSkG3EDfwwchwPbA-57" edge="1">
          <mxGeometry relative="1" as="geometry">
            <Array as="points">
              <mxPoint x="630" y="-3092" />
              <mxPoint x="630" y="-2805" />
            </Array>
          </mxGeometry>
        </mxCell>
        <mxCell id="0b5SVSkG3EDfwwchwPbA-63" value="读" style="edgeLabel;html=1;align=center;verticalAlign=middle;resizable=0;points=[];fontFamily=Helvetica;fontSize=11;fontColor=default;labelBackgroundColor=default;" parent="0b5SVSkG3EDfwwchwPbA-62" vertex="1" connectable="0">
          <mxGeometry x="-0.1872" y="-55" relative="1" as="geometry">
            <mxPoint as="offset" />
          </mxGeometry>
        </mxCell>
        <mxCell id="0b5SVSkG3EDfwwchwPbA-50" value="未初始化" style="ellipse;whiteSpace=wrap;html=1;fontFamily=Helvetica;fontSize=11;fontColor=default;labelBackgroundColor=default;" parent="1" vertex="1">
          <mxGeometry x="120" y="-3160" width="120" height="80" as="geometry" />
        </mxCell>
        <mxCell id="0b5SVSkG3EDfwwchwPbA-64" value="关闭" style="edgeStyle=orthogonalEdgeStyle;rounded=0;orthogonalLoop=1;jettySize=auto;html=1;exitX=1;exitY=0.5;exitDx=0;exitDy=0;entryX=0.5;entryY=1;entryDx=0;entryDy=0;strokeColor=default;align=center;verticalAlign=middle;fontFamily=Helvetica;fontSize=11;fontColor=default;labelBackgroundColor=default;endArrow=classic;curved=1;" parent="1" source="0b5SVSkG3EDfwwchwPbA-51" target="0b5SVSkG3EDfwwchwPbA-56" edge="1">
          <mxGeometry relative="1" as="geometry" />
        </mxCell>
        <mxCell id="0b5SVSkG3EDfwwchwPbA-65" style="edgeStyle=orthogonalEdgeStyle;rounded=0;orthogonalLoop=1;jettySize=auto;html=1;exitX=1;exitY=1;exitDx=0;exitDy=0;entryX=1;entryY=1;entryDx=0;entryDy=0;strokeColor=default;align=center;verticalAlign=middle;fontFamily=Helvetica;fontSize=11;fontColor=default;labelBackgroundColor=default;endArrow=classic;" parent="1" source="0b5SVSkG3EDfwwchwPbA-51" target="0b5SVSkG3EDfwwchwPbA-56" edge="1">
          <mxGeometry relative="1" as="geometry" />
        </mxCell>
        <mxCell id="0b5SVSkG3EDfwwchwPbA-66" value="发送" style="edgeLabel;html=1;align=center;verticalAlign=middle;resizable=0;points=[];fontFamily=Helvetica;fontSize=11;fontColor=default;labelBackgroundColor=default;" parent="0b5SVSkG3EDfwwchwPbA-65" vertex="1" connectable="0">
          <mxGeometry x="-0.1058" relative="1" as="geometry">
            <mxPoint as="offset" />
          </mxGeometry>
        </mxCell>
        <mxCell id="0b5SVSkG3EDfwwchwPbA-68" style="edgeStyle=orthogonalEdgeStyle;rounded=0;orthogonalLoop=1;jettySize=auto;html=1;exitX=0.5;exitY=1;exitDx=0;exitDy=0;strokeColor=default;align=center;verticalAlign=middle;fontFamily=Helvetica;fontSize=11;fontColor=default;labelBackgroundColor=default;endArrow=classic;curved=1;entryX=0.5;entryY=0;entryDx=0;entryDy=0;" parent="1" source="0b5SVSkG3EDfwwchwPbA-51" target="0b5SVSkG3EDfwwchwPbA-72" edge="1">
          <mxGeometry relative="1" as="geometry">
            <Array as="points">
              <mxPoint x="350" y="-2922" />
              <mxPoint x="350" y="-2776" />
              <mxPoint x="390" y="-2776" />
              <mxPoint x="390" y="-2623" />
              <mxPoint x="670" y="-2623" />
            </Array>
          </mxGeometry>
        </mxCell>
        <mxCell id="0b5SVSkG3EDfwwchwPbA-70" value="读" style="edgeLabel;html=1;align=center;verticalAlign=middle;resizable=0;points=[];fontFamily=Helvetica;fontSize=11;fontColor=default;labelBackgroundColor=default;" parent="0b5SVSkG3EDfwwchwPbA-68" vertex="1" connectable="0">
          <mxGeometry x="0.1876" y="4" relative="1" as="geometry">
            <mxPoint as="offset" />
          </mxGeometry>
        </mxCell>
        <mxCell id="0b5SVSkG3EDfwwchwPbA-51" value="关闭" style="ellipse;whiteSpace=wrap;html=1;fontFamily=Helvetica;fontSize=11;fontColor=default;labelBackgroundColor=default;" parent="1" vertex="1">
          <mxGeometry x="120" y="-3002" width="120" height="80" as="geometry" />
        </mxCell>
        <mxCell id="0b5SVSkG3EDfwwchwPbA-71" style="edgeStyle=orthogonalEdgeStyle;rounded=0;orthogonalLoop=1;jettySize=auto;html=1;exitX=1;exitY=1;exitDx=0;exitDy=0;entryX=0;entryY=0.5;entryDx=0;entryDy=0;strokeColor=default;align=center;verticalAlign=middle;fontFamily=Helvetica;fontSize=11;fontColor=default;labelBackgroundColor=default;endArrow=classic;" parent="1" source="0b5SVSkG3EDfwwchwPbA-52" target="0b5SVSkG3EDfwwchwPbA-67" edge="1">
          <mxGeometry relative="1" as="geometry" />
        </mxCell>
        <mxCell id="0b5SVSkG3EDfwwchwPbA-52" value="正常" style="ellipse;whiteSpace=wrap;html=1;fontFamily=Helvetica;fontSize=11;fontColor=default;labelBackgroundColor=default;" parent="1" vertex="1">
          <mxGeometry x="120" y="-2830" width="120" height="80" as="geometry" />
        </mxCell>
        <mxCell id="0b5SVSkG3EDfwwchwPbA-56" value="panic" style="ellipse;whiteSpace=wrap;html=1;fontFamily=Helvetica;fontSize=11;fontColor=default;labelBackgroundColor=default;" parent="1" vertex="1">
          <mxGeometry x="600" y="-3130" width="120" height="80" as="geometry" />
        </mxCell>
        <mxCell id="0b5SVSkG3EDfwwchwPbA-57" value="死锁" style="ellipse;whiteSpace=wrap;html=1;fontFamily=Helvetica;fontSize=11;fontColor=default;labelBackgroundColor=default;" parent="1" vertex="1">
          <mxGeometry x="630" y="-2700" width="120" height="80" as="geometry" />
        </mxCell>
        <mxCell id="0b5SVSkG3EDfwwchwPbA-67" value="正常" style="ellipse;whiteSpace=wrap;html=1;fontFamily=Helvetica;fontSize=11;fontColor=default;labelBackgroundColor=default;" parent="1" vertex="1">
          <mxGeometry x="350" y="-2530" width="120" height="80" as="geometry" />
        </mxCell>
        <mxCell id="0b5SVSkG3EDfwwchwPbA-72" value="缓冲区为空则为0&lt;br&gt;否则正常" style="ellipse;whiteSpace=wrap;html=1;fontFamily=Helvetica;fontSize=11;fontColor=default;labelBackgroundColor=default;" parent="1" vertex="1">
          <mxGeometry x="610" y="-2570" width="120" height="80" as="geometry" />
        </mxCell>
        <mxCell id="0b5SVSkG3EDfwwchwPbA-76" style="edgeStyle=orthogonalEdgeStyle;rounded=0;orthogonalLoop=1;jettySize=auto;html=1;exitX=0;exitY=1;exitDx=0;exitDy=0;entryX=0.5;entryY=0;entryDx=0;entryDy=0;strokeColor=default;align=center;verticalAlign=middle;fontFamily=Helvetica;fontSize=11;fontColor=default;labelBackgroundColor=default;endArrow=classic;curved=1;" parent="1" source="0b5SVSkG3EDfwwchwPbA-73" target="0b5SVSkG3EDfwwchwPbA-75" edge="1">
          <mxGeometry relative="1" as="geometry" />
        </mxCell>
        <mxCell id="0b5SVSkG3EDfwwchwPbA-78" style="edgeStyle=orthogonalEdgeStyle;rounded=0;orthogonalLoop=1;jettySize=auto;html=1;exitX=1;exitY=1;exitDx=0;exitDy=0;entryX=0.5;entryY=0;entryDx=0;entryDy=0;strokeColor=default;align=center;verticalAlign=middle;fontFamily=Helvetica;fontSize=11;fontColor=default;labelBackgroundColor=default;endArrow=classic;curved=1;" parent="1" source="0b5SVSkG3EDfwwchwPbA-73" target="0b5SVSkG3EDfwwchwPbA-77" edge="1">
          <mxGeometry relative="1" as="geometry" />
        </mxCell>
        <mxCell id="0b5SVSkG3EDfwwchwPbA-73" value="线程安全" style="ellipse;whiteSpace=wrap;html=1;fontFamily=Helvetica;fontSize=11;fontColor=default;labelBackgroundColor=default;" parent="1" vertex="1">
          <mxGeometry x="-260" y="-2550" width="120" height="80" as="geometry" />
        </mxCell>
        <mxCell id="0b5SVSkG3EDfwwchwPbA-80" style="edgeStyle=orthogonalEdgeStyle;rounded=0;orthogonalLoop=1;jettySize=auto;html=1;exitX=0.5;exitY=1;exitDx=0;exitDy=0;strokeColor=default;align=center;verticalAlign=middle;fontFamily=Helvetica;fontSize=11;fontColor=default;labelBackgroundColor=default;endArrow=classic;curved=1;" parent="1" source="0b5SVSkG3EDfwwchwPbA-75" target="0b5SVSkG3EDfwwchwPbA-79" edge="1">
          <mxGeometry relative="1" as="geometry" />
        </mxCell>
        <mxCell id="0b5SVSkG3EDfwwchwPbA-75" value="为什么实现channel线程安全" style="ellipse;whiteSpace=wrap;html=1;fontFamily=Helvetica;fontSize=11;fontColor=default;labelBackgroundColor=default;" parent="1" vertex="1">
          <mxGeometry x="-425" y="-2310" width="170" height="80" as="geometry" />
        </mxCell>
        <mxCell id="0b5SVSkG3EDfwwchwPbA-83" style="edgeStyle=orthogonalEdgeStyle;rounded=0;orthogonalLoop=1;jettySize=auto;html=1;exitX=0.5;exitY=1;exitDx=0;exitDy=0;entryX=0.5;entryY=0;entryDx=0;entryDy=0;strokeColor=default;align=center;verticalAlign=middle;fontFamily=Helvetica;fontSize=11;fontColor=default;labelBackgroundColor=default;endArrow=classic;curved=1;" parent="1" source="0b5SVSkG3EDfwwchwPbA-77" target="0b5SVSkG3EDfwwchwPbA-81" edge="1">
          <mxGeometry relative="1" as="geometry" />
        </mxCell>
        <mxCell id="0b5SVSkG3EDfwwchwPbA-77" value="如何实现" style="ellipse;whiteSpace=wrap;html=1;fontFamily=Helvetica;fontSize=11;fontColor=default;labelBackgroundColor=default;" parent="1" vertex="1">
          <mxGeometry x="-50" y="-2300" width="120" height="80" as="geometry" />
        </mxCell>
        <mxCell id="0b5SVSkG3EDfwwchwPbA-79" value="协程通过channel通信&lt;br&gt;保证数据一致性" style="ellipse;whiteSpace=wrap;html=1;fontFamily=Helvetica;fontSize=11;fontColor=default;labelBackgroundColor=default;" parent="1" vertex="1">
          <mxGeometry x="-400" y="-2120" width="120" height="80" as="geometry" />
        </mxCell>
        <mxCell id="0b5SVSkG3EDfwwchwPbA-81" value="一个互斥锁保证读写安全&lt;br&gt;buf字段元素入队出队先拿锁" style="ellipse;whiteSpace=wrap;html=1;fontFamily=Helvetica;fontSize=11;fontColor=default;labelBackgroundColor=default;" parent="1" vertex="1">
          <mxGeometry x="-110" y="-2090" width="240" height="100" as="geometry" />
        </mxCell>
        <mxCell id="0b5SVSkG3EDfwwchwPbA-88" style="edgeStyle=orthogonalEdgeStyle;rounded=0;orthogonalLoop=1;jettySize=auto;html=1;exitX=0;exitY=0.5;exitDx=0;exitDy=0;entryX=0.5;entryY=1;entryDx=0;entryDy=0;strokeColor=default;align=center;verticalAlign=middle;fontFamily=Helvetica;fontSize=11;fontColor=default;labelBackgroundColor=default;endArrow=classic;curved=1;" parent="1" source="0b5SVSkG3EDfwwchwPbA-84" target="0b5SVSkG3EDfwwchwPbA-86" edge="1">
          <mxGeometry relative="1" as="geometry" />
        </mxCell>
        <mxCell id="0b5SVSkG3EDfwwchwPbA-89" style="edgeStyle=orthogonalEdgeStyle;rounded=0;orthogonalLoop=1;jettySize=auto;html=1;exitX=1;exitY=0.5;exitDx=0;exitDy=0;entryX=0.5;entryY=1;entryDx=0;entryDy=0;strokeColor=default;align=center;verticalAlign=middle;fontFamily=Helvetica;fontSize=11;fontColor=default;labelBackgroundColor=default;endArrow=classic;curved=1;" parent="1" source="0b5SVSkG3EDfwwchwPbA-84" target="0b5SVSkG3EDfwwchwPbA-87" edge="1">
          <mxGeometry relative="1" as="geometry" />
        </mxCell>
        <mxCell id="0b5SVSkG3EDfwwchwPbA-84" value="并发模型" style="ellipse;whiteSpace=wrap;html=1;fontFamily=Helvetica;fontSize=11;fontColor=default;labelBackgroundColor=default;" parent="1" vertex="1">
          <mxGeometry x="-1405" y="-3410" width="120" height="80" as="geometry" />
        </mxCell>
        <mxCell id="0b5SVSkG3EDfwwchwPbA-86" value="共享内存" style="ellipse;whiteSpace=wrap;html=1;fontFamily=Helvetica;fontSize=11;fontColor=default;labelBackgroundColor=default;" parent="1" vertex="1">
          <mxGeometry x="-1520" y="-3770" width="120" height="80" as="geometry" />
        </mxCell>
        <mxCell id="0b5SVSkG3EDfwwchwPbA-92" style="edgeStyle=orthogonalEdgeStyle;rounded=0;orthogonalLoop=1;jettySize=auto;html=1;exitX=0;exitY=0;exitDx=0;exitDy=0;entryX=0.5;entryY=1;entryDx=0;entryDy=0;strokeColor=default;align=center;verticalAlign=middle;fontFamily=Helvetica;fontSize=11;fontColor=default;labelBackgroundColor=default;endArrow=classic;curved=1;" parent="1" source="0b5SVSkG3EDfwwchwPbA-87" target="0b5SVSkG3EDfwwchwPbA-90" edge="1">
          <mxGeometry relative="1" as="geometry" />
        </mxCell>
        <mxCell id="0b5SVSkG3EDfwwchwPbA-93" style="edgeStyle=orthogonalEdgeStyle;rounded=0;orthogonalLoop=1;jettySize=auto;html=1;exitX=1;exitY=0;exitDx=0;exitDy=0;entryX=0.5;entryY=1;entryDx=0;entryDy=0;strokeColor=default;align=center;verticalAlign=middle;fontFamily=Helvetica;fontSize=11;fontColor=default;labelBackgroundColor=default;endArrow=classic;curved=1;" parent="1" source="0b5SVSkG3EDfwwchwPbA-87" target="0b5SVSkG3EDfwwchwPbA-91" edge="1">
          <mxGeometry relative="1" as="geometry" />
        </mxCell>
        <mxCell id="0b5SVSkG3EDfwwchwPbA-87" value="通信（CSP）&lt;br&gt;实现信息发送者和消费者解耦" style="ellipse;whiteSpace=wrap;html=1;fontFamily=Helvetica;fontSize=11;fontColor=default;labelBackgroundColor=default;" parent="1" vertex="1">
          <mxGeometry x="-1210" y="-3780" width="120" height="80" as="geometry" />
        </mxCell>
        <mxCell id="0b5SVSkG3EDfwwchwPbA-90" value="优点：解耦" style="ellipse;whiteSpace=wrap;html=1;fontFamily=Helvetica;fontSize=11;fontColor=default;labelBackgroundColor=default;" parent="1" vertex="1">
          <mxGeometry x="-1320" y="-3950" width="120" height="80" as="geometry" />
        </mxCell>
        <mxCell id="0b5SVSkG3EDfwwchwPbA-96" style="edgeStyle=orthogonalEdgeStyle;rounded=0;orthogonalLoop=1;jettySize=auto;html=1;exitX=0;exitY=0;exitDx=0;exitDy=0;entryX=0.5;entryY=1;entryDx=0;entryDy=0;strokeColor=default;align=center;verticalAlign=middle;fontFamily=Helvetica;fontSize=11;fontColor=default;labelBackgroundColor=default;endArrow=classic;curved=1;" parent="1" source="0b5SVSkG3EDfwwchwPbA-91" target="0b5SVSkG3EDfwwchwPbA-94" edge="1">
          <mxGeometry relative="1" as="geometry" />
        </mxCell>
        <mxCell id="0b5SVSkG3EDfwwchwPbA-97" style="edgeStyle=orthogonalEdgeStyle;rounded=0;orthogonalLoop=1;jettySize=auto;html=1;exitX=1;exitY=0;exitDx=0;exitDy=0;entryX=0.5;entryY=1;entryDx=0;entryDy=0;strokeColor=default;align=center;verticalAlign=middle;fontFamily=Helvetica;fontSize=11;fontColor=default;labelBackgroundColor=default;endArrow=classic;curved=1;" parent="1" source="0b5SVSkG3EDfwwchwPbA-91" target="0b5SVSkG3EDfwwchwPbA-95" edge="1">
          <mxGeometry relative="1" as="geometry" />
        </mxCell>
        <mxCell id="0b5SVSkG3EDfwwchwPbA-91" value="缺点：死锁" style="ellipse;whiteSpace=wrap;html=1;fontFamily=Helvetica;fontSize=11;fontColor=default;labelBackgroundColor=default;" parent="1" vertex="1">
          <mxGeometry x="-1090" y="-3960" width="120" height="80" as="geometry" />
        </mxCell>
        <mxCell id="0b5SVSkG3EDfwwchwPbA-94" value="单协程永久阻塞" style="ellipse;whiteSpace=wrap;html=1;fontFamily=Helvetica;fontSize=11;fontColor=default;labelBackgroundColor=default;" parent="1" vertex="1">
          <mxGeometry x="-1235" y="-4180" width="120" height="80" as="geometry" />
        </mxCell>
        <mxCell id="0b5SVSkG3EDfwwchwPbA-102" style="edgeStyle=orthogonalEdgeStyle;rounded=0;orthogonalLoop=1;jettySize=auto;html=1;exitX=0.5;exitY=0;exitDx=0;exitDy=0;entryX=0.5;entryY=1;entryDx=0;entryDy=0;strokeColor=default;align=center;verticalAlign=middle;fontFamily=Helvetica;fontSize=11;fontColor=default;labelBackgroundColor=default;endArrow=classic;curved=1;" parent="1" source="0b5SVSkG3EDfwwchwPbA-94" target="0b5SVSkG3EDfwwchwPbA-99" edge="1">
          <mxGeometry relative="1" as="geometry" />
        </mxCell>
        <mxCell id="0b5SVSkG3EDfwwchwPbA-103" style="edgeStyle=orthogonalEdgeStyle;rounded=0;orthogonalLoop=1;jettySize=auto;html=1;exitX=1;exitY=0.5;exitDx=0;exitDy=0;entryX=0.5;entryY=1;entryDx=0;entryDy=0;strokeColor=default;align=center;verticalAlign=middle;fontFamily=Helvetica;fontSize=11;fontColor=default;labelBackgroundColor=default;endArrow=classic;curved=1;" parent="1" source="0b5SVSkG3EDfwwchwPbA-95" target="0b5SVSkG3EDfwwchwPbA-100" edge="1">
          <mxGeometry relative="1" as="geometry" />
        </mxCell>
        <mxCell id="0b5SVSkG3EDfwwchwPbA-95" value="多协程并发死锁" style="ellipse;whiteSpace=wrap;html=1;fontFamily=Helvetica;fontSize=11;fontColor=default;labelBackgroundColor=default;" parent="1" vertex="1">
          <mxGeometry x="-947" y="-4240" width="120" height="80" as="geometry" />
        </mxCell>
        <mxCell id="0b5SVSkG3EDfwwchwPbA-98" value="无缓冲只写只读" style="ellipse;whiteSpace=wrap;html=1;fontFamily=Helvetica;fontSize=11;fontColor=default;labelBackgroundColor=default;" parent="1" vertex="1">
          <mxGeometry x="-1600" y="-4560" width="120" height="80" as="geometry" />
        </mxCell>
        <mxCell id="0b5SVSkG3EDfwwchwPbA-99" value="缓冲channel写过量，空读" style="ellipse;whiteSpace=wrap;html=1;fontFamily=Helvetica;fontSize=11;fontColor=default;labelBackgroundColor=default;" parent="1" vertex="1">
          <mxGeometry x="-1310" y="-4550" width="120" height="80" as="geometry" />
        </mxCell>
        <mxCell id="0b5SVSkG3EDfwwchwPbA-100" value="多协程互相等待：&lt;br&gt;两个协程两channel&lt;br&gt;顺序反" style="ellipse;whiteSpace=wrap;html=1;fontFamily=Helvetica;fontSize=11;fontColor=default;labelBackgroundColor=default;" parent="1" vertex="1">
          <mxGeometry x="-795" y="-4520" width="120" height="80" as="geometry" />
        </mxCell>
        <mxCell id="0b5SVSkG3EDfwwchwPbA-101" style="edgeStyle=orthogonalEdgeStyle;rounded=0;orthogonalLoop=1;jettySize=auto;html=1;exitX=0;exitY=0.5;exitDx=0;exitDy=0;entryX=0.565;entryY=1.015;entryDx=0;entryDy=0;entryPerimeter=0;strokeColor=default;align=center;verticalAlign=middle;fontFamily=Helvetica;fontSize=11;fontColor=default;labelBackgroundColor=default;endArrow=classic;curved=1;" parent="1" source="0b5SVSkG3EDfwwchwPbA-94" target="0b5SVSkG3EDfwwchwPbA-98" edge="1">
          <mxGeometry relative="1" as="geometry" />
        </mxCell>
        <mxCell id="0b5SVSkG3EDfwwchwPbA-107" style="edgeStyle=orthogonalEdgeStyle;rounded=0;orthogonalLoop=1;jettySize=auto;html=1;exitX=0;exitY=0;exitDx=0;exitDy=0;entryX=0.5;entryY=1;entryDx=0;entryDy=0;strokeColor=default;align=center;verticalAlign=middle;fontFamily=Helvetica;fontSize=11;fontColor=default;labelBackgroundColor=default;endArrow=classic;curved=1;" parent="1" source="0b5SVSkG3EDfwwchwPbA-104" target="0b5SVSkG3EDfwwchwPbA-106" edge="1">
          <mxGeometry relative="1" as="geometry" />
        </mxCell>
        <mxCell id="0b5SVSkG3EDfwwchwPbA-104" value="atomic包&lt;br&gt;可以在不创建临界区和互斥量完成并发安全值操作替换&lt;br&gt;支持 int int32 64 uint 32 64 uintptr" style="ellipse;whiteSpace=wrap;html=1;fontFamily=Helvetica;fontSize=11;fontColor=default;labelBackgroundColor=default;" parent="1" vertex="1">
          <mxGeometry x="-920" y="-1180" width="320" height="80" as="geometry" />
        </mxCell>
        <mxCell id="0b5SVSkG3EDfwwchwPbA-106" value="作用：对某个变量并发安全的修改 通过cpu指令直接实现" style="ellipse;whiteSpace=wrap;html=1;fontFamily=Helvetica;fontSize=11;fontColor=default;labelBackgroundColor=default;" parent="1" vertex="1">
          <mxGeometry x="-1050" y="-1340" width="120" height="80" as="geometry" />
        </mxCell>
        <mxCell id="0b5SVSkG3EDfwwchwPbA-110" style="edgeStyle=orthogonalEdgeStyle;rounded=0;orthogonalLoop=1;jettySize=auto;html=1;exitX=0.5;exitY=1;exitDx=0;exitDy=0;strokeColor=default;align=center;verticalAlign=middle;fontFamily=Helvetica;fontSize=11;fontColor=default;labelBackgroundColor=default;endArrow=classic;curved=1;" parent="1" source="0b5SVSkG3EDfwwchwPbA-108" target="0b5SVSkG3EDfwwchwPbA-109" edge="1">
          <mxGeometry relative="1" as="geometry">
            <Array as="points">
              <mxPoint x="-3800" y="-2630" />
              <mxPoint x="-3800" y="-2375" />
              <mxPoint x="-3790" y="-2375" />
            </Array>
          </mxGeometry>
        </mxCell>
        <mxCell id="n5Kpe19GkXCC9ou7wVjn-8" style="edgeStyle=orthogonalEdgeStyle;rounded=0;orthogonalLoop=1;jettySize=auto;html=1;exitX=1;exitY=1;exitDx=0;exitDy=0;curved=1;" parent="1" source="0b5SVSkG3EDfwwchwPbA-108" target="n5Kpe19GkXCC9ou7wVjn-7" edge="1">
          <mxGeometry relative="1" as="geometry">
            <Array as="points">
              <mxPoint x="-3230" y="-2645" />
            </Array>
          </mxGeometry>
        </mxCell>
        <mxCell id="n5Kpe19GkXCC9ou7wVjn-86" style="edgeStyle=orthogonalEdgeStyle;rounded=0;orthogonalLoop=1;jettySize=auto;html=1;exitX=0;exitY=0;exitDx=0;exitDy=0;entryX=0.5;entryY=0;entryDx=0;entryDy=0;curved=1;" parent="1" source="0b5SVSkG3EDfwwchwPbA-108" target="n5Kpe19GkXCC9ou7wVjn-85" edge="1">
          <mxGeometry relative="1" as="geometry" />
        </mxCell>
        <mxCell id="n5Kpe19GkXCC9ou7wVjn-94" style="edgeStyle=orthogonalEdgeStyle;rounded=0;orthogonalLoop=1;jettySize=auto;html=1;exitX=1;exitY=0.5;exitDx=0;exitDy=0;curved=1;" parent="1" source="0b5SVSkG3EDfwwchwPbA-108" target="n5Kpe19GkXCC9ou7wVjn-93" edge="1">
          <mxGeometry relative="1" as="geometry" />
        </mxCell>
        <mxCell id="0b5SVSkG3EDfwwchwPbA-108" value="goroutine&lt;br&gt;支持高并发基础，用户态线程，runtime管理&lt;br&gt;数量无限制" style="ellipse;whiteSpace=wrap;html=1;fontFamily=Helvetica;fontSize=11;fontColor=default;labelBackgroundColor=default;" parent="1" vertex="1">
          <mxGeometry x="-3901" y="-2730" width="180" height="100" as="geometry" />
        </mxCell>
        <mxCell id="0b5SVSkG3EDfwwchwPbA-113" style="edgeStyle=orthogonalEdgeStyle;rounded=0;orthogonalLoop=1;jettySize=auto;html=1;exitX=0;exitY=0.5;exitDx=0;exitDy=0;entryX=0.5;entryY=0;entryDx=0;entryDy=0;strokeColor=default;align=center;verticalAlign=middle;fontFamily=Helvetica;fontSize=11;fontColor=default;labelBackgroundColor=default;endArrow=classic;curved=1;" parent="1" source="0b5SVSkG3EDfwwchwPbA-109" target="0b5SVSkG3EDfwwchwPbA-111" edge="1">
          <mxGeometry relative="1" as="geometry" />
        </mxCell>
        <mxCell id="0b5SVSkG3EDfwwchwPbA-109" value="状态" style="ellipse;whiteSpace=wrap;html=1;fontFamily=Helvetica;fontSize=11;fontColor=default;labelBackgroundColor=default;" parent="1" vertex="1">
          <mxGeometry x="-3850" y="-2120" width="120" height="80" as="geometry" />
        </mxCell>
        <mxCell id="0b5SVSkG3EDfwwchwPbA-114" style="edgeStyle=orthogonalEdgeStyle;rounded=0;orthogonalLoop=1;jettySize=auto;html=1;exitX=1;exitY=0.5;exitDx=0;exitDy=0;entryX=0;entryY=0.5;entryDx=0;entryDy=0;strokeColor=default;align=center;verticalAlign=middle;fontFamily=Helvetica;fontSize=11;fontColor=default;labelBackgroundColor=default;endArrow=classic;" parent="1" source="0b5SVSkG3EDfwwchwPbA-111" target="0b5SVSkG3EDfwwchwPbA-112" edge="1">
          <mxGeometry relative="1" as="geometry" />
        </mxCell>
        <mxCell id="0b5SVSkG3EDfwwchwPbA-111" value="空闲中&lt;br&gt;Gidle&lt;br&gt;刚创建，未初始化" style="ellipse;whiteSpace=wrap;html=1;fontFamily=Helvetica;fontSize=11;fontColor=default;labelBackgroundColor=default;" parent="1" vertex="1">
          <mxGeometry x="-4310" y="-1960" width="120" height="80" as="geometry" />
        </mxCell>
        <mxCell id="0b5SVSkG3EDfwwchwPbA-116" style="edgeStyle=orthogonalEdgeStyle;rounded=0;orthogonalLoop=1;jettySize=auto;html=1;exitX=1;exitY=0.5;exitDx=0;exitDy=0;entryX=0;entryY=0.5;entryDx=0;entryDy=0;strokeColor=default;align=center;verticalAlign=middle;fontFamily=Helvetica;fontSize=11;fontColor=default;labelBackgroundColor=default;endArrow=classic;" parent="1" source="0b5SVSkG3EDfwwchwPbA-112" target="0b5SVSkG3EDfwwchwPbA-115" edge="1">
          <mxGeometry relative="1" as="geometry" />
        </mxCell>
        <mxCell id="0b5SVSkG3EDfwwchwPbA-112" value="待运行&lt;br&gt;Grunnable&lt;br&gt;在运行队列中，等待M获取" style="ellipse;whiteSpace=wrap;html=1;fontFamily=Helvetica;fontSize=11;fontColor=default;labelBackgroundColor=default;" parent="1" vertex="1">
          <mxGeometry x="-4060" y="-1960" width="140" height="80" as="geometry" />
        </mxCell>
        <mxCell id="0b5SVSkG3EDfwwchwPbA-120" style="edgeStyle=orthogonalEdgeStyle;rounded=0;orthogonalLoop=1;jettySize=auto;html=1;exitX=1;exitY=0.5;exitDx=0;exitDy=0;strokeColor=default;align=center;verticalAlign=middle;fontFamily=Helvetica;fontSize=11;fontColor=default;labelBackgroundColor=default;endArrow=classic;" parent="1" source="0b5SVSkG3EDfwwchwPbA-115" target="0b5SVSkG3EDfwwchwPbA-119" edge="1">
          <mxGeometry relative="1" as="geometry" />
        </mxCell>
        <mxCell id="0b5SVSkG3EDfwwchwPbA-123" style="edgeStyle=orthogonalEdgeStyle;rounded=0;orthogonalLoop=1;jettySize=auto;html=1;exitX=0;exitY=1;exitDx=0;exitDy=0;entryX=0.5;entryY=0;entryDx=0;entryDy=0;strokeColor=default;align=center;verticalAlign=middle;fontFamily=Helvetica;fontSize=11;fontColor=default;labelBackgroundColor=default;endArrow=classic;curved=1;" parent="1" source="0b5SVSkG3EDfwwchwPbA-115" target="0b5SVSkG3EDfwwchwPbA-118" edge="1">
          <mxGeometry relative="1" as="geometry" />
        </mxCell>
        <mxCell id="0b5SVSkG3EDfwwchwPbA-124" value="被锁，channel阻塞" style="edgeLabel;html=1;align=center;verticalAlign=middle;resizable=0;points=[];fontFamily=Helvetica;fontSize=11;fontColor=default;labelBackgroundColor=default;" parent="0b5SVSkG3EDfwwchwPbA-123" vertex="1" connectable="0">
          <mxGeometry x="0.0947" relative="1" as="geometry">
            <mxPoint as="offset" />
          </mxGeometry>
        </mxCell>
        <mxCell id="0b5SVSkG3EDfwwchwPbA-125" style="edgeStyle=orthogonalEdgeStyle;rounded=0;orthogonalLoop=1;jettySize=auto;html=1;exitX=0.5;exitY=1;exitDx=0;exitDy=0;entryX=0;entryY=0;entryDx=0;entryDy=0;strokeColor=default;align=center;verticalAlign=middle;fontFamily=Helvetica;fontSize=11;fontColor=default;labelBackgroundColor=default;endArrow=classic;curved=1;" parent="1" source="0b5SVSkG3EDfwwchwPbA-115" target="0b5SVSkG3EDfwwchwPbA-117" edge="1">
          <mxGeometry relative="1" as="geometry" />
        </mxCell>
        <mxCell id="0b5SVSkG3EDfwwchwPbA-126" value="切换到内核态" style="edgeLabel;html=1;align=center;verticalAlign=middle;resizable=0;points=[];fontFamily=Helvetica;fontSize=11;fontColor=default;labelBackgroundColor=default;" parent="0b5SVSkG3EDfwwchwPbA-125" vertex="1" connectable="0">
          <mxGeometry x="0.0663" y="-3" relative="1" as="geometry">
            <mxPoint as="offset" />
          </mxGeometry>
        </mxCell>
        <mxCell id="0b5SVSkG3EDfwwchwPbA-115" value="运行中&lt;br&gt;Grunning&lt;br&gt;M正在运行G，此时M有一个P" style="ellipse;whiteSpace=wrap;html=1;fontFamily=Helvetica;fontSize=11;fontColor=default;labelBackgroundColor=default;" parent="1" vertex="1">
          <mxGeometry x="-3860" y="-1960" width="210" height="80" as="geometry" />
        </mxCell>
        <mxCell id="0b5SVSkG3EDfwwchwPbA-127" style="edgeStyle=orthogonalEdgeStyle;rounded=0;orthogonalLoop=1;jettySize=auto;html=1;exitX=0.5;exitY=0;exitDx=0;exitDy=0;entryX=1;entryY=1;entryDx=0;entryDy=0;strokeColor=default;align=center;verticalAlign=middle;fontFamily=Helvetica;fontSize=11;fontColor=default;labelBackgroundColor=default;endArrow=classic;curved=1;" parent="1" source="0b5SVSkG3EDfwwchwPbA-117" target="0b5SVSkG3EDfwwchwPbA-115" edge="1">
          <mxGeometry relative="1" as="geometry">
            <Array as="points">
              <mxPoint x="-3531" y="-1892" />
            </Array>
          </mxGeometry>
        </mxCell>
        <mxCell id="0b5SVSkG3EDfwwchwPbA-128" value="切换到用户态" style="edgeLabel;html=1;align=center;verticalAlign=middle;resizable=0;points=[];fontFamily=Helvetica;fontSize=11;fontColor=default;labelBackgroundColor=default;" parent="0b5SVSkG3EDfwwchwPbA-127" vertex="1" connectable="0">
          <mxGeometry x="-0.2952" y="27" relative="1" as="geometry">
            <mxPoint as="offset" />
          </mxGeometry>
        </mxCell>
        <mxCell id="0b5SVSkG3EDfwwchwPbA-117" value="系统调用中&lt;br&gt;Gsyscall&lt;br&gt;M正在G发起的系统调用，此时M不拥有P" style="ellipse;whiteSpace=wrap;html=1;fontFamily=Helvetica;fontSize=11;fontColor=default;labelBackgroundColor=default;" parent="1" vertex="1">
          <mxGeometry x="-3661" y="-1730" width="260" height="80" as="geometry" />
        </mxCell>
        <mxCell id="0b5SVSkG3EDfwwchwPbA-129" style="edgeStyle=orthogonalEdgeStyle;rounded=0;orthogonalLoop=1;jettySize=auto;html=1;exitX=0;exitY=0;exitDx=0;exitDy=0;entryX=0;entryY=1;entryDx=0;entryDy=0;strokeColor=default;align=center;verticalAlign=middle;fontFamily=Helvetica;fontSize=11;fontColor=default;labelBackgroundColor=default;endArrow=classic;curved=1;" parent="1" source="0b5SVSkG3EDfwwchwPbA-118" target="0b5SVSkG3EDfwwchwPbA-112" edge="1">
          <mxGeometry relative="1" as="geometry" />
        </mxCell>
        <mxCell id="0b5SVSkG3EDfwwchwPbA-130" value="结束锁或者channel的阻塞" style="edgeLabel;html=1;align=center;verticalAlign=middle;resizable=0;points=[];fontFamily=Helvetica;fontSize=11;fontColor=default;labelBackgroundColor=default;" parent="0b5SVSkG3EDfwwchwPbA-129" vertex="1" connectable="0">
          <mxGeometry x="0.068" y="-1" relative="1" as="geometry">
            <mxPoint as="offset" />
          </mxGeometry>
        </mxCell>
        <mxCell id="0b5SVSkG3EDfwwchwPbA-118" value="等待中&lt;br&gt;Gwaiting&lt;br&gt;G在等待某条件完成，此时G不在运行队列也不在运行" style="ellipse;whiteSpace=wrap;html=1;fontFamily=Helvetica;fontSize=11;fontColor=default;labelBackgroundColor=default;" parent="1" vertex="1">
          <mxGeometry x="-4180" y="-1700" width="320" height="80" as="geometry" />
        </mxCell>
        <mxCell id="0b5SVSkG3EDfwwchwPbA-121" style="edgeStyle=orthogonalEdgeStyle;rounded=0;orthogonalLoop=1;jettySize=auto;html=1;exitX=0.5;exitY=0;exitDx=0;exitDy=0;entryX=1;entryY=0.5;entryDx=0;entryDy=0;strokeColor=default;align=center;verticalAlign=middle;fontFamily=Helvetica;fontSize=11;fontColor=default;labelBackgroundColor=default;endArrow=classic;curved=1;" parent="1" source="0b5SVSkG3EDfwwchwPbA-119" target="0b5SVSkG3EDfwwchwPbA-109" edge="1">
          <mxGeometry relative="1" as="geometry" />
        </mxCell>
        <mxCell id="0b5SVSkG3EDfwwchwPbA-119" value="已终止&lt;br&gt;Gdead" style="ellipse;whiteSpace=wrap;html=1;fontFamily=Helvetica;fontSize=11;fontColor=default;labelBackgroundColor=default;" parent="1" vertex="1">
          <mxGeometry x="-3550" y="-1960" width="120" height="80" as="geometry" />
        </mxCell>
        <mxCell id="0b5SVSkG3EDfwwchwPbA-122" value="栈复制中&lt;br&gt;Gcopystack&lt;br&gt;G在获取一个新的栈空间并把原来内容复制过去&lt;br&gt;用于防GC扫描" style="ellipse;whiteSpace=wrap;html=1;fontFamily=Helvetica;fontSize=11;fontColor=default;labelBackgroundColor=default;" parent="1" vertex="1">
          <mxGeometry x="-3930" y="-1590" width="301" height="80" as="geometry" />
        </mxCell>
        <mxCell id="n5Kpe19GkXCC9ou7wVjn-2" style="edgeStyle=orthogonalEdgeStyle;rounded=0;orthogonalLoop=1;jettySize=auto;html=1;exitX=0.5;exitY=1;exitDx=0;exitDy=0;entryX=0.5;entryY=0;entryDx=0;entryDy=0;curved=1;" parent="1" source="n5Kpe19GkXCC9ou7wVjn-1" target="0b5SVSkG3EDfwwchwPbA-108" edge="1">
          <mxGeometry relative="1" as="geometry" />
        </mxCell>
        <mxCell id="n5Kpe19GkXCC9ou7wVjn-20" style="edgeStyle=orthogonalEdgeStyle;rounded=0;orthogonalLoop=1;jettySize=auto;html=1;exitX=0;exitY=0.5;exitDx=0;exitDy=0;curved=1;" parent="1" source="n5Kpe19GkXCC9ou7wVjn-1" target="n5Kpe19GkXCC9ou7wVjn-3" edge="1">
          <mxGeometry relative="1" as="geometry" />
        </mxCell>
        <mxCell id="n5Kpe19GkXCC9ou7wVjn-21" style="edgeStyle=orthogonalEdgeStyle;rounded=0;orthogonalLoop=1;jettySize=auto;html=1;exitX=1;exitY=0.5;exitDx=0;exitDy=0;entryX=0.5;entryY=0;entryDx=0;entryDy=0;curved=1;" parent="1" source="n5Kpe19GkXCC9ou7wVjn-1" target="n5Kpe19GkXCC9ou7wVjn-4" edge="1">
          <mxGeometry relative="1" as="geometry" />
        </mxCell>
        <mxCell id="n5Kpe19GkXCC9ou7wVjn-23" style="edgeStyle=orthogonalEdgeStyle;rounded=0;orthogonalLoop=1;jettySize=auto;html=1;exitX=0.5;exitY=0;exitDx=0;exitDy=0;entryX=0.5;entryY=1;entryDx=0;entryDy=0;curved=1;" parent="1" source="n5Kpe19GkXCC9ou7wVjn-1" target="n5Kpe19GkXCC9ou7wVjn-22" edge="1">
          <mxGeometry relative="1" as="geometry" />
        </mxCell>
        <mxCell id="n5Kpe19GkXCC9ou7wVjn-1" value="GMP组件:&lt;br&gt;G M P Sched" style="ellipse;whiteSpace=wrap;html=1;" parent="1" vertex="1">
          <mxGeometry x="-3880" y="-3060" width="120" height="80" as="geometry" />
        </mxCell>
        <mxCell id="n5Kpe19GkXCC9ou7wVjn-10" style="edgeStyle=orthogonalEdgeStyle;rounded=0;orthogonalLoop=1;jettySize=auto;html=1;exitX=0;exitY=0.5;exitDx=0;exitDy=0;curved=1;" parent="1" source="n5Kpe19GkXCC9ou7wVjn-3" target="n5Kpe19GkXCC9ou7wVjn-9" edge="1">
          <mxGeometry relative="1" as="geometry" />
        </mxCell>
        <mxCell id="n5Kpe19GkXCC9ou7wVjn-3" value="M:内核态线程" style="ellipse;whiteSpace=wrap;html=1;" parent="1" vertex="1">
          <mxGeometry x="-4668" y="-2750" width="120" height="80" as="geometry" />
        </mxCell>
        <mxCell id="n5Kpe19GkXCC9ou7wVjn-6" style="edgeStyle=orthogonalEdgeStyle;rounded=0;orthogonalLoop=1;jettySize=auto;html=1;exitX=1;exitY=0;exitDx=0;exitDy=0;entryX=0;entryY=0.5;entryDx=0;entryDy=0;curved=1;" parent="1" source="n5Kpe19GkXCC9ou7wVjn-4" target="n5Kpe19GkXCC9ou7wVjn-5" edge="1">
          <mxGeometry relative="1" as="geometry" />
        </mxCell>
        <mxCell id="n5Kpe19GkXCC9ou7wVjn-4" value="P：虚拟处理器" style="ellipse;whiteSpace=wrap;html=1;" parent="1" vertex="1">
          <mxGeometry x="-2969" y="-2740" width="150" height="80" as="geometry" />
        </mxCell>
        <mxCell id="n5Kpe19GkXCC9ou7wVjn-5" value="GMP中定义：&lt;br&gt;M执行G所需的资源，只有与M绑定时，P中的G才能被运行起来，P数量默认为CPU核心数" style="ellipse;whiteSpace=wrap;html=1;" parent="1" vertex="1">
          <mxGeometry x="-2280" y="-2550" width="150" height="90" as="geometry" />
        </mxCell>
        <mxCell id="n5Kpe19GkXCC9ou7wVjn-7" value="在GMP中定义：&lt;br&gt;存储执行栈信息，G状态，G任务函数。数量无限制，一个G初始栈大小2-4k。G退出时被放回P中复用" style="ellipse;whiteSpace=wrap;html=1;" parent="1" vertex="1">
          <mxGeometry x="-3290" y="-2190" width="220" height="90" as="geometry" />
        </mxCell>
        <mxCell id="n5Kpe19GkXCC9ou7wVjn-12" style="edgeStyle=orthogonalEdgeStyle;rounded=0;orthogonalLoop=1;jettySize=auto;html=1;exitX=0.5;exitY=1;exitDx=0;exitDy=0;curved=1;" parent="1" source="n5Kpe19GkXCC9ou7wVjn-9" target="n5Kpe19GkXCC9ou7wVjn-11" edge="1">
          <mxGeometry relative="1" as="geometry" />
        </mxCell>
        <mxCell id="n5Kpe19GkXCC9ou7wVjn-9" value="在GMP中定义：&lt;br&gt;对操作系统线程的封装，绑定有效的P后进入调度循环" style="ellipse;whiteSpace=wrap;html=1;" parent="1" vertex="1">
          <mxGeometry x="-5160" y="-2490" width="120" height="80" as="geometry" />
        </mxCell>
        <mxCell id="n5Kpe19GkXCC9ou7wVjn-16" style="edgeStyle=orthogonalEdgeStyle;rounded=0;orthogonalLoop=1;jettySize=auto;html=1;exitX=0;exitY=0.5;exitDx=0;exitDy=0;entryX=0.5;entryY=0;entryDx=0;entryDy=0;" parent="1" source="n5Kpe19GkXCC9ou7wVjn-11" target="n5Kpe19GkXCC9ou7wVjn-13" edge="1">
          <mxGeometry relative="1" as="geometry" />
        </mxCell>
        <mxCell id="n5Kpe19GkXCC9ou7wVjn-11" value="调度循环" style="ellipse;whiteSpace=wrap;html=1;" parent="1" vertex="1">
          <mxGeometry x="-5160" y="-2250" width="120" height="80" as="geometry" />
        </mxCell>
        <mxCell id="n5Kpe19GkXCC9ou7wVjn-17" style="edgeStyle=orthogonalEdgeStyle;rounded=0;orthogonalLoop=1;jettySize=auto;html=1;exitX=1;exitY=0.5;exitDx=0;exitDy=0;entryX=0;entryY=0.5;entryDx=0;entryDy=0;" parent="1" source="n5Kpe19GkXCC9ou7wVjn-13" target="n5Kpe19GkXCC9ou7wVjn-14" edge="1">
          <mxGeometry relative="1" as="geometry" />
        </mxCell>
        <mxCell id="n5Kpe19GkXCC9ou7wVjn-13" value="从P的本地队列和全局队列获取G" style="ellipse;whiteSpace=wrap;html=1;" parent="1" vertex="1">
          <mxGeometry x="-5410" y="-2090" width="120" height="80" as="geometry" />
        </mxCell>
        <mxCell id="n5Kpe19GkXCC9ou7wVjn-18" style="edgeStyle=orthogonalEdgeStyle;rounded=0;orthogonalLoop=1;jettySize=auto;html=1;exitX=1;exitY=0.5;exitDx=0;exitDy=0;entryX=0;entryY=0.5;entryDx=0;entryDy=0;" parent="1" source="n5Kpe19GkXCC9ou7wVjn-14" target="n5Kpe19GkXCC9ou7wVjn-15" edge="1">
          <mxGeometry relative="1" as="geometry" />
        </mxCell>
        <mxCell id="n5Kpe19GkXCC9ou7wVjn-14" value="切换到G的执行栈，执行G的函数" style="ellipse;whiteSpace=wrap;html=1;" parent="1" vertex="1">
          <mxGeometry x="-5160" y="-2090" width="120" height="80" as="geometry" />
        </mxCell>
        <mxCell id="n5Kpe19GkXCC9ou7wVjn-19" style="edgeStyle=orthogonalEdgeStyle;rounded=0;orthogonalLoop=1;jettySize=auto;html=1;exitX=0.5;exitY=0;exitDx=0;exitDy=0;entryX=1;entryY=0.5;entryDx=0;entryDy=0;" parent="1" source="n5Kpe19GkXCC9ou7wVjn-15" target="n5Kpe19GkXCC9ou7wVjn-11" edge="1">
          <mxGeometry relative="1" as="geometry" />
        </mxCell>
        <mxCell id="n5Kpe19GkXCC9ou7wVjn-15" value="调用goexit做清理工作，回到M" style="ellipse;whiteSpace=wrap;html=1;" parent="1" vertex="1">
          <mxGeometry x="-4880" y="-2090" width="120" height="80" as="geometry" />
        </mxCell>
        <mxCell id="n5Kpe19GkXCC9ou7wVjn-22" value="Sched&lt;br&gt;调度器结构&lt;br&gt;维护M和G的全局队列" style="ellipse;whiteSpace=wrap;html=1;" parent="1" vertex="1">
          <mxGeometry x="-2990" y="-3220" width="120" height="80" as="geometry" />
        </mxCell>
        <mxCell id="n5Kpe19GkXCC9ou7wVjn-25" style="edgeStyle=orthogonalEdgeStyle;rounded=0;orthogonalLoop=1;jettySize=auto;html=1;exitX=0.5;exitY=1;exitDx=0;exitDy=0;curved=1;" parent="1" source="n5Kpe19GkXCC9ou7wVjn-24" target="n5Kpe19GkXCC9ou7wVjn-1" edge="1">
          <mxGeometry relative="1" as="geometry" />
        </mxCell>
        <mxCell id="n5Kpe19GkXCC9ou7wVjn-27" style="edgeStyle=orthogonalEdgeStyle;rounded=0;orthogonalLoop=1;jettySize=auto;html=1;exitX=0.5;exitY=0;exitDx=0;exitDy=0;entryX=0.5;entryY=1;entryDx=0;entryDy=0;curved=1;" parent="1" source="n5Kpe19GkXCC9ou7wVjn-24" target="n5Kpe19GkXCC9ou7wVjn-26" edge="1">
          <mxGeometry relative="1" as="geometry" />
        </mxCell>
        <mxCell id="n5Kpe19GkXCC9ou7wVjn-24" value="GMP" style="ellipse;whiteSpace=wrap;html=1;" parent="1" vertex="1">
          <mxGeometry x="-3890" y="-3580" width="120" height="80" as="geometry" />
        </mxCell>
        <mxCell id="n5Kpe19GkXCC9ou7wVjn-35" style="edgeStyle=orthogonalEdgeStyle;rounded=0;orthogonalLoop=1;jettySize=auto;html=1;exitX=0;exitY=0.5;exitDx=0;exitDy=0;entryX=0.5;entryY=1;entryDx=0;entryDy=0;" parent="1" source="n5Kpe19GkXCC9ou7wVjn-26" target="n5Kpe19GkXCC9ou7wVjn-28" edge="1">
          <mxGeometry relative="1" as="geometry" />
        </mxCell>
        <mxCell id="n5Kpe19GkXCC9ou7wVjn-37" style="edgeStyle=orthogonalEdgeStyle;rounded=0;orthogonalLoop=1;jettySize=auto;html=1;exitX=0.5;exitY=0;exitDx=0;exitDy=0;entryX=0.5;entryY=1;entryDx=0;entryDy=0;curved=1;" parent="1" source="n5Kpe19GkXCC9ou7wVjn-26" target="n5Kpe19GkXCC9ou7wVjn-36" edge="1">
          <mxGeometry relative="1" as="geometry" />
        </mxCell>
        <mxCell id="n5Kpe19GkXCC9ou7wVjn-61" style="edgeStyle=orthogonalEdgeStyle;rounded=0;orthogonalLoop=1;jettySize=auto;html=1;exitX=1;exitY=0.5;exitDx=0;exitDy=0;entryX=0;entryY=0.5;entryDx=0;entryDy=0;" parent="1" source="n5Kpe19GkXCC9ou7wVjn-26" target="n5Kpe19GkXCC9ou7wVjn-60" edge="1">
          <mxGeometry relative="1" as="geometry" />
        </mxCell>
        <mxCell id="n5Kpe19GkXCC9ou7wVjn-26" value="调度原理" style="ellipse;whiteSpace=wrap;html=1;" parent="1" vertex="1">
          <mxGeometry x="-3901" y="-3860" width="120" height="80" as="geometry" />
        </mxCell>
        <mxCell id="n5Kpe19GkXCC9ou7wVjn-32" style="edgeStyle=orthogonalEdgeStyle;rounded=0;orthogonalLoop=1;jettySize=auto;html=1;exitX=0;exitY=0.5;exitDx=0;exitDy=0;entryX=0.5;entryY=1;entryDx=0;entryDy=0;" parent="1" source="n5Kpe19GkXCC9ou7wVjn-28" target="n5Kpe19GkXCC9ou7wVjn-29" edge="1">
          <mxGeometry relative="1" as="geometry" />
        </mxCell>
        <mxCell id="n5Kpe19GkXCC9ou7wVjn-33" style="edgeStyle=orthogonalEdgeStyle;rounded=0;orthogonalLoop=1;jettySize=auto;html=1;exitX=0.5;exitY=0;exitDx=0;exitDy=0;entryX=0.5;entryY=1;entryDx=0;entryDy=0;" parent="1" source="n5Kpe19GkXCC9ou7wVjn-28" target="n5Kpe19GkXCC9ou7wVjn-30" edge="1">
          <mxGeometry relative="1" as="geometry" />
        </mxCell>
        <mxCell id="n5Kpe19GkXCC9ou7wVjn-34" style="edgeStyle=orthogonalEdgeStyle;rounded=0;orthogonalLoop=1;jettySize=auto;html=1;exitX=1;exitY=0.5;exitDx=0;exitDy=0;entryX=0.5;entryY=1;entryDx=0;entryDy=0;" parent="1" source="n5Kpe19GkXCC9ou7wVjn-28" target="n5Kpe19GkXCC9ou7wVjn-31" edge="1">
          <mxGeometry relative="1" as="geometry" />
        </mxCell>
        <mxCell id="n5Kpe19GkXCC9ou7wVjn-28" value="设计思想" style="ellipse;whiteSpace=wrap;html=1;" parent="1" vertex="1">
          <mxGeometry x="-4520" y="-4130" width="120" height="80" as="geometry" />
        </mxCell>
        <mxCell id="n5Kpe19GkXCC9ou7wVjn-29" value="线程复用&lt;br&gt;work stealing handoff" style="ellipse;whiteSpace=wrap;html=1;" parent="1" vertex="1">
          <mxGeometry x="-4780" y="-4310" width="120" height="80" as="geometry" />
        </mxCell>
        <mxCell id="n5Kpe19GkXCC9ou7wVjn-30" value="多核cpu并行" style="ellipse;whiteSpace=wrap;html=1;" parent="1" vertex="1">
          <mxGeometry x="-4520" y="-4310" width="120" height="80" as="geometry" />
        </mxCell>
        <mxCell id="n5Kpe19GkXCC9ou7wVjn-31" value="抢占调度" style="ellipse;whiteSpace=wrap;html=1;" parent="1" vertex="1">
          <mxGeometry x="-4280" y="-4310" width="120" height="80" as="geometry" />
        </mxCell>
        <mxCell id="n5Kpe19GkXCC9ou7wVjn-47" style="edgeStyle=orthogonalEdgeStyle;rounded=0;orthogonalLoop=1;jettySize=auto;html=1;exitX=0;exitY=0.5;exitDx=0;exitDy=0;entryX=0.5;entryY=1;entryDx=0;entryDy=0;" parent="1" source="n5Kpe19GkXCC9ou7wVjn-36" target="n5Kpe19GkXCC9ou7wVjn-38" edge="1">
          <mxGeometry relative="1" as="geometry" />
        </mxCell>
        <mxCell id="n5Kpe19GkXCC9ou7wVjn-50" style="edgeStyle=orthogonalEdgeStyle;rounded=0;orthogonalLoop=1;jettySize=auto;html=1;exitX=0.5;exitY=0;exitDx=0;exitDy=0;entryX=0.5;entryY=1;entryDx=0;entryDy=0;" parent="1" source="n5Kpe19GkXCC9ou7wVjn-36" target="n5Kpe19GkXCC9ou7wVjn-48" edge="1">
          <mxGeometry relative="1" as="geometry" />
        </mxCell>
        <mxCell id="n5Kpe19GkXCC9ou7wVjn-53" style="edgeStyle=orthogonalEdgeStyle;rounded=0;orthogonalLoop=1;jettySize=auto;html=1;exitX=1;exitY=0.5;exitDx=0;exitDy=0;entryX=0.5;entryY=1;entryDx=0;entryDy=0;" parent="1" source="n5Kpe19GkXCC9ou7wVjn-36" target="n5Kpe19GkXCC9ou7wVjn-52" edge="1">
          <mxGeometry relative="1" as="geometry" />
        </mxCell>
        <mxCell id="n5Kpe19GkXCC9ou7wVjn-36" value="调度对象" style="ellipse;whiteSpace=wrap;html=1;" parent="1" vertex="1">
          <mxGeometry x="-3210" y="-4132" width="120" height="80" as="geometry" />
        </mxCell>
        <mxCell id="n5Kpe19GkXCC9ou7wVjn-43" style="edgeStyle=orthogonalEdgeStyle;rounded=0;orthogonalLoop=1;jettySize=auto;html=1;exitX=0;exitY=0.5;exitDx=0;exitDy=0;entryX=0.5;entryY=1;entryDx=0;entryDy=0;" parent="1" source="n5Kpe19GkXCC9ou7wVjn-38" target="n5Kpe19GkXCC9ou7wVjn-39" edge="1">
          <mxGeometry relative="1" as="geometry" />
        </mxCell>
        <mxCell id="n5Kpe19GkXCC9ou7wVjn-44" style="edgeStyle=orthogonalEdgeStyle;rounded=0;orthogonalLoop=1;jettySize=auto;html=1;exitX=0;exitY=0;exitDx=0;exitDy=0;entryX=0.5;entryY=1;entryDx=0;entryDy=0;" parent="1" source="n5Kpe19GkXCC9ou7wVjn-38" target="n5Kpe19GkXCC9ou7wVjn-40" edge="1">
          <mxGeometry relative="1" as="geometry" />
        </mxCell>
        <mxCell id="n5Kpe19GkXCC9ou7wVjn-45" style="edgeStyle=orthogonalEdgeStyle;rounded=0;orthogonalLoop=1;jettySize=auto;html=1;exitX=0.5;exitY=0;exitDx=0;exitDy=0;entryX=0.5;entryY=1;entryDx=0;entryDy=0;" parent="1" source="n5Kpe19GkXCC9ou7wVjn-38" target="n5Kpe19GkXCC9ou7wVjn-41" edge="1">
          <mxGeometry relative="1" as="geometry" />
        </mxCell>
        <mxCell id="n5Kpe19GkXCC9ou7wVjn-46" style="edgeStyle=orthogonalEdgeStyle;rounded=0;orthogonalLoop=1;jettySize=auto;html=1;exitX=1;exitY=0.5;exitDx=0;exitDy=0;entryX=0.5;entryY=1;entryDx=0;entryDy=0;" parent="1" source="n5Kpe19GkXCC9ou7wVjn-38" target="n5Kpe19GkXCC9ou7wVjn-42" edge="1">
          <mxGeometry relative="1" as="geometry" />
        </mxCell>
        <mxCell id="n5Kpe19GkXCC9ou7wVjn-38" value="G来源" style="ellipse;whiteSpace=wrap;html=1;" parent="1" vertex="1">
          <mxGeometry x="-3850" y="-4310" width="120" height="80" as="geometry" />
        </mxCell>
        <mxCell id="n5Kpe19GkXCC9ou7wVjn-39" value="p的runnext&lt;br&gt;被优先调度执行的G" style="ellipse;whiteSpace=wrap;html=1;" parent="1" vertex="1">
          <mxGeometry x="-4180" y="-4530" width="120" height="80" as="geometry" />
        </mxCell>
        <mxCell id="n5Kpe19GkXCC9ou7wVjn-40" value="p的本地队列&lt;br&gt;最多256个G" style="ellipse;whiteSpace=wrap;html=1;" parent="1" vertex="1">
          <mxGeometry x="-3960" y="-4530" width="120" height="80" as="geometry" />
        </mxCell>
        <mxCell id="n5Kpe19GkXCC9ou7wVjn-41" value="全局G队列&lt;br&gt;链表 无数量限制" style="ellipse;whiteSpace=wrap;html=1;" parent="1" vertex="1">
          <mxGeometry x="-3750" y="-4530" width="120" height="80" as="geometry" />
        </mxCell>
        <mxCell id="n5Kpe19GkXCC9ou7wVjn-42" value="网络轮询器&lt;br&gt;存放网络调用被阻塞的G" style="ellipse;whiteSpace=wrap;html=1;" parent="1" vertex="1">
          <mxGeometry x="-3520" y="-4530" width="120" height="80" as="geometry" />
        </mxCell>
        <mxCell id="n5Kpe19GkXCC9ou7wVjn-51" style="edgeStyle=orthogonalEdgeStyle;rounded=0;orthogonalLoop=1;jettySize=auto;html=1;exitX=0.5;exitY=0;exitDx=0;exitDy=0;entryX=0.5;entryY=1;entryDx=0;entryDy=0;" parent="1" source="n5Kpe19GkXCC9ou7wVjn-48" target="n5Kpe19GkXCC9ou7wVjn-49" edge="1">
          <mxGeometry relative="1" as="geometry" />
        </mxCell>
        <mxCell id="n5Kpe19GkXCC9ou7wVjn-48" value="P来源" style="ellipse;whiteSpace=wrap;html=1;" parent="1" vertex="1">
          <mxGeometry x="-3190" y="-4310" width="120" height="80" as="geometry" />
        </mxCell>
        <mxCell id="n5Kpe19GkXCC9ou7wVjn-49" value="全局P队列" style="ellipse;whiteSpace=wrap;html=1;" parent="1" vertex="1">
          <mxGeometry x="-3180" y="-4500" width="120" height="80" as="geometry" />
        </mxCell>
        <mxCell id="n5Kpe19GkXCC9ou7wVjn-57" style="edgeStyle=orthogonalEdgeStyle;rounded=0;orthogonalLoop=1;jettySize=auto;html=1;exitX=0;exitY=0.5;exitDx=0;exitDy=0;" parent="1" source="n5Kpe19GkXCC9ou7wVjn-52" target="n5Kpe19GkXCC9ou7wVjn-54" edge="1">
          <mxGeometry relative="1" as="geometry" />
        </mxCell>
        <mxCell id="n5Kpe19GkXCC9ou7wVjn-52" value="M来源" style="ellipse;whiteSpace=wrap;html=1;" parent="1" vertex="1">
          <mxGeometry x="-2700" y="-4310" width="120" height="80" as="geometry" />
        </mxCell>
        <mxCell id="n5Kpe19GkXCC9ou7wVjn-54" value="休眠线程队列&lt;br&gt;未绑定P，时间长了被GC回收" style="ellipse;whiteSpace=wrap;html=1;" parent="1" vertex="1">
          <mxGeometry x="-2880" y="-4510" width="120" height="80" as="geometry" />
        </mxCell>
        <mxCell id="n5Kpe19GkXCC9ou7wVjn-55" value="运行线程" style="ellipse;whiteSpace=wrap;html=1;" parent="1" vertex="1">
          <mxGeometry x="-2670" y="-4520" width="120" height="80" as="geometry" />
        </mxCell>
        <mxCell id="n5Kpe19GkXCC9ou7wVjn-56" value="自旋线程&lt;br&gt;当前M绑定的P中无G&lt;br&gt;所以自旋" style="ellipse;whiteSpace=wrap;html=1;" parent="1" vertex="1">
          <mxGeometry x="-2460" y="-4520" width="120" height="80" as="geometry" />
        </mxCell>
        <mxCell id="n5Kpe19GkXCC9ou7wVjn-58" style="edgeStyle=orthogonalEdgeStyle;rounded=0;orthogonalLoop=1;jettySize=auto;html=1;exitX=0.5;exitY=0;exitDx=0;exitDy=0;entryX=0.446;entryY=1.056;entryDx=0;entryDy=0;entryPerimeter=0;" parent="1" source="n5Kpe19GkXCC9ou7wVjn-52" target="n5Kpe19GkXCC9ou7wVjn-55" edge="1">
          <mxGeometry relative="1" as="geometry" />
        </mxCell>
        <mxCell id="n5Kpe19GkXCC9ou7wVjn-59" style="edgeStyle=orthogonalEdgeStyle;rounded=0;orthogonalLoop=1;jettySize=auto;html=1;exitX=1;exitY=0.5;exitDx=0;exitDy=0;entryX=0.434;entryY=1.044;entryDx=0;entryDy=0;entryPerimeter=0;" parent="1" source="n5Kpe19GkXCC9ou7wVjn-52" target="n5Kpe19GkXCC9ou7wVjn-56" edge="1">
          <mxGeometry relative="1" as="geometry" />
        </mxCell>
        <mxCell id="n5Kpe19GkXCC9ou7wVjn-63" style="edgeStyle=orthogonalEdgeStyle;rounded=0;orthogonalLoop=1;jettySize=auto;html=1;exitX=1;exitY=0.5;exitDx=0;exitDy=0;" parent="1" source="n5Kpe19GkXCC9ou7wVjn-60" target="n5Kpe19GkXCC9ou7wVjn-62" edge="1">
          <mxGeometry relative="1" as="geometry" />
        </mxCell>
        <mxCell id="n5Kpe19GkXCC9ou7wVjn-60" value="调度循环具体流程" style="ellipse;whiteSpace=wrap;html=1;" parent="1" vertex="1">
          <mxGeometry x="-3320" y="-3730" width="120" height="80" as="geometry" />
        </mxCell>
        <mxCell id="n5Kpe19GkXCC9ou7wVjn-65" style="edgeStyle=orthogonalEdgeStyle;rounded=0;orthogonalLoop=1;jettySize=auto;html=1;exitX=1;exitY=0.5;exitDx=0;exitDy=0;" parent="1" source="n5Kpe19GkXCC9ou7wVjn-62" target="n5Kpe19GkXCC9ou7wVjn-64" edge="1">
          <mxGeometry relative="1" as="geometry" />
        </mxCell>
        <mxCell id="n5Kpe19GkXCC9ou7wVjn-76" style="edgeStyle=orthogonalEdgeStyle;rounded=0;orthogonalLoop=1;jettySize=auto;html=1;exitX=0.5;exitY=0;exitDx=0;exitDy=0;entryX=0;entryY=0.5;entryDx=0;entryDy=0;curved=1;" parent="1" source="n5Kpe19GkXCC9ou7wVjn-62" target="n5Kpe19GkXCC9ou7wVjn-75" edge="1">
          <mxGeometry relative="1" as="geometry" />
        </mxCell>
        <mxCell id="n5Kpe19GkXCC9ou7wVjn-62" value="1.创建 goroutine&lt;br&gt;gofuunc" style="ellipse;whiteSpace=wrap;html=1;" parent="1" vertex="1">
          <mxGeometry x="-3067" y="-3730" width="120" height="80" as="geometry" />
        </mxCell>
        <mxCell id="n5Kpe19GkXCC9ou7wVjn-67" style="edgeStyle=orthogonalEdgeStyle;rounded=0;orthogonalLoop=1;jettySize=auto;html=1;exitX=1;exitY=0.5;exitDx=0;exitDy=0;" parent="1" source="n5Kpe19GkXCC9ou7wVjn-64" target="n5Kpe19GkXCC9ou7wVjn-66" edge="1">
          <mxGeometry relative="1" as="geometry" />
        </mxCell>
        <mxCell id="n5Kpe19GkXCC9ou7wVjn-64" value="2.加入P本地队列" style="ellipse;whiteSpace=wrap;html=1;" parent="1" vertex="1">
          <mxGeometry x="-2775" y="-3730" width="120" height="80" as="geometry" />
        </mxCell>
        <mxCell id="n5Kpe19GkXCC9ou7wVjn-69" style="edgeStyle=orthogonalEdgeStyle;rounded=0;orthogonalLoop=1;jettySize=auto;html=1;exitX=1;exitY=0.5;exitDx=0;exitDy=0;" parent="1" source="n5Kpe19GkXCC9ou7wVjn-66" target="n5Kpe19GkXCC9ou7wVjn-68" edge="1">
          <mxGeometry relative="1" as="geometry" />
        </mxCell>
        <mxCell id="n5Kpe19GkXCC9ou7wVjn-79" style="edgeStyle=orthogonalEdgeStyle;rounded=0;orthogonalLoop=1;jettySize=auto;html=1;exitX=0.5;exitY=1;exitDx=0;exitDy=0;entryX=0;entryY=0.5;entryDx=0;entryDy=0;curved=1;" parent="1" source="n5Kpe19GkXCC9ou7wVjn-66" target="n5Kpe19GkXCC9ou7wVjn-78" edge="1">
          <mxGeometry relative="1" as="geometry" />
        </mxCell>
        <mxCell id="n5Kpe19GkXCC9ou7wVjn-66" value="3.M绑定P" style="ellipse;whiteSpace=wrap;html=1;" parent="1" vertex="1">
          <mxGeometry x="-2500" y="-3730" width="120" height="80" as="geometry" />
        </mxCell>
        <mxCell id="n5Kpe19GkXCC9ou7wVjn-72" style="edgeStyle=orthogonalEdgeStyle;rounded=0;orthogonalLoop=1;jettySize=auto;html=1;exitX=1;exitY=0.5;exitDx=0;exitDy=0;entryX=0;entryY=0.5;entryDx=0;entryDy=0;" parent="1" source="n5Kpe19GkXCC9ou7wVjn-68" target="n5Kpe19GkXCC9ou7wVjn-70" edge="1">
          <mxGeometry relative="1" as="geometry" />
        </mxCell>
        <mxCell id="n5Kpe19GkXCC9ou7wVjn-68" value="4.获取到G" style="ellipse;whiteSpace=wrap;html=1;" parent="1" vertex="1">
          <mxGeometry x="-2265" y="-3730" width="120" height="80" as="geometry" />
        </mxCell>
        <mxCell id="n5Kpe19GkXCC9ou7wVjn-73" style="edgeStyle=orthogonalEdgeStyle;rounded=0;orthogonalLoop=1;jettySize=auto;html=1;exitX=1;exitY=0.5;exitDx=0;exitDy=0;entryX=0;entryY=0.5;entryDx=0;entryDy=0;" parent="1" source="n5Kpe19GkXCC9ou7wVjn-70" target="n5Kpe19GkXCC9ou7wVjn-71" edge="1">
          <mxGeometry relative="1" as="geometry" />
        </mxCell>
        <mxCell id="n5Kpe19GkXCC9ou7wVjn-82" style="edgeStyle=orthogonalEdgeStyle;rounded=0;orthogonalLoop=1;jettySize=auto;html=1;exitX=0.5;exitY=1;exitDx=0;exitDy=0;" parent="1" source="n5Kpe19GkXCC9ou7wVjn-70" target="n5Kpe19GkXCC9ou7wVjn-81" edge="1">
          <mxGeometry relative="1" as="geometry" />
        </mxCell>
        <mxCell id="n5Kpe19GkXCC9ou7wVjn-70" value="5.执行G" style="ellipse;whiteSpace=wrap;html=1;" parent="1" vertex="1">
          <mxGeometry x="-2030" y="-3730" width="120" height="80" as="geometry" />
        </mxCell>
        <mxCell id="n5Kpe19GkXCC9ou7wVjn-74" style="edgeStyle=orthogonalEdgeStyle;rounded=0;orthogonalLoop=1;jettySize=auto;html=1;exitX=0.5;exitY=0;exitDx=0;exitDy=0;entryX=0.5;entryY=0;entryDx=0;entryDy=0;" parent="1" source="n5Kpe19GkXCC9ou7wVjn-71" target="n5Kpe19GkXCC9ou7wVjn-68" edge="1">
          <mxGeometry relative="1" as="geometry">
            <Array as="points">
              <mxPoint x="-1770" y="-3850" />
              <mxPoint x="-2205" y="-3850" />
            </Array>
          </mxGeometry>
        </mxCell>
        <mxCell id="n5Kpe19GkXCC9ou7wVjn-71" value="6.销毁G" style="ellipse;whiteSpace=wrap;html=1;" parent="1" vertex="1">
          <mxGeometry x="-1830" y="-3730" width="120" height="80" as="geometry" />
        </mxCell>
        <mxCell id="n5Kpe19GkXCC9ou7wVjn-77" style="edgeStyle=orthogonalEdgeStyle;rounded=0;orthogonalLoop=1;jettySize=auto;html=1;exitX=1;exitY=0.5;exitDx=0;exitDy=0;entryX=0;entryY=0.5;entryDx=0;entryDy=0;curved=1;" parent="1" source="n5Kpe19GkXCC9ou7wVjn-75" target="n5Kpe19GkXCC9ou7wVjn-66" edge="1">
          <mxGeometry relative="1" as="geometry" />
        </mxCell>
        <mxCell id="n5Kpe19GkXCC9ou7wVjn-75" value="加入P全局队列" style="ellipse;whiteSpace=wrap;html=1;" parent="1" vertex="1">
          <mxGeometry x="-2775" y="-3910" width="120" height="80" as="geometry" />
        </mxCell>
        <mxCell id="n5Kpe19GkXCC9ou7wVjn-80" style="edgeStyle=orthogonalEdgeStyle;rounded=0;orthogonalLoop=1;jettySize=auto;html=1;exitX=0;exitY=0;exitDx=0;exitDy=0;entryX=1;entryY=1;entryDx=0;entryDy=0;curved=1;" parent="1" source="n5Kpe19GkXCC9ou7wVjn-78" target="n5Kpe19GkXCC9ou7wVjn-66" edge="1">
          <mxGeometry relative="1" as="geometry" />
        </mxCell>
        <mxCell id="n5Kpe19GkXCC9ou7wVjn-78" value="获取不到G&lt;br&gt;自旋" style="ellipse;whiteSpace=wrap;html=1;" parent="1" vertex="1">
          <mxGeometry x="-2480" y="-3460" width="120" height="80" as="geometry" />
        </mxCell>
        <mxCell id="n5Kpe19GkXCC9ou7wVjn-84" style="edgeStyle=orthogonalEdgeStyle;rounded=0;orthogonalLoop=1;jettySize=auto;html=1;exitX=0;exitY=1;exitDx=0;exitDy=0;entryX=1;entryY=0.5;entryDx=0;entryDy=0;curved=1;" parent="1" source="n5Kpe19GkXCC9ou7wVjn-81" target="n5Kpe19GkXCC9ou7wVjn-83" edge="1">
          <mxGeometry relative="1" as="geometry" />
        </mxCell>
        <mxCell id="n5Kpe19GkXCC9ou7wVjn-81" value="阻塞或系统调用" style="ellipse;whiteSpace=wrap;html=1;" parent="1" vertex="1">
          <mxGeometry x="-2030" y="-3550" width="120" height="80" as="geometry" />
        </mxCell>
        <mxCell id="n5Kpe19GkXCC9ou7wVjn-83" value="休眠M队列&lt;br&gt;接管当前P剩余G&lt;br&gt;&lt;br&gt;当前G阻塞执行结束&lt;br&gt;等待下次调度" style="ellipse;whiteSpace=wrap;html=1;" parent="1" vertex="1">
          <mxGeometry x="-2180" y="-3320" width="130" height="80" as="geometry" />
        </mxCell>
        <mxCell id="n5Kpe19GkXCC9ou7wVjn-89" style="edgeStyle=orthogonalEdgeStyle;rounded=0;orthogonalLoop=1;jettySize=auto;html=1;exitX=0;exitY=0.5;exitDx=0;exitDy=0;entryX=0.5;entryY=0;entryDx=0;entryDy=0;curved=1;" parent="1" source="n5Kpe19GkXCC9ou7wVjn-85" target="n5Kpe19GkXCC9ou7wVjn-87" edge="1">
          <mxGeometry relative="1" as="geometry" />
        </mxCell>
        <mxCell id="n5Kpe19GkXCC9ou7wVjn-90" style="edgeStyle=orthogonalEdgeStyle;rounded=0;orthogonalLoop=1;jettySize=auto;html=1;exitX=0.5;exitY=1;exitDx=0;exitDy=0;entryX=0.5;entryY=0;entryDx=0;entryDy=0;curved=1;" parent="1" source="n5Kpe19GkXCC9ou7wVjn-85" target="n5Kpe19GkXCC9ou7wVjn-88" edge="1">
          <mxGeometry relative="1" as="geometry" />
        </mxCell>
        <mxCell id="n5Kpe19GkXCC9ou7wVjn-92" style="edgeStyle=orthogonalEdgeStyle;rounded=0;orthogonalLoop=1;jettySize=auto;html=1;exitX=1;exitY=0.5;exitDx=0;exitDy=0;entryX=0.5;entryY=0;entryDx=0;entryDy=0;curved=1;" parent="1" source="n5Kpe19GkXCC9ou7wVjn-85" target="n5Kpe19GkXCC9ou7wVjn-91" edge="1">
          <mxGeometry relative="1" as="geometry" />
        </mxCell>
        <mxCell id="n5Kpe19GkXCC9ou7wVjn-85" value="与线程的区别" style="ellipse;whiteSpace=wrap;html=1;" parent="1" vertex="1">
          <mxGeometry x="-4220" y="-2630" width="120" height="80" as="geometry" />
        </mxCell>
        <mxCell id="n5Kpe19GkXCC9ou7wVjn-87" value="内存占用：&lt;br&gt;G：2KB动态扩容&lt;br&gt;T：创建一个线程的栈内存消耗1MB" style="ellipse;whiteSpace=wrap;html=1;" parent="1" vertex="1">
          <mxGeometry x="-4710" y="-2470" width="220" height="80" as="geometry" />
        </mxCell>
        <mxCell id="n5Kpe19GkXCC9ou7wVjn-88" value="创建和销毁：&lt;br&gt;T要进行用户内核态切换消耗大" style="ellipse;whiteSpace=wrap;html=1;" parent="1" vertex="1">
          <mxGeometry x="-4220" y="-2450" width="120" height="80" as="geometry" />
        </mxCell>
        <mxCell id="n5Kpe19GkXCC9ou7wVjn-91" value="切换：&lt;br&gt;G：保存寄存器信息少&lt;br&gt;200ns左右&lt;br&gt;T：保存寄存器信息多&lt;br&gt;1000nm左右&lt;div&gt;&lt;br/&gt;&lt;/div&gt;" style="ellipse;whiteSpace=wrap;html=1;" parent="1" vertex="1">
          <mxGeometry x="-3990" y="-2460" width="120" height="80" as="geometry" />
        </mxCell>
        <mxCell id="n5Kpe19GkXCC9ou7wVjn-96" style="edgeStyle=orthogonalEdgeStyle;rounded=0;orthogonalLoop=1;jettySize=auto;html=1;exitX=1;exitY=0.5;exitDx=0;exitDy=0;curved=1;" parent="1" source="n5Kpe19GkXCC9ou7wVjn-93" target="n5Kpe19GkXCC9ou7wVjn-95" edge="1">
          <mxGeometry relative="1" as="geometry" />
        </mxCell>
        <mxCell id="n5Kpe19GkXCC9ou7wVjn-104" style="edgeStyle=orthogonalEdgeStyle;rounded=0;orthogonalLoop=1;jettySize=auto;html=1;exitX=1;exitY=1;exitDx=0;exitDy=0;curved=1;" parent="1" source="n5Kpe19GkXCC9ou7wVjn-93" target="n5Kpe19GkXCC9ou7wVjn-103" edge="1">
          <mxGeometry relative="1" as="geometry" />
        </mxCell>
        <mxCell id="n5Kpe19GkXCC9ou7wVjn-93" value="泄露：&lt;br&gt;goroutines 数量不断增加" style="ellipse;whiteSpace=wrap;html=1;" parent="1" vertex="1">
          <mxGeometry x="-3187" y="-2630" width="120" height="80" as="geometry" />
        </mxCell>
        <mxCell id="n5Kpe19GkXCC9ou7wVjn-100" style="edgeStyle=orthogonalEdgeStyle;rounded=0;orthogonalLoop=1;jettySize=auto;html=1;exitX=0;exitY=1;exitDx=0;exitDy=0;entryX=0;entryY=0.5;entryDx=0;entryDy=0;curved=1;" parent="1" source="n5Kpe19GkXCC9ou7wVjn-95" target="n5Kpe19GkXCC9ou7wVjn-97" edge="1">
          <mxGeometry relative="1" as="geometry" />
        </mxCell>
        <mxCell id="n5Kpe19GkXCC9ou7wVjn-101" style="edgeStyle=orthogonalEdgeStyle;rounded=0;orthogonalLoop=1;jettySize=auto;html=1;exitX=0.5;exitY=1;exitDx=0;exitDy=0;entryX=0;entryY=0.5;entryDx=0;entryDy=0;curved=1;" parent="1" source="n5Kpe19GkXCC9ou7wVjn-95" target="n5Kpe19GkXCC9ou7wVjn-98" edge="1">
          <mxGeometry relative="1" as="geometry" />
        </mxCell>
        <mxCell id="n5Kpe19GkXCC9ou7wVjn-102" style="edgeStyle=orthogonalEdgeStyle;rounded=0;orthogonalLoop=1;jettySize=auto;html=1;exitX=1;exitY=1;exitDx=0;exitDy=0;entryX=0;entryY=0.5;entryDx=0;entryDy=0;curved=1;" parent="1" source="n5Kpe19GkXCC9ou7wVjn-95" target="n5Kpe19GkXCC9ou7wVjn-99" edge="1">
          <mxGeometry relative="1" as="geometry" />
        </mxCell>
        <mxCell id="n5Kpe19GkXCC9ou7wVjn-95" value="原因" style="ellipse;whiteSpace=wrap;html=1;" parent="1" vertex="1">
          <mxGeometry x="-2830" y="-2460" width="120" height="80" as="geometry" />
        </mxCell>
        <mxCell id="n5Kpe19GkXCC9ou7wVjn-97" value="G中 channel/mutex阻塞" style="ellipse;whiteSpace=wrap;html=1;" parent="1" vertex="1">
          <mxGeometry x="-2890" y="-2280" width="120" height="80" as="geometry" />
        </mxCell>
        <mxCell id="n5Kpe19GkXCC9ou7wVjn-98" value="G中死循环" style="ellipse;whiteSpace=wrap;html=1;" parent="1" vertex="1">
          <mxGeometry x="-2680" y="-2230" width="120" height="80" as="geometry" />
        </mxCell>
        <mxCell id="n5Kpe19GkXCC9ou7wVjn-99" value="业务逻辑io阻塞" style="ellipse;whiteSpace=wrap;html=1;" parent="1" vertex="1">
          <mxGeometry x="-2590" y="-2320" width="120" height="80" as="geometry" />
        </mxCell>
        <mxCell id="n5Kpe19GkXCC9ou7wVjn-103" value="可以用PProf检测G的数量" style="ellipse;whiteSpace=wrap;html=1;" parent="1" vertex="1">
          <mxGeometry x="-3010" y="-2160" width="120" height="80" as="geometry" />
        </mxCell>
        <mxCell id="9TZOR45JbfqGNzEFKEyJ-3" style="edgeStyle=orthogonalEdgeStyle;rounded=0;orthogonalLoop=1;jettySize=auto;html=1;exitX=0;exitY=0.5;exitDx=0;exitDy=0;entryX=0.5;entryY=1;entryDx=0;entryDy=0;curved=1;" edge="1" parent="1" source="9TZOR45JbfqGNzEFKEyJ-1" target="9TZOR45JbfqGNzEFKEyJ-2">
          <mxGeometry relative="1" as="geometry" />
        </mxCell>
        <mxCell id="9TZOR45JbfqGNzEFKEyJ-11" style="edgeStyle=orthogonalEdgeStyle;rounded=0;orthogonalLoop=1;jettySize=auto;html=1;exitX=0.5;exitY=1;exitDx=0;exitDy=0;entryX=0.5;entryY=0;entryDx=0;entryDy=0;curved=1;" edge="1" parent="1" source="9TZOR45JbfqGNzEFKEyJ-1" target="9TZOR45JbfqGNzEFKEyJ-10">
          <mxGeometry relative="1" as="geometry" />
        </mxCell>
        <mxCell id="9TZOR45JbfqGNzEFKEyJ-52" style="edgeStyle=orthogonalEdgeStyle;rounded=0;orthogonalLoop=1;jettySize=auto;html=1;exitX=1;exitY=0.5;exitDx=0;exitDy=0;curved=1;" edge="1" parent="1" source="9TZOR45JbfqGNzEFKEyJ-1" target="9TZOR45JbfqGNzEFKEyJ-48">
          <mxGeometry relative="1" as="geometry" />
        </mxCell>
        <mxCell id="9TZOR45JbfqGNzEFKEyJ-68" style="edgeStyle=orthogonalEdgeStyle;rounded=0;orthogonalLoop=1;jettySize=auto;html=1;exitX=1;exitY=0;exitDx=0;exitDy=0;entryX=0.5;entryY=1;entryDx=0;entryDy=0;curved=1;" edge="1" parent="1" source="9TZOR45JbfqGNzEFKEyJ-1" target="9TZOR45JbfqGNzEFKEyJ-67">
          <mxGeometry relative="1" as="geometry" />
        </mxCell>
        <mxCell id="9TZOR45JbfqGNzEFKEyJ-1" value="内存模型（堆）" style="ellipse;whiteSpace=wrap;html=1;" vertex="1" parent="1">
          <mxGeometry x="-5435" y="-665" width="120" height="80" as="geometry" />
        </mxCell>
        <mxCell id="9TZOR45JbfqGNzEFKEyJ-5" style="edgeStyle=orthogonalEdgeStyle;rounded=0;orthogonalLoop=1;jettySize=auto;html=1;exitX=0;exitY=0.5;exitDx=0;exitDy=0;entryX=0.5;entryY=1;entryDx=0;entryDy=0;curved=1;" edge="1" parent="1" source="9TZOR45JbfqGNzEFKEyJ-2" target="9TZOR45JbfqGNzEFKEyJ-4">
          <mxGeometry relative="1" as="geometry" />
        </mxCell>
        <mxCell id="9TZOR45JbfqGNzEFKEyJ-7" style="edgeStyle=orthogonalEdgeStyle;rounded=0;orthogonalLoop=1;jettySize=auto;html=1;exitX=0.5;exitY=0;exitDx=0;exitDy=0;entryX=0.5;entryY=1;entryDx=0;entryDy=0;" edge="1" parent="1" source="9TZOR45JbfqGNzEFKEyJ-2" target="9TZOR45JbfqGNzEFKEyJ-6">
          <mxGeometry relative="1" as="geometry" />
        </mxCell>
        <mxCell id="9TZOR45JbfqGNzEFKEyJ-9" style="edgeStyle=orthogonalEdgeStyle;rounded=0;orthogonalLoop=1;jettySize=auto;html=1;exitX=1;exitY=0.5;exitDx=0;exitDy=0;entryX=0.5;entryY=1;entryDx=0;entryDy=0;curved=1;" edge="1" parent="1" source="9TZOR45JbfqGNzEFKEyJ-2" target="9TZOR45JbfqGNzEFKEyJ-8">
          <mxGeometry relative="1" as="geometry" />
        </mxCell>
        <mxCell id="9TZOR45JbfqGNzEFKEyJ-2" value="设计思想" style="ellipse;whiteSpace=wrap;html=1;" vertex="1" parent="1">
          <mxGeometry x="-5880" y="-750" width="120" height="80" as="geometry" />
        </mxCell>
        <mxCell id="9TZOR45JbfqGNzEFKEyJ-4" value="TCMalloc&lt;br&gt;每个线程维护独立内存池&lt;br&gt;内存池不足时向加锁向全局池申请" style="ellipse;whiteSpace=wrap;html=1;" vertex="1" parent="1">
          <mxGeometry x="-6490" y="-930" width="320" height="80" as="geometry" />
        </mxCell>
        <mxCell id="9TZOR45JbfqGNzEFKEyJ-6" value="多级管理" style="ellipse;whiteSpace=wrap;html=1;" vertex="1" parent="1">
          <mxGeometry x="-5930" y="-940" width="120" height="80" as="geometry" />
        </mxCell>
        <mxCell id="9TZOR45JbfqGNzEFKEyJ-8" value="回收时先放回预分配大块内存&lt;br&gt;内存闲置过多才还给系统" style="ellipse;whiteSpace=wrap;html=1;" vertex="1" parent="1">
          <mxGeometry x="-5650" y="-940" width="250" height="80" as="geometry" />
        </mxCell>
        <mxCell id="9TZOR45JbfqGNzEFKEyJ-16" style="edgeStyle=orthogonalEdgeStyle;rounded=0;orthogonalLoop=1;jettySize=auto;html=1;exitX=0;exitY=0.5;exitDx=0;exitDy=0;curved=1;" edge="1" parent="1" source="9TZOR45JbfqGNzEFKEyJ-10" target="9TZOR45JbfqGNzEFKEyJ-12">
          <mxGeometry relative="1" as="geometry" />
        </mxCell>
        <mxCell id="9TZOR45JbfqGNzEFKEyJ-17" style="edgeStyle=orthogonalEdgeStyle;rounded=0;orthogonalLoop=1;jettySize=auto;html=1;exitX=0;exitY=1;exitDx=0;exitDy=0;entryX=0.5;entryY=0;entryDx=0;entryDy=0;curved=1;" edge="1" parent="1" source="9TZOR45JbfqGNzEFKEyJ-10" target="9TZOR45JbfqGNzEFKEyJ-13">
          <mxGeometry relative="1" as="geometry" />
        </mxCell>
        <mxCell id="9TZOR45JbfqGNzEFKEyJ-18" style="edgeStyle=orthogonalEdgeStyle;rounded=0;orthogonalLoop=1;jettySize=auto;html=1;exitX=1;exitY=1;exitDx=0;exitDy=0;curved=1;" edge="1" parent="1" source="9TZOR45JbfqGNzEFKEyJ-15" target="9TZOR45JbfqGNzEFKEyJ-14">
          <mxGeometry relative="1" as="geometry" />
        </mxCell>
        <mxCell id="9TZOR45JbfqGNzEFKEyJ-19" style="edgeStyle=orthogonalEdgeStyle;rounded=0;orthogonalLoop=1;jettySize=auto;html=1;exitX=1;exitY=0.5;exitDx=0;exitDy=0;curved=1;" edge="1" parent="1" source="9TZOR45JbfqGNzEFKEyJ-10" target="9TZOR45JbfqGNzEFKEyJ-15">
          <mxGeometry relative="1" as="geometry" />
        </mxCell>
        <mxCell id="9TZOR45JbfqGNzEFKEyJ-10" value="组件" style="ellipse;whiteSpace=wrap;html=1;" vertex="1" parent="1">
          <mxGeometry x="-5435" y="-460" width="120" height="80" as="geometry" />
        </mxCell>
        <mxCell id="9TZOR45JbfqGNzEFKEyJ-12" value="mspan&lt;br&gt;内存管理基础单元&lt;br&gt;68种不同规格&lt;br&gt;8B-32KB" style="ellipse;whiteSpace=wrap;html=1;" vertex="1" parent="1">
          <mxGeometry x="-5890" y="-250" width="120" height="80" as="geometry" />
        </mxCell>
        <mxCell id="9TZOR45JbfqGNzEFKEyJ-25" style="edgeStyle=orthogonalEdgeStyle;rounded=0;orthogonalLoop=1;jettySize=auto;html=1;exitX=0.5;exitY=1;exitDx=0;exitDy=0;entryX=0.5;entryY=0;entryDx=0;entryDy=0;curved=1;" edge="1" parent="1" source="9TZOR45JbfqGNzEFKEyJ-13" target="9TZOR45JbfqGNzEFKEyJ-20">
          <mxGeometry relative="1" as="geometry" />
        </mxCell>
        <mxCell id="9TZOR45JbfqGNzEFKEyJ-13" value="mcache&lt;div&gt;线程缓存&lt;/div&gt;&lt;div&gt;存储多个 mspan&lt;/div&gt;&lt;div&gt;每个G绑定的P都有一个mcache字段&lt;/div&gt;" style="ellipse;whiteSpace=wrap;html=1;" vertex="1" parent="1">
          <mxGeometry x="-5515" y="-230" width="140" height="100" as="geometry" />
        </mxCell>
        <mxCell id="9TZOR45JbfqGNzEFKEyJ-33" style="edgeStyle=orthogonalEdgeStyle;rounded=0;orthogonalLoop=1;jettySize=auto;html=1;exitX=1;exitY=0.5;exitDx=0;exitDy=0;entryX=0;entryY=0.5;entryDx=0;entryDy=0;" edge="1" parent="1" source="9TZOR45JbfqGNzEFKEyJ-14" target="9TZOR45JbfqGNzEFKEyJ-26">
          <mxGeometry relative="1" as="geometry" />
        </mxCell>
        <mxCell id="9TZOR45JbfqGNzEFKEyJ-14" value="mcentral&lt;br&gt;包含在mheap内&lt;br&gt;管理全局span 供所有线程使用" style="ellipse;whiteSpace=wrap;html=1;" vertex="1" parent="1">
          <mxGeometry x="-4900" y="160" width="120" height="80" as="geometry" />
        </mxCell>
        <mxCell id="9TZOR45JbfqGNzEFKEyJ-35" style="edgeStyle=orthogonalEdgeStyle;rounded=0;orthogonalLoop=1;jettySize=auto;html=1;exitX=0;exitY=0.5;exitDx=0;exitDy=0;curved=1;" edge="1" parent="1" source="9TZOR45JbfqGNzEFKEyJ-15" target="9TZOR45JbfqGNzEFKEyJ-34">
          <mxGeometry relative="1" as="geometry" />
        </mxCell>
        <mxCell id="9TZOR45JbfqGNzEFKEyJ-37" style="edgeStyle=orthogonalEdgeStyle;rounded=0;orthogonalLoop=1;jettySize=auto;html=1;exitX=0.5;exitY=1;exitDx=0;exitDy=0;curved=1;" edge="1" parent="1" source="9TZOR45JbfqGNzEFKEyJ-15" target="9TZOR45JbfqGNzEFKEyJ-36">
          <mxGeometry relative="1" as="geometry" />
        </mxCell>
        <mxCell id="9TZOR45JbfqGNzEFKEyJ-15" value="mheap" style="ellipse;whiteSpace=wrap;html=1;" vertex="1" parent="1">
          <mxGeometry x="-5130" y="-180" width="120" height="80" as="geometry" />
        </mxCell>
        <mxCell id="9TZOR45JbfqGNzEFKEyJ-23" style="edgeStyle=orthogonalEdgeStyle;rounded=0;orthogonalLoop=1;jettySize=auto;html=1;exitX=0;exitY=0.5;exitDx=0;exitDy=0;entryX=0.5;entryY=0;entryDx=0;entryDy=0;curved=1;" edge="1" parent="1" source="9TZOR45JbfqGNzEFKEyJ-20" target="9TZOR45JbfqGNzEFKEyJ-21">
          <mxGeometry relative="1" as="geometry" />
        </mxCell>
        <mxCell id="9TZOR45JbfqGNzEFKEyJ-24" style="edgeStyle=orthogonalEdgeStyle;rounded=0;orthogonalLoop=1;jettySize=auto;html=1;exitX=1;exitY=0.5;exitDx=0;exitDy=0;curved=1;" edge="1" parent="1" source="9TZOR45JbfqGNzEFKEyJ-20" target="9TZOR45JbfqGNzEFKEyJ-22">
          <mxGeometry relative="1" as="geometry" />
        </mxCell>
        <mxCell id="9TZOR45JbfqGNzEFKEyJ-20" value="68种mspan各有两份&lt;br&gt;一份有指针&lt;br&gt;一份没指针" style="ellipse;whiteSpace=wrap;html=1;" vertex="1" parent="1">
          <mxGeometry x="-5730" y="20" width="120" height="80" as="geometry" />
        </mxCell>
        <mxCell id="9TZOR45JbfqGNzEFKEyJ-21" value="有指针" style="ellipse;whiteSpace=wrap;html=1;" vertex="1" parent="1">
          <mxGeometry x="-5860" y="190" width="120" height="80" as="geometry" />
        </mxCell>
        <mxCell id="9TZOR45JbfqGNzEFKEyJ-22" value="没指针" style="ellipse;whiteSpace=wrap;html=1;" vertex="1" parent="1">
          <mxGeometry x="-5610" y="190" width="120" height="80" as="geometry" />
        </mxCell>
        <mxCell id="9TZOR45JbfqGNzEFKEyJ-28" style="edgeStyle=orthogonalEdgeStyle;rounded=0;orthogonalLoop=1;jettySize=auto;html=1;exitX=1;exitY=0;exitDx=0;exitDy=0;entryX=0;entryY=0.5;entryDx=0;entryDy=0;curved=1;" edge="1" parent="1" source="9TZOR45JbfqGNzEFKEyJ-26" target="9TZOR45JbfqGNzEFKEyJ-27">
          <mxGeometry relative="1" as="geometry" />
        </mxCell>
        <mxCell id="9TZOR45JbfqGNzEFKEyJ-30" style="edgeStyle=orthogonalEdgeStyle;rounded=0;orthogonalLoop=1;jettySize=auto;html=1;exitX=1;exitY=0.5;exitDx=0;exitDy=0;entryX=0;entryY=0.5;entryDx=0;entryDy=0;curved=1;" edge="1" parent="1" source="9TZOR45JbfqGNzEFKEyJ-26" target="9TZOR45JbfqGNzEFKEyJ-29">
          <mxGeometry relative="1" as="geometry" />
        </mxCell>
        <mxCell id="9TZOR45JbfqGNzEFKEyJ-32" style="edgeStyle=orthogonalEdgeStyle;rounded=0;orthogonalLoop=1;jettySize=auto;html=1;exitX=1;exitY=1;exitDx=0;exitDy=0;entryX=0;entryY=0.5;entryDx=0;entryDy=0;curved=1;" edge="1" parent="1" source="9TZOR45JbfqGNzEFKEyJ-26" target="9TZOR45JbfqGNzEFKEyJ-31">
          <mxGeometry relative="1" as="geometry" />
        </mxCell>
        <mxCell id="9TZOR45JbfqGNzEFKEyJ-26" value="结构&lt;br&gt;每个mcentral&lt;br&gt;管理一类mspan&lt;br&gt;将有空闲空间和没空闲空间的分开管理" style="ellipse;whiteSpace=wrap;html=1;" vertex="1" parent="1">
          <mxGeometry x="-4640" y="160" width="270" height="80" as="geometry" />
        </mxCell>
        <mxCell id="9TZOR45JbfqGNzEFKEyJ-27" value="spanclass&lt;br&gt;当前规格大小" style="ellipse;whiteSpace=wrap;html=1;" vertex="1" parent="1">
          <mxGeometry x="-4235" y="70" width="120" height="80" as="geometry" />
        </mxCell>
        <mxCell id="9TZOR45JbfqGNzEFKEyJ-29" value="partial [2]spanSet&lt;br&gt;有空闲obj的mspan列表" style="ellipse;whiteSpace=wrap;html=1;" vertex="1" parent="1">
          <mxGeometry x="-4125" y="160" width="120" height="80" as="geometry" />
        </mxCell>
        <mxCell id="9TZOR45JbfqGNzEFKEyJ-31" value="full [2]spanSet&lt;br&gt;没有空闲obj的mspan列表" style="ellipse;whiteSpace=wrap;html=1;" vertex="1" parent="1">
          <mxGeometry x="-4225" y="284" width="120" height="80" as="geometry" />
        </mxCell>
        <mxCell id="9TZOR45JbfqGNzEFKEyJ-34" value="arenas&lt;br&gt;8kb*8kb大小 64MB 的一整块内存 全局唯一" style="ellipse;whiteSpace=wrap;html=1;" vertex="1" parent="1">
          <mxGeometry x="-5330" y="160" width="120" height="80" as="geometry" />
        </mxCell>
        <mxCell id="9TZOR45JbfqGNzEFKEyJ-47" style="edgeStyle=orthogonalEdgeStyle;rounded=0;orthogonalLoop=1;jettySize=auto;html=1;exitX=0;exitY=0.5;exitDx=0;exitDy=0;entryX=0.5;entryY=0;entryDx=0;entryDy=0;" edge="1" parent="1" source="9TZOR45JbfqGNzEFKEyJ-36" target="9TZOR45JbfqGNzEFKEyJ-38">
          <mxGeometry relative="1" as="geometry" />
        </mxCell>
        <mxCell id="9TZOR45JbfqGNzEFKEyJ-36" value="分配流程：&lt;br&gt;依次经过&lt;br&gt;mcache&lt;br&gt;mcentral&lt;br&gt;没合适大小的内存&lt;br&gt;向mheap申请&lt;br&gt;划分成特定规格列表&lt;br&gt;添加到对应mcentral中" style="ellipse;whiteSpace=wrap;html=1;" vertex="1" parent="1">
          <mxGeometry x="-5140" y="304" width="210" height="146" as="geometry" />
        </mxCell>
        <mxCell id="9TZOR45JbfqGNzEFKEyJ-43" style="edgeStyle=orthogonalEdgeStyle;rounded=0;orthogonalLoop=1;jettySize=auto;html=1;exitX=1;exitY=0.5;exitDx=0;exitDy=0;entryX=0;entryY=0.5;entryDx=0;entryDy=0;" edge="1" parent="1" source="9TZOR45JbfqGNzEFKEyJ-38" target="9TZOR45JbfqGNzEFKEyJ-39">
          <mxGeometry relative="1" as="geometry" />
        </mxCell>
        <mxCell id="9TZOR45JbfqGNzEFKEyJ-38" value="计算使用大小规格" style="ellipse;whiteSpace=wrap;html=1;" vertex="1" parent="1">
          <mxGeometry x="-5480" y="510" width="120" height="80" as="geometry" />
        </mxCell>
        <mxCell id="9TZOR45JbfqGNzEFKEyJ-44" style="edgeStyle=orthogonalEdgeStyle;rounded=0;orthogonalLoop=1;jettySize=auto;html=1;exitX=1;exitY=0.5;exitDx=0;exitDy=0;entryX=0;entryY=0.5;entryDx=0;entryDy=0;" edge="1" parent="1" source="9TZOR45JbfqGNzEFKEyJ-39" target="9TZOR45JbfqGNzEFKEyJ-40">
          <mxGeometry relative="1" as="geometry" />
        </mxCell>
        <mxCell id="9TZOR45JbfqGNzEFKEyJ-39" value="在mcache中对应大小的mspan分配" style="ellipse;whiteSpace=wrap;html=1;" vertex="1" parent="1">
          <mxGeometry x="-5290" y="515" width="120" height="80" as="geometry" />
        </mxCell>
        <mxCell id="9TZOR45JbfqGNzEFKEyJ-45" style="edgeStyle=orthogonalEdgeStyle;rounded=0;orthogonalLoop=1;jettySize=auto;html=1;exitX=1;exitY=0.5;exitDx=0;exitDy=0;" edge="1" parent="1" source="9TZOR45JbfqGNzEFKEyJ-40" target="9TZOR45JbfqGNzEFKEyJ-41">
          <mxGeometry relative="1" as="geometry" />
        </mxCell>
        <mxCell id="9TZOR45JbfqGNzEFKEyJ-40" value="mcentral分配" style="ellipse;whiteSpace=wrap;html=1;" vertex="1" parent="1">
          <mxGeometry x="-5090" y="515" width="120" height="80" as="geometry" />
        </mxCell>
        <mxCell id="9TZOR45JbfqGNzEFKEyJ-46" style="edgeStyle=orthogonalEdgeStyle;rounded=0;orthogonalLoop=1;jettySize=auto;html=1;exitX=1;exitY=0.5;exitDx=0;exitDy=0;" edge="1" parent="1" source="9TZOR45JbfqGNzEFKEyJ-41" target="9TZOR45JbfqGNzEFKEyJ-42">
          <mxGeometry relative="1" as="geometry" />
        </mxCell>
        <mxCell id="9TZOR45JbfqGNzEFKEyJ-41" value="mheap分配" style="ellipse;whiteSpace=wrap;html=1;" vertex="1" parent="1">
          <mxGeometry x="-4860" y="515" width="120" height="80" as="geometry" />
        </mxCell>
        <mxCell id="9TZOR45JbfqGNzEFKEyJ-42" value="操作系统" style="ellipse;whiteSpace=wrap;html=1;" vertex="1" parent="1">
          <mxGeometry x="-4668" y="515" width="120" height="80" as="geometry" />
        </mxCell>
        <mxCell id="9TZOR45JbfqGNzEFKEyJ-51" style="edgeStyle=orthogonalEdgeStyle;rounded=0;orthogonalLoop=1;jettySize=auto;html=1;exitX=1;exitY=0;exitDx=0;exitDy=0;curved=1;" edge="1" parent="1" source="9TZOR45JbfqGNzEFKEyJ-48" target="9TZOR45JbfqGNzEFKEyJ-49">
          <mxGeometry relative="1" as="geometry" />
        </mxCell>
        <mxCell id="9TZOR45JbfqGNzEFKEyJ-53" style="edgeStyle=orthogonalEdgeStyle;rounded=0;orthogonalLoop=1;jettySize=auto;html=1;exitX=1;exitY=0.5;exitDx=0;exitDy=0;entryX=0;entryY=0.5;entryDx=0;entryDy=0;curved=1;" edge="1" parent="1" source="9TZOR45JbfqGNzEFKEyJ-48" target="9TZOR45JbfqGNzEFKEyJ-50">
          <mxGeometry relative="1" as="geometry" />
        </mxCell>
        <mxCell id="9TZOR45JbfqGNzEFKEyJ-58" style="edgeStyle=orthogonalEdgeStyle;rounded=0;orthogonalLoop=1;jettySize=auto;html=1;exitX=1;exitY=1;exitDx=0;exitDy=0;entryX=0;entryY=0.5;entryDx=0;entryDy=0;curved=1;" edge="1" parent="1" source="9TZOR45JbfqGNzEFKEyJ-48" target="9TZOR45JbfqGNzEFKEyJ-57">
          <mxGeometry relative="1" as="geometry" />
        </mxCell>
        <mxCell id="9TZOR45JbfqGNzEFKEyJ-60" style="edgeStyle=orthogonalEdgeStyle;rounded=0;orthogonalLoop=1;jettySize=auto;html=1;exitX=0.5;exitY=1;exitDx=0;exitDy=0;entryX=0;entryY=0.5;entryDx=0;entryDy=0;curved=1;" edge="1" parent="1" source="9TZOR45JbfqGNzEFKEyJ-48" target="9TZOR45JbfqGNzEFKEyJ-59">
          <mxGeometry relative="1" as="geometry" />
        </mxCell>
        <mxCell id="9TZOR45JbfqGNzEFKEyJ-62" style="edgeStyle=orthogonalEdgeStyle;rounded=0;orthogonalLoop=1;jettySize=auto;html=1;exitX=0.5;exitY=0;exitDx=0;exitDy=0;entryX=0.5;entryY=1;entryDx=0;entryDy=0;curved=1;" edge="1" parent="1" source="9TZOR45JbfqGNzEFKEyJ-48" target="9TZOR45JbfqGNzEFKEyJ-61">
          <mxGeometry relative="1" as="geometry" />
        </mxCell>
        <mxCell id="9TZOR45JbfqGNzEFKEyJ-64" style="edgeStyle=orthogonalEdgeStyle;rounded=0;orthogonalLoop=1;jettySize=auto;html=1;exitX=0;exitY=1;exitDx=0;exitDy=0;curved=1;" edge="1" parent="1" source="9TZOR45JbfqGNzEFKEyJ-48" target="9TZOR45JbfqGNzEFKEyJ-63">
          <mxGeometry relative="1" as="geometry" />
        </mxCell>
        <mxCell id="9TZOR45JbfqGNzEFKEyJ-48" value="逃逸机制&lt;br&gt;从协程栈逃逸到堆&lt;br&gt;逃逸分析在编译阶段完成&lt;br&gt;目的是决定分配在栈上还是堆上" style="ellipse;whiteSpace=wrap;html=1;" vertex="1" parent="1">
          <mxGeometry x="-4940" y="-720" width="240" height="80" as="geometry" />
        </mxCell>
        <mxCell id="9TZOR45JbfqGNzEFKEyJ-55" style="edgeStyle=orthogonalEdgeStyle;rounded=0;orthogonalLoop=1;jettySize=auto;html=1;exitX=0.5;exitY=0;exitDx=0;exitDy=0;entryX=0;entryY=0.5;entryDx=0;entryDy=0;curved=1;" edge="1" parent="1" source="9TZOR45JbfqGNzEFKEyJ-49" target="9TZOR45JbfqGNzEFKEyJ-54">
          <mxGeometry relative="1" as="geometry" />
        </mxCell>
        <mxCell id="9TZOR45JbfqGNzEFKEyJ-49" value="外部引用" style="ellipse;whiteSpace=wrap;html=1;" vertex="1" parent="1">
          <mxGeometry x="-4650" y="-850" width="120" height="80" as="geometry" />
        </mxCell>
        <mxCell id="9TZOR45JbfqGNzEFKEyJ-50" value="协程栈空间不足" style="ellipse;whiteSpace=wrap;html=1;" vertex="1" parent="1">
          <mxGeometry x="-4510" y="-720" width="120" height="80" as="geometry" />
        </mxCell>
        <mxCell id="9TZOR45JbfqGNzEFKEyJ-54" value="指针作为返回值，&lt;br&gt;go build -gcflags=-m main.go&lt;br&gt;moved to heap 变量" style="ellipse;whiteSpace=wrap;html=1;" vertex="1" parent="1">
          <mxGeometry x="-4450" y="-1000" width="120" height="80" as="geometry" />
        </mxCell>
        <mxCell id="9TZOR45JbfqGNzEFKEyJ-57" value="变量大小不确定&lt;br&gt;比如无法确定slice长度&lt;br&gt;逃逸到堆" style="ellipse;whiteSpace=wrap;html=1;" vertex="1" parent="1">
          <mxGeometry x="-4540" y="-580" width="120" height="80" as="geometry" />
        </mxCell>
        <mxCell id="9TZOR45JbfqGNzEFKEyJ-59" value="动态类型：编译器不确定参数的类型，比如空接口" style="ellipse;whiteSpace=wrap;html=1;" vertex="1" parent="1">
          <mxGeometry x="-4450" y="-410" width="120" height="80" as="geometry" />
        </mxCell>
        <mxCell id="9TZOR45JbfqGNzEFKEyJ-61" value="闭包中的那个局部变量" style="ellipse;whiteSpace=wrap;html=1;" vertex="1" parent="1">
          <mxGeometry x="-4870" y="-990" width="120" height="80" as="geometry" />
        </mxCell>
        <mxCell id="9TZOR45JbfqGNzEFKEyJ-66" style="edgeStyle=orthogonalEdgeStyle;rounded=0;orthogonalLoop=1;jettySize=auto;html=1;exitX=1;exitY=1;exitDx=0;exitDy=0;entryX=0;entryY=0.5;entryDx=0;entryDy=0;curved=1;" edge="1" parent="1" source="9TZOR45JbfqGNzEFKEyJ-63" target="9TZOR45JbfqGNzEFKEyJ-65">
          <mxGeometry relative="1" as="geometry" />
        </mxCell>
        <mxCell id="9TZOR45JbfqGNzEFKEyJ-63" value="指针变量" style="ellipse;whiteSpace=wrap;html=1;" vertex="1" parent="1">
          <mxGeometry x="-4890" y="-350" width="120" height="80" as="geometry" />
        </mxCell>
        <mxCell id="9TZOR45JbfqGNzEFKEyJ-65" value="无论变量大小，指针都在堆上分配，但是栈内存分配效率高，所以小变量尽量用值" style="ellipse;whiteSpace=wrap;html=1;" vertex="1" parent="1">
          <mxGeometry x="-4565" y="-210" width="120" height="80" as="geometry" />
        </mxCell>
        <mxCell id="9TZOR45JbfqGNzEFKEyJ-67" value="堆是进程分配内存的基本单位" style="ellipse;whiteSpace=wrap;html=1;" vertex="1" parent="1">
          <mxGeometry x="-5310" y="-880" width="120" height="80" as="geometry" />
        </mxCell>
        <mxCell id="9TZOR45JbfqGNzEFKEyJ-75" style="edgeStyle=orthogonalEdgeStyle;rounded=0;orthogonalLoop=1;jettySize=auto;html=1;exitX=0.5;exitY=0;exitDx=0;exitDy=0;entryX=0.5;entryY=1;entryDx=0;entryDy=0;curved=1;" edge="1" parent="1" source="9TZOR45JbfqGNzEFKEyJ-69" target="9TZOR45JbfqGNzEFKEyJ-70">
          <mxGeometry relative="1" as="geometry" />
        </mxCell>
        <mxCell id="9TZOR45JbfqGNzEFKEyJ-111" style="edgeStyle=orthogonalEdgeStyle;rounded=0;orthogonalLoop=1;jettySize=auto;html=1;exitX=0;exitY=1;exitDx=0;exitDy=0;entryX=1;entryY=0.5;entryDx=0;entryDy=0;curved=1;" edge="1" parent="1" source="9TZOR45JbfqGNzEFKEyJ-69" target="9TZOR45JbfqGNzEFKEyJ-110">
          <mxGeometry relative="1" as="geometry" />
        </mxCell>
        <mxCell id="9TZOR45JbfqGNzEFKEyJ-69" value="GC" style="ellipse;whiteSpace=wrap;html=1;" vertex="1" parent="1">
          <mxGeometry x="-6035" y="-3110" width="120" height="80" as="geometry" />
        </mxCell>
        <mxCell id="9TZOR45JbfqGNzEFKEyJ-76" style="edgeStyle=orthogonalEdgeStyle;rounded=0;orthogonalLoop=1;jettySize=auto;html=1;exitX=0;exitY=0.5;exitDx=0;exitDy=0;entryX=0.5;entryY=1;entryDx=0;entryDy=0;curved=1;" edge="1" parent="1" source="9TZOR45JbfqGNzEFKEyJ-70" target="9TZOR45JbfqGNzEFKEyJ-71">
          <mxGeometry relative="1" as="geometry" />
        </mxCell>
        <mxCell id="9TZOR45JbfqGNzEFKEyJ-77" style="edgeStyle=orthogonalEdgeStyle;rounded=0;orthogonalLoop=1;jettySize=auto;html=1;exitX=0;exitY=0;exitDx=0;exitDy=0;entryX=0.5;entryY=1;entryDx=0;entryDy=0;curved=1;" edge="1" parent="1" source="9TZOR45JbfqGNzEFKEyJ-70" target="9TZOR45JbfqGNzEFKEyJ-72">
          <mxGeometry relative="1" as="geometry" />
        </mxCell>
        <mxCell id="9TZOR45JbfqGNzEFKEyJ-78" style="edgeStyle=orthogonalEdgeStyle;rounded=0;orthogonalLoop=1;jettySize=auto;html=1;exitX=1;exitY=0;exitDx=0;exitDy=0;entryX=0.5;entryY=1;entryDx=0;entryDy=0;curved=1;" edge="1" parent="1" source="9TZOR45JbfqGNzEFKEyJ-70" target="9TZOR45JbfqGNzEFKEyJ-73">
          <mxGeometry relative="1" as="geometry">
            <mxPoint x="-5875" y="-3500" as="targetPoint" />
            <Array as="points">
              <mxPoint x="-5885" y="-3398" />
            </Array>
          </mxGeometry>
        </mxCell>
        <mxCell id="9TZOR45JbfqGNzEFKEyJ-79" style="edgeStyle=orthogonalEdgeStyle;rounded=0;orthogonalLoop=1;jettySize=auto;html=1;exitX=1;exitY=0.5;exitDx=0;exitDy=0;entryX=0.5;entryY=1;entryDx=0;entryDy=0;curved=1;" edge="1" parent="1" source="9TZOR45JbfqGNzEFKEyJ-70" target="9TZOR45JbfqGNzEFKEyJ-74">
          <mxGeometry relative="1" as="geometry" />
        </mxCell>
        <mxCell id="9TZOR45JbfqGNzEFKEyJ-70" value="常用算法" style="ellipse;whiteSpace=wrap;html=1;" vertex="1" parent="1">
          <mxGeometry x="-6035" y="-3410" width="120" height="80" as="geometry" />
        </mxCell>
        <mxCell id="9TZOR45JbfqGNzEFKEyJ-71" value="引用计数" style="ellipse;whiteSpace=wrap;html=1;" vertex="1" parent="1">
          <mxGeometry x="-6375" y="-3610" width="120" height="80" as="geometry" />
        </mxCell>
        <mxCell id="9TZOR45JbfqGNzEFKEyJ-72" value="分代收集" style="ellipse;whiteSpace=wrap;html=1;" vertex="1" parent="1">
          <mxGeometry x="-6165" y="-3610" width="120" height="80" as="geometry" />
        </mxCell>
        <mxCell id="9TZOR45JbfqGNzEFKEyJ-87" style="edgeStyle=orthogonalEdgeStyle;rounded=0;orthogonalLoop=1;jettySize=auto;html=1;exitX=0;exitY=0;exitDx=0;exitDy=0;entryX=0.5;entryY=1;entryDx=0;entryDy=0;curved=1;" edge="1" parent="1" source="9TZOR45JbfqGNzEFKEyJ-73" target="9TZOR45JbfqGNzEFKEyJ-80">
          <mxGeometry relative="1" as="geometry" />
        </mxCell>
        <mxCell id="9TZOR45JbfqGNzEFKEyJ-97" style="edgeStyle=orthogonalEdgeStyle;rounded=0;orthogonalLoop=1;jettySize=auto;html=1;exitX=0.5;exitY=0;exitDx=0;exitDy=0;entryX=0.5;entryY=1;entryDx=0;entryDy=0;curved=1;" edge="1" parent="1" source="9TZOR45JbfqGNzEFKEyJ-73" target="9TZOR45JbfqGNzEFKEyJ-96">
          <mxGeometry relative="1" as="geometry" />
        </mxCell>
        <mxCell id="9TZOR45JbfqGNzEFKEyJ-99" style="edgeStyle=orthogonalEdgeStyle;rounded=0;orthogonalLoop=1;jettySize=auto;html=1;exitX=1;exitY=0;exitDx=0;exitDy=0;entryX=0.5;entryY=1;entryDx=0;entryDy=0;curved=1;" edge="1" parent="1" source="9TZOR45JbfqGNzEFKEyJ-73" target="9TZOR45JbfqGNzEFKEyJ-98">
          <mxGeometry relative="1" as="geometry" />
        </mxCell>
        <mxCell id="9TZOR45JbfqGNzEFKEyJ-101" style="edgeStyle=orthogonalEdgeStyle;rounded=0;orthogonalLoop=1;jettySize=auto;html=1;exitX=1;exitY=0.5;exitDx=0;exitDy=0;entryX=1;entryY=1;entryDx=0;entryDy=0;curved=1;" edge="1" parent="1" source="9TZOR45JbfqGNzEFKEyJ-73" target="9TZOR45JbfqGNzEFKEyJ-100">
          <mxGeometry relative="1" as="geometry" />
        </mxCell>
        <mxCell id="9TZOR45JbfqGNzEFKEyJ-73" value="标记清除(GOLANG)" style="ellipse;whiteSpace=wrap;html=1;" vertex="1" parent="1">
          <mxGeometry x="-5945" y="-3610" width="120" height="80" as="geometry" />
        </mxCell>
        <mxCell id="9TZOR45JbfqGNzEFKEyJ-74" value="标记整理" style="ellipse;whiteSpace=wrap;html=1;" vertex="1" parent="1">
          <mxGeometry x="-5615" y="-3500" width="120" height="80" as="geometry" />
        </mxCell>
        <mxCell id="9TZOR45JbfqGNzEFKEyJ-84" style="edgeStyle=orthogonalEdgeStyle;rounded=0;orthogonalLoop=1;jettySize=auto;html=1;exitX=0;exitY=0.5;exitDx=0;exitDy=0;entryX=0.5;entryY=1;entryDx=0;entryDy=0;curved=1;" edge="1" parent="1" source="9TZOR45JbfqGNzEFKEyJ-80" target="9TZOR45JbfqGNzEFKEyJ-81">
          <mxGeometry relative="1" as="geometry" />
        </mxCell>
        <mxCell id="9TZOR45JbfqGNzEFKEyJ-85" style="edgeStyle=orthogonalEdgeStyle;rounded=0;orthogonalLoop=1;jettySize=auto;html=1;exitX=0.5;exitY=0;exitDx=0;exitDy=0;curved=1;" edge="1" parent="1" source="9TZOR45JbfqGNzEFKEyJ-80" target="9TZOR45JbfqGNzEFKEyJ-82">
          <mxGeometry relative="1" as="geometry" />
        </mxCell>
        <mxCell id="9TZOR45JbfqGNzEFKEyJ-86" style="edgeStyle=orthogonalEdgeStyle;rounded=0;orthogonalLoop=1;jettySize=auto;html=1;exitX=1;exitY=0.5;exitDx=0;exitDy=0;entryX=0.5;entryY=1;entryDx=0;entryDy=0;curved=1;" edge="1" parent="1" source="9TZOR45JbfqGNzEFKEyJ-80" target="9TZOR45JbfqGNzEFKEyJ-83">
          <mxGeometry relative="1" as="geometry" />
        </mxCell>
        <mxCell id="9TZOR45JbfqGNzEFKEyJ-89" style="edgeStyle=orthogonalEdgeStyle;rounded=0;orthogonalLoop=1;jettySize=auto;html=1;exitX=0;exitY=1;exitDx=0;exitDy=0;entryX=1;entryY=0.5;entryDx=0;entryDy=0;curved=1;" edge="1" parent="1" source="9TZOR45JbfqGNzEFKEyJ-80" target="9TZOR45JbfqGNzEFKEyJ-88">
          <mxGeometry relative="1" as="geometry">
            <Array as="points">
              <mxPoint x="-6355" y="-3742" />
            </Array>
          </mxGeometry>
        </mxCell>
        <mxCell id="9TZOR45JbfqGNzEFKEyJ-80" value="三色标记" style="ellipse;whiteSpace=wrap;html=1;" vertex="1" parent="1">
          <mxGeometry x="-6095" y="-3860" width="120" height="80" as="geometry" />
        </mxCell>
        <mxCell id="9TZOR45JbfqGNzEFKEyJ-81" value="灰：&lt;br&gt;在标记队列中等待" style="ellipse;whiteSpace=wrap;html=1;" vertex="1" parent="1">
          <mxGeometry x="-6285" y="-4000" width="120" height="80" as="geometry" />
        </mxCell>
        <mxCell id="9TZOR45JbfqGNzEFKEyJ-82" value="黑&lt;br&gt;已标记 不会被回收" style="ellipse;whiteSpace=wrap;html=1;" vertex="1" parent="1">
          <mxGeometry x="-6105" y="-4000" width="120" height="80" as="geometry" />
        </mxCell>
        <mxCell id="9TZOR45JbfqGNzEFKEyJ-83" value="白&lt;br&gt;未标记 本次会回收" style="ellipse;whiteSpace=wrap;html=1;" vertex="1" parent="1">
          <mxGeometry x="-5935" y="-4000" width="120" height="80" as="geometry" />
        </mxCell>
        <mxCell id="9TZOR45JbfqGNzEFKEyJ-93" style="edgeStyle=orthogonalEdgeStyle;rounded=0;orthogonalLoop=1;jettySize=auto;html=1;exitX=0;exitY=0.5;exitDx=0;exitDy=0;entryX=0.5;entryY=1;entryDx=0;entryDy=0;" edge="1" parent="1" source="9TZOR45JbfqGNzEFKEyJ-88" target="9TZOR45JbfqGNzEFKEyJ-90">
          <mxGeometry relative="1" as="geometry" />
        </mxCell>
        <mxCell id="9TZOR45JbfqGNzEFKEyJ-94" style="edgeStyle=orthogonalEdgeStyle;rounded=0;orthogonalLoop=1;jettySize=auto;html=1;exitX=0;exitY=0;exitDx=0;exitDy=0;" edge="1" parent="1" source="9TZOR45JbfqGNzEFKEyJ-88" target="9TZOR45JbfqGNzEFKEyJ-91">
          <mxGeometry relative="1" as="geometry" />
        </mxCell>
        <mxCell id="9TZOR45JbfqGNzEFKEyJ-95" style="edgeStyle=orthogonalEdgeStyle;rounded=0;orthogonalLoop=1;jettySize=auto;html=1;exitX=0.5;exitY=0;exitDx=0;exitDy=0;entryX=0.5;entryY=1;entryDx=0;entryDy=0;" edge="1" parent="1" source="9TZOR45JbfqGNzEFKEyJ-88" target="9TZOR45JbfqGNzEFKEyJ-92">
          <mxGeometry relative="1" as="geometry" />
        </mxCell>
        <mxCell id="9TZOR45JbfqGNzEFKEyJ-88" value="GC根" style="ellipse;whiteSpace=wrap;html=1;" vertex="1" parent="1">
          <mxGeometry x="-6475" y="-3820" width="120" height="80" as="geometry" />
        </mxCell>
        <mxCell id="9TZOR45JbfqGNzEFKEyJ-90" value="全局、静态变量" style="ellipse;whiteSpace=wrap;html=1;" vertex="1" parent="1">
          <mxGeometry x="-6755" y="-3970" width="120" height="80" as="geometry" />
        </mxCell>
        <mxCell id="9TZOR45JbfqGNzEFKEyJ-91" value="引用堆中对象的变量" style="ellipse;whiteSpace=wrap;html=1;" vertex="1" parent="1">
          <mxGeometry x="-6595" y="-3970" width="120" height="80" as="geometry" />
        </mxCell>
        <mxCell id="9TZOR45JbfqGNzEFKEyJ-92" value="指针" style="ellipse;whiteSpace=wrap;html=1;" vertex="1" parent="1">
          <mxGeometry x="-6428" y="-3960" width="120" height="80" as="geometry" />
        </mxCell>
        <mxCell id="9TZOR45JbfqGNzEFKEyJ-96" value="写屏障&lt;br&gt;让goroutine和GC同时运行" style="ellipse;whiteSpace=wrap;html=1;" vertex="1" parent="1">
          <mxGeometry x="-5775" y="-3930" width="120" height="80" as="geometry" />
        </mxCell>
        <mxCell id="9TZOR45JbfqGNzEFKEyJ-98" value="辅助GC&lt;br&gt;防止内存分配过快" style="ellipse;whiteSpace=wrap;html=1;" vertex="1" parent="1">
          <mxGeometry x="-5625" y="-3820" width="120" height="80" as="geometry" />
        </mxCell>
        <mxCell id="9TZOR45JbfqGNzEFKEyJ-106" style="edgeStyle=orthogonalEdgeStyle;rounded=0;orthogonalLoop=1;jettySize=auto;html=1;exitX=0;exitY=0.5;exitDx=0;exitDy=0;entryX=0;entryY=0.5;entryDx=0;entryDy=0;" edge="1" parent="1" source="9TZOR45JbfqGNzEFKEyJ-100" target="9TZOR45JbfqGNzEFKEyJ-102">
          <mxGeometry relative="1" as="geometry" />
        </mxCell>
        <mxCell id="9TZOR45JbfqGNzEFKEyJ-100" value="流程" style="ellipse;whiteSpace=wrap;html=1;" vertex="1" parent="1">
          <mxGeometry x="-5405" y="-4020" width="120" height="80" as="geometry" />
        </mxCell>
        <mxCell id="9TZOR45JbfqGNzEFKEyJ-107" style="edgeStyle=orthogonalEdgeStyle;rounded=0;orthogonalLoop=1;jettySize=auto;html=1;exitX=1;exitY=0.5;exitDx=0;exitDy=0;" edge="1" parent="1" source="9TZOR45JbfqGNzEFKEyJ-102" target="9TZOR45JbfqGNzEFKEyJ-103">
          <mxGeometry relative="1" as="geometry" />
        </mxCell>
        <mxCell id="9TZOR45JbfqGNzEFKEyJ-102" value="标记准备：&lt;br&gt;打开写屏障&lt;br&gt;STW" style="ellipse;whiteSpace=wrap;html=1;" vertex="1" parent="1">
          <mxGeometry x="-5645" y="-4250" width="120" height="80" as="geometry" />
        </mxCell>
        <mxCell id="9TZOR45JbfqGNzEFKEyJ-108" style="edgeStyle=orthogonalEdgeStyle;rounded=0;orthogonalLoop=1;jettySize=auto;html=1;exitX=1;exitY=0.5;exitDx=0;exitDy=0;" edge="1" parent="1" source="9TZOR45JbfqGNzEFKEyJ-103" target="9TZOR45JbfqGNzEFKEyJ-104">
          <mxGeometry relative="1" as="geometry" />
        </mxCell>
        <mxCell id="9TZOR45JbfqGNzEFKEyJ-103" value="标记开始：&lt;br&gt;与用户协程并发的并发标记" style="ellipse;whiteSpace=wrap;html=1;" vertex="1" parent="1">
          <mxGeometry x="-5475" y="-4250" width="120" height="80" as="geometry" />
        </mxCell>
        <mxCell id="9TZOR45JbfqGNzEFKEyJ-109" style="edgeStyle=orthogonalEdgeStyle;rounded=0;orthogonalLoop=1;jettySize=auto;html=1;exitX=1;exitY=0.5;exitDx=0;exitDy=0;entryX=0;entryY=0.5;entryDx=0;entryDy=0;" edge="1" parent="1" source="9TZOR45JbfqGNzEFKEyJ-104" target="9TZOR45JbfqGNzEFKEyJ-105">
          <mxGeometry relative="1" as="geometry" />
        </mxCell>
        <mxCell id="9TZOR45JbfqGNzEFKEyJ-104" value="标记终止：&lt;br&gt;对触发写屏障的对象重新扫描标记" style="ellipse;whiteSpace=wrap;html=1;" vertex="1" parent="1">
          <mxGeometry x="-5305" y="-4250" width="120" height="80" as="geometry" />
        </mxCell>
        <mxCell id="9TZOR45JbfqGNzEFKEyJ-105" value="清理" style="ellipse;whiteSpace=wrap;html=1;" vertex="1" parent="1">
          <mxGeometry x="-5105" y="-4250" width="120" height="80" as="geometry" />
        </mxCell>
        <mxCell id="9TZOR45JbfqGNzEFKEyJ-116" style="edgeStyle=orthogonalEdgeStyle;rounded=0;orthogonalLoop=1;jettySize=auto;html=1;exitX=0;exitY=0;exitDx=0;exitDy=0;entryX=1;entryY=0.5;entryDx=0;entryDy=0;curved=1;" edge="1" parent="1" source="9TZOR45JbfqGNzEFKEyJ-110" target="9TZOR45JbfqGNzEFKEyJ-112">
          <mxGeometry relative="1" as="geometry" />
        </mxCell>
        <mxCell id="9TZOR45JbfqGNzEFKEyJ-117" style="edgeStyle=orthogonalEdgeStyle;rounded=0;orthogonalLoop=1;jettySize=auto;html=1;exitX=0;exitY=0.5;exitDx=0;exitDy=0;entryX=1;entryY=0.5;entryDx=0;entryDy=0;curved=1;" edge="1" parent="1" source="9TZOR45JbfqGNzEFKEyJ-110" target="9TZOR45JbfqGNzEFKEyJ-113">
          <mxGeometry relative="1" as="geometry" />
        </mxCell>
        <mxCell id="9TZOR45JbfqGNzEFKEyJ-118" style="edgeStyle=orthogonalEdgeStyle;rounded=0;orthogonalLoop=1;jettySize=auto;html=1;exitX=0;exitY=1;exitDx=0;exitDy=0;entryX=1;entryY=0.5;entryDx=0;entryDy=0;curved=1;" edge="1" parent="1" source="9TZOR45JbfqGNzEFKEyJ-110" target="9TZOR45JbfqGNzEFKEyJ-114">
          <mxGeometry relative="1" as="geometry" />
        </mxCell>
        <mxCell id="9TZOR45JbfqGNzEFKEyJ-119" style="edgeStyle=orthogonalEdgeStyle;rounded=0;orthogonalLoop=1;jettySize=auto;html=1;exitX=0.5;exitY=1;exitDx=0;exitDy=0;entryX=1;entryY=0.5;entryDx=0;entryDy=0;curved=1;" edge="1" parent="1" source="9TZOR45JbfqGNzEFKEyJ-110" target="9TZOR45JbfqGNzEFKEyJ-115">
          <mxGeometry relative="1" as="geometry" />
        </mxCell>
        <mxCell id="9TZOR45JbfqGNzEFKEyJ-126" style="edgeStyle=orthogonalEdgeStyle;rounded=0;orthogonalLoop=1;jettySize=auto;html=1;exitX=1;exitY=1;exitDx=0;exitDy=0;entryX=1;entryY=0.5;entryDx=0;entryDy=0;curved=1;" edge="1" parent="1" source="9TZOR45JbfqGNzEFKEyJ-110" target="9TZOR45JbfqGNzEFKEyJ-125">
          <mxGeometry relative="1" as="geometry" />
        </mxCell>
        <mxCell id="9TZOR45JbfqGNzEFKEyJ-110" value="调优&lt;br&gt;本质就是控制内存分配速度" style="ellipse;whiteSpace=wrap;html=1;" vertex="1" parent="1">
          <mxGeometry x="-6570" y="-2920" width="260" height="80" as="geometry" />
        </mxCell>
        <mxCell id="9TZOR45JbfqGNzEFKEyJ-112" value="少使用+连接string&lt;br&gt;字符串的实际内容存储在一个只读的字节数组中。每次对字符串进行连接操作时，都会创建一个新的字符串对象，而原来的字符串对象会被丢弃。&lt;br&gt;&lt;br&gt;&lt;code style=&quot;border: 0px solid rgb(227, 227, 227); box-sizing: border-box; --tw-border-spacing-x: 0; --tw-border-spacing-y: 0; --tw-translate-x: 0; --tw-translate-y: 0; --tw-rotate: 0; --tw-skew-x: 0; --tw-skew-y: 0; --tw-scale-x: 1; --tw-scale-y: 1; --tw-pan-x: ; --tw-pan-y: ; --tw-pinch-zoom: ; --tw-scroll-snap-strictness: proximity; --tw-gradient-from-position: ; --tw-gradient-via-position: ; --tw-gradient-to-position: ; --tw-ordinal: ; --tw-slashed-zero: ; --tw-numeric-figure: ; --tw-numeric-spacing: ; --tw-numeric-fraction: ; --tw-ring-inset: ; --tw-ring-offset-width: 0px; --tw-ring-offset-color: #fff; --tw-ring-color: rgba(69,89,164,.5); --tw-ring-offset-shadow: 0 0 transparent; --tw-ring-shadow: 0 0 transparent; --tw-shadow: 0 0 transparent; --tw-shadow-colored: 0 0 transparent; --tw-blur: ; --tw-brightness: ; --tw-contrast: ; --tw-grayscale: ; --tw-hue-rotate: ; --tw-invert: ; --tw-saturate: ; --tw-sepia: ; --tw-drop-shadow: ; --tw-backdrop-blur: ; --tw-backdrop-brightness: ; --tw-backdrop-contrast: ; --tw-backdrop-grayscale: ; --tw-backdrop-hue-rotate: ; --tw-backdrop-invert: ; --tw-backdrop-opacity: ; --tw-backdrop-saturate: ; --tw-backdrop-sepia: ; font-size: 0.875em; color: rgb(13, 13, 13); font-weight: 600; text-align: start; background-color: rgb(255, 255, 255); font-family: &amp;quot;Söhne Mono&amp;quot;, Monaco, &amp;quot;Andale Mono&amp;quot;, &amp;quot;Ubuntu Mono&amp;quot;, monospace !important;&quot;&gt;strings.Builder&lt;/code&gt; 或 &lt;code style=&quot;border: 0px solid rgb(227, 227, 227); box-sizing: border-box; --tw-border-spacing-x: 0; --tw-border-spacing-y: 0; --tw-translate-x: 0; --tw-translate-y: 0; --tw-rotate: 0; --tw-skew-x: 0; --tw-skew-y: 0; --tw-scale-x: 1; --tw-scale-y: 1; --tw-pan-x: ; --tw-pan-y: ; --tw-pinch-zoom: ; --tw-scroll-snap-strictness: proximity; --tw-gradient-from-position: ; --tw-gradient-via-position: ; --tw-gradient-to-position: ; --tw-ordinal: ; --tw-slashed-zero: ; --tw-numeric-figure: ; --tw-numeric-spacing: ; --tw-numeric-fraction: ; --tw-ring-inset: ; --tw-ring-offset-width: 0px; --tw-ring-offset-color: #fff; --tw-ring-color: rgba(69,89,164,.5); --tw-ring-offset-shadow: 0 0 transparent; --tw-ring-shadow: 0 0 transparent; --tw-shadow: 0 0 transparent; --tw-shadow-colored: 0 0 transparent; --tw-blur: ; --tw-brightness: ; --tw-contrast: ; --tw-grayscale: ; --tw-hue-rotate: ; --tw-invert: ; --tw-saturate: ; --tw-sepia: ; --tw-drop-shadow: ; --tw-backdrop-blur: ; --tw-backdrop-brightness: ; --tw-backdrop-contrast: ; --tw-backdrop-grayscale: ; --tw-backdrop-hue-rotate: ; --tw-backdrop-invert: ; --tw-backdrop-opacity: ; --tw-backdrop-saturate: ; --tw-backdrop-sepia: ; font-size: 0.875em; color: rgb(13, 13, 13); font-weight: 600; text-align: start; background-color: rgb(255, 255, 255); font-family: &amp;quot;Söhne Mono&amp;quot;, Monaco, &amp;quot;Andale Mono&amp;quot;, &amp;quot;Ubuntu Mono&amp;quot;, monospace !important;&quot;&gt;bytes.Buffer拼接字符串&lt;/code&gt;" style="ellipse;whiteSpace=wrap;html=1;" vertex="1" parent="1">
          <mxGeometry x="-7050" y="-3130" width="330" height="180" as="geometry" />
        </mxCell>
        <mxCell id="9TZOR45JbfqGNzEFKEyJ-113" value="slice提前分配好足够内存空间防止扩容" style="ellipse;whiteSpace=wrap;html=1;" vertex="1" parent="1">
          <mxGeometry x="-6840" y="-2830" width="120" height="80" as="geometry" />
        </mxCell>
        <mxCell id="9TZOR45JbfqGNzEFKEyJ-114" value="map key对象不要过多&lt;div&gt;&lt;br&gt;&lt;/div&gt;&lt;div&gt;字节数组的比较通常比字符串的比较更快。字符串的比较需要考虑 Unicode 码点和规范化等复杂性，而字节数组的比较则更直接，只需逐字节比较即可。&lt;br&gt;&lt;/div&gt;" style="ellipse;whiteSpace=wrap;html=1;" vertex="1" parent="1">
          <mxGeometry x="-7080" y="-2730" width="360" height="160" as="geometry" />
        </mxCell>
        <mxCell id="9TZOR45JbfqGNzEFKEyJ-115" value="变量复用" style="ellipse;whiteSpace=wrap;html=1;" vertex="1" parent="1">
          <mxGeometry x="-6840" y="-2480" width="120" height="80" as="geometry" />
        </mxCell>
        <mxCell id="9TZOR45JbfqGNzEFKEyJ-121" value="&lt;br&gt;不允许写和其他操作并发" style="ellipse;whiteSpace=wrap;html=1;" vertex="1" parent="1">
          <mxGeometry x="-1020" y="-850" width="120" height="80" as="geometry" />
        </mxCell>
        <mxCell id="9TZOR45JbfqGNzEFKEyJ-123" value="sync.cond&lt;br&gt;对信号量的封装" style="ellipse;whiteSpace=wrap;html=1;" vertex="1" parent="1">
          <mxGeometry x="-1450" y="-660" width="120" height="80" as="geometry" />
        </mxCell>
        <mxCell id="9TZOR45JbfqGNzEFKEyJ-125" value="使用对象池sync.pool" style="ellipse;whiteSpace=wrap;html=1;" vertex="1" parent="1">
          <mxGeometry x="-6820" y="-2300" width="120" height="80" as="geometry" />
        </mxCell>
      </root>
    </mxGraphModel>
  </diagram>
</mxfile>
